<svg width="25" height="25" viewBox="0 0 25 25" fill="none" xmlns="http://www.w3.org/2000/svg">
<g clip-path="url(#clip0_563_6680)">
<path d="M7.6785 10.7366C7.6785 11.0336 7.71375 11.2721 7.7685 11.4476C7.83075 11.6231 7.91326 11.8151 8.02276 12.0221C8.05967 12.0764 8.08 12.1402 8.08125 12.2059C8.08125 12.2876 8.03026 12.3664 7.92901 12.4481L7.425 12.7804C7.36522 12.8257 7.29298 12.8516 7.21801 12.8546C7.13626 12.8546 7.0575 12.8156 6.9795 12.7414C6.87037 12.6268 6.77359 12.5011 6.69075 12.3664C6.60094 12.2143 6.51883 12.0579 6.44475 11.8976C5.82 12.6319 5.03851 12.9994 4.09725 12.9994C3.42526 12.9994 2.8905 12.8081 2.49975 12.4249C2.109 12.0379 1.91025 11.5301 1.91025 10.8896C1.91025 10.2139 2.14875 9.65887 2.637 9.24487C3.12525 8.83087 3.7695 8.62387 4.59375 8.62387C4.863 8.62387 5.14425 8.64712 5.4375 8.68612C5.7345 8.72512 6.039 8.79187 6.3555 8.86162V8.27962C6.3555 7.67437 6.23025 7.24837 5.9805 7.00237C5.72625 6.75637 5.29726 6.63487 4.68001 6.63487C4.4025 6.63487 4.11375 6.66637 3.81675 6.73612C3.52424 6.80727 3.23704 6.89875 2.95725 7.00987C2.8635 7.05262 2.76975 7.08412 2.676 7.11562C2.63518 7.12774 2.5932 7.13553 2.55075 7.13887C2.4375 7.13887 2.38275 7.05712 2.38275 6.88912V6.49837C2.38275 6.37312 2.3985 6.27562 2.4375 6.22087C2.49612 6.14669 2.57283 6.08884 2.66025 6.05287C2.97945 5.89343 3.31661 5.77282 3.6645 5.69362C4.07132 5.58868 4.49014 5.5375 4.91025 5.54137C5.8635 5.54137 6.555 5.75587 7.00425 6.19012C7.4415 6.61987 7.66425 7.27237 7.66425 8.15137V10.7374L7.6785 10.7366ZM4.44 11.9516C4.70175 11.9516 4.9755 11.9044 5.2605 11.8069C5.55354 11.7077 5.81497 11.5325 6.018 11.2991C6.14701 11.1469 6.2445 10.9789 6.29175 10.7876C6.339 10.5964 6.36975 10.3616 6.36975 10.0924V9.75637C6.12783 9.69682 5.88267 9.65124 5.6355 9.61987C5.38676 9.58819 5.13626 9.5724 4.8855 9.57262C4.35 9.57262 3.96 9.67837 3.69825 9.89287C3.43275 10.1074 3.3075 10.4126 3.3075 10.8109C3.3075 11.1859 3.40125 11.4634 3.60075 11.6546C3.792 11.8541 4.07325 11.9516 4.44075 11.9516H4.44ZM10.8503 12.8149C10.7055 12.8149 10.608 12.7916 10.5458 12.7331C10.4835 12.6859 10.425 12.5726 10.3778 12.4249L8.50275 6.25312C8.46607 6.1497 8.44239 6.04213 8.43225 5.93287C8.43225 5.80387 8.4945 5.73337 8.61975 5.73337H9.405C9.55725 5.73337 9.65926 5.75662 9.71325 5.81137C9.78 5.85862 9.8265 5.97187 9.87375 6.12412L11.2178 11.4094L12.4635 6.12412C12.5025 5.96362 12.5498 5.85862 12.612 5.81137C12.708 5.75267 12.82 5.72541 12.9323 5.73337H13.569C13.7213 5.73337 13.827 5.75662 13.8893 5.81137C13.9515 5.85862 14.01 5.97187 14.0415 6.12412L15.303 11.4716L16.6823 6.12412C16.7333 5.96362 16.788 5.85862 16.8428 5.81137C16.936 5.75274 17.0456 5.72541 17.1555 5.73337H17.898C18.027 5.73337 18.0975 5.79562 18.0975 5.93287C18.0975 5.97187 18.09 6.01087 18.0818 6.06187C18.0688 6.1297 18.0505 6.19641 18.027 6.26137L16.101 12.4294C16.0538 12.5899 15.9998 12.6949 15.933 12.7421C15.8441 12.8006 15.7384 12.828 15.6323 12.8201H14.9445C14.7923 12.8201 14.6903 12.7969 14.6243 12.7421C14.562 12.6874 14.5073 12.5816 14.4758 12.4219L13.2375 7.27312L12.0068 12.4136C11.9678 12.5741 11.9205 12.6791 11.8545 12.7339C11.7923 12.7886 11.679 12.8119 11.5343 12.8119L10.8503 12.8149ZM21.1043 13.0301C20.6903 13.0301 20.2763 12.9791 19.878 12.8854C19.4798 12.7916 19.167 12.6859 18.96 12.5651C18.831 12.4946 18.7455 12.4166 18.714 12.3424C18.6814 12.2726 18.664 12.1966 18.663 12.1196V11.7131C18.663 11.5451 18.7298 11.4634 18.8468 11.4634C18.894 11.4634 18.9443 11.4709 18.9915 11.4866C19.0388 11.5061 19.1123 11.5376 19.191 11.5684C19.4648 11.6891 19.7573 11.7829 20.07 11.8459C20.3903 11.9126 20.6993 11.9434 21.0195 11.9434C21.5235 11.9434 21.9143 11.8534 22.1835 11.6779C22.449 11.5174 22.6095 11.2286 22.6013 10.9204C22.6043 10.7135 22.5275 10.5133 22.3868 10.3616C22.242 10.2131 21.969 10.0766 21.5783 9.94762L20.4218 9.58837C19.8398 9.40462 19.4063 9.13537 19.1445 8.77612C18.8867 8.44401 18.7454 8.03627 18.7425 7.61587C18.7425 7.27987 18.8168 6.98662 18.9615 6.72937C19.1063 6.47512 19.2975 6.25312 19.536 6.07687C19.7838 5.88844 20.0646 5.74803 20.364 5.66287C20.6843 5.56537 21.0203 5.52637 21.372 5.52637C21.5475 5.52637 21.7313 5.53387 21.9075 5.55787C22.0913 5.58112 22.2593 5.61262 22.4273 5.64787C22.5833 5.68687 22.7355 5.72587 22.8803 5.77312C23.025 5.82037 23.1383 5.87062 23.2163 5.91787C23.3098 5.96557 23.3913 6.03377 23.4548 6.11737C23.508 6.19531 23.5341 6.28861 23.529 6.38287V6.75787C23.529 6.92587 23.4623 7.01212 23.3453 7.01212C23.2386 7.0012 23.1351 6.96934 23.0408 6.91837C22.559 6.70423 22.0364 6.59751 21.5093 6.60562C21.0525 6.60562 20.6925 6.67612 20.4465 6.82837C20.1968 6.98062 20.0715 7.21087 20.0715 7.53937C20.0715 7.76212 20.1495 7.95337 20.31 8.10562C20.4705 8.25787 20.7668 8.41012 21.189 8.54737L22.3215 8.90287C22.896 9.08662 23.3138 9.34462 23.5598 9.67237C23.8058 9.99637 23.9273 10.3714 23.9273 10.7899C23.9273 11.1296 23.853 11.4424 23.7203 11.7154C23.5764 11.9872 23.3783 12.2266 23.1383 12.4189C22.8885 12.6184 22.5953 12.7586 22.2518 12.8644C21.8808 12.9773 21.495 13.034 21.1073 13.0324L21.1043 13.0301ZM22.6155 16.9084C19.9868 18.8501 16.1738 19.8769 12.8925 19.8769C8.295 19.8769 4.1505 18.1774 1.0215 15.3499C0.775505 15.1271 0.998255 14.8226 1.29525 15.0019C4.67775 16.9631 8.85375 18.1541 13.17 18.1541C16.0838 18.1541 19.2833 17.5444 22.2323 16.3024C22.6695 16.0991 23.0445 16.5874 22.6148 16.9076L22.6155 16.9084ZM23.7098 15.6626C23.3738 15.2329 21.4868 15.4556 20.6355 15.5614C20.3813 15.5929 20.3385 15.3664 20.5733 15.1984C22.0733 14.1476 24.5378 14.4484 24.8273 14.8001C25.1123 15.1631 24.7455 17.6284 23.343 18.8081C23.1285 18.9919 22.917 18.8981 23.0145 18.6559C23.3348 17.8669 24.0458 16.0894 23.7098 15.6634V15.6626Z" fill="url(#paint0_linear_563_6680)"/>
</g>
<defs>
<linearGradient id="paint0_linear_563_6680" x1="0.916016" y1="19.8769" x2="24.9171" y2="19.8769" gradientUnits="userSpaceOnUse">
<stop stop-color="#26A7CF"/>
<stop offset="1" stop-color="#27AF8F"/>
</linearGradient>
<clipPath id="clip0_563_6680">
<rect width="24" height="24" fill="white" transform="translate(0.916016 0.70166)"/>
</clipPath>
</defs>
</svg>
