<svg width="24" height="16" viewBox="0 0 24 16" fill="none" xmlns="http://www.w3.org/2000/svg">
<path d="M9.06486 0.755859V3.00586H4.56486V5.25586H2.31486V7.50586H1.61136C1.49709 7.50868 1.38498 7.53758 1.28359 7.59036C1.18221 7.64313 1.09422 7.71838 1.02636 7.81036C1.02636 7.81036 0.96111 7.88986 0.93186 7.95136C0.90261 8.01286 0.88236 8.10661 0.86211 8.18536C0.810585 8.38438 0.78686 8.58958 0.79161 8.79511C0.79161 9.31036 0.85311 9.88186 1.00236 10.4586C0.93952 10.473 0.877005 10.4887 0.81486 10.5059H1.02561C1.18946 11.1139 1.43388 11.6973 1.75236 12.2406C1.76136 12.2549 1.76736 12.2721 1.77561 12.2871V12.3104C1.81986 12.4919 1.92786 12.6501 2.08011 12.7559L2.10411 12.7791C2.23011 12.9554 2.35611 13.1279 2.50236 13.2951C3.73011 14.7074 5.71011 15.7791 8.52561 15.7791C12.8501 15.7791 16.5941 13.9979 18.8381 10.5059H22.6354C22.1606 10.3859 21.1294 10.2134 21.2989 9.59161C20.7746 10.1984 19.8049 10.3266 19.0024 10.2246C19.2664 9.78811 19.5124 9.32836 19.7291 8.84161C20.9711 8.76886 21.9146 8.34961 22.4479 7.83436C23.0569 7.24486 23.2444 6.56836 23.2444 6.56836C23.2832 6.43058 23.2818 6.28455 23.2404 6.14754C23.1989 6.01052 23.1191 5.88823 23.0104 5.79511C23.0104 5.79511 21.8764 5.00086 20.2444 5.16211C19.6849 3.66811 18.5104 2.93536 18.5104 2.93536C18.3551 2.84341 18.172 2.81015 17.9944 2.84161C17.8731 2.86801 17.7604 2.92449 17.6666 3.00586C17.6666 3.00586 17.3239 3.31036 17.0569 3.80311C16.7906 4.29511 16.5499 5.04211 16.6354 5.98261C16.6676 6.32761 16.8784 6.63286 17.0104 6.96661C16.9166 7.02511 16.8289 7.09261 16.7051 7.15411C16.2161 7.39107 15.6788 7.51147 15.1354 7.50586H15.0649V5.25586H12.8149V0.755859H9.06486ZM10.5649 2.25586H11.3149V3.00586H10.5649V2.25586ZM6.06486 4.50586H6.81486V5.25586H6.06486V4.50586ZM8.31486 4.50586H9.06486V5.25586H8.31486V4.50586ZM10.5649 4.50586H11.3149V5.25586H10.5649V4.50586ZM18.3229 4.74061C18.5929 5.04511 18.8854 5.47561 19.0024 6.09961C19.0218 6.20159 19.0621 6.29845 19.1207 6.38411C19.1793 6.46978 19.255 6.54239 19.3431 6.5974C19.4311 6.6524 19.5296 6.68861 19.6323 6.70375C19.735 6.71889 19.8397 6.71263 19.9399 6.68536C20.6194 6.50086 21.1144 6.55936 21.4631 6.66211C21.4226 6.71161 21.4481 6.70336 21.3934 6.75586C21.0499 7.08661 20.4761 7.45636 19.2836 7.41211C19.1291 7.40643 18.9765 7.44834 18.8465 7.53217C18.7165 7.616 18.6154 7.73771 18.5569 7.88086C18.2201 8.71561 17.8279 9.46561 17.3621 10.1309C16.2544 10.5614 13.7906 10.2449 13.5881 9.68536C12.8561 10.5441 10.5971 10.5441 9.86211 9.68536C9.62436 10.3454 6.20511 10.6491 5.61936 9.80311C5.14761 10.2419 3.43086 10.5351 2.45586 9.87286C2.39409 9.58734 2.35447 9.29748 2.33736 9.00586H15.1346C15.9063 9.00655 16.6679 8.83001 17.3606 8.48986C17.6843 8.33507 17.9908 8.14653 18.2749 7.92736C18.3662 7.87368 18.4449 7.80094 18.5056 7.71409C18.5663 7.62725 18.6076 7.52834 18.6266 7.42411C18.6472 7.32019 18.6453 7.21305 18.621 7.10994C18.5966 7.00682 18.5505 6.91012 18.4856 6.82636C18.2869 6.56536 18.1729 6.24586 18.1346 5.84161C18.0874 5.31436 18.2074 5.00911 18.3221 4.73986L18.3229 4.74061ZM3.81486 6.75586H4.56486V7.50586H3.81486V6.75586ZM6.06486 6.75586H6.81486V7.50586H6.06486V6.75586ZM8.31486 6.75586H9.06486V7.50586H8.31486V6.75586ZM10.5649 6.75586H11.3149V7.50586H10.5649V6.75586ZM12.8149 6.75586H13.5649V7.50586H12.8149V6.75586ZM2.61936 10.5059H17.0809C15.1061 13.0604 12.1204 14.2791 8.52561 14.2791C6.64236 14.2791 5.32086 13.7721 4.37736 13.0371C5.97111 12.9816 7.11936 12.5684 7.11936 12.5684C7.21916 12.5479 7.31376 12.5074 7.39741 12.4492C7.48106 12.3911 7.55201 12.3165 7.60596 12.2301C7.65991 12.1437 7.69572 12.0472 7.71123 11.9465C7.72673 11.8459 7.7216 11.7431 7.69615 11.6444C7.6707 11.5458 7.62546 11.4533 7.56318 11.3727C7.5009 11.2921 7.42288 11.225 7.33386 11.1755C7.24484 11.1259 7.14667 11.095 7.04534 11.0846C6.944 11.0742 6.8416 11.0845 6.74436 11.1149C6.70386 11.1269 6.66561 11.1449 6.62736 11.1621C6.62736 11.1621 4.98411 11.7014 3.04161 11.4666C2.86942 11.1611 2.72798 10.8393 2.61936 10.5059ZM8.10411 10.6469C7.98651 10.6482 7.87409 10.6955 7.79086 10.7786C7.70763 10.8617 7.66017 10.974 7.65861 11.0916C7.65861 11.3316 7.86336 11.5371 8.10411 11.5371C8.34411 11.5371 8.52561 11.3324 8.52561 11.0916C8.52832 11.0361 8.52043 10.9806 8.50236 10.9281C8.48557 10.9567 8.46157 10.9805 8.43275 10.9969C8.40393 11.0134 8.3713 11.022 8.33811 11.0219C8.23836 11.0219 8.17386 10.9334 8.17386 10.8344C8.17386 10.7669 8.19186 10.7226 8.24436 10.6934C8.19486 10.6731 8.15961 10.6461 8.10411 10.6461V10.6469Z" fill="url(#paint0_linear_563_6770)"/>
<defs>
<linearGradient id="paint0_linear_563_6770" x1="0.791016" y1="15.7791" x2="23.2725" y2="15.7791" gradientUnits="userSpaceOnUse">
<stop stop-color="#26A7CF"/>
<stop offset="1" stop-color="#27AF8F"/>
</linearGradient>
</defs>
</svg>
