<svg width="21" height="19" viewBox="0 0 21 19" fill="none" xmlns="http://www.w3.org/2000/svg">
<path d="M18.3053 16.316C17.7753 16.946 17.3053 16.246 16.6753 16.446C15.5753 16.446 16.7653 15.946 16.7353 15.446C16.1553 14.996 15.4953 16.056 15.1153 16.346C14.193 16.1867 13.2954 15.9077 12.4453 15.516C11.4553 15.0537 10.5704 14.3934 9.84533 13.576C9.03402 12.7674 8.39753 11.8008 7.97533 10.736C7.43561 8.86976 7.153 6.93862 7.13533 4.99599C7.20533 3.69599 8.57533 5.13599 9.13533 4.66599C8.92533 3.99599 7.84533 3.78599 7.24533 3.50599C6.66533 3.50599 6.45533 2.95599 5.84533 2.91599C5.84533 2.18599 4.71533 2.58599 4.28533 2.07599C4.70533 0.995995 2.91533 2.07599 3.05533 1.16599C3.63533 -0.0340054 1.27533 0.165995 2.25533 1.22599C3.20533 1.76599 1.32533 2.15599 1.87533 2.51599C1.92184 2.60634 1.94422 2.70717 1.94032 2.80871C1.93641 2.91025 1.90634 3.00906 1.85303 3.09556C1.79972 3.18207 1.72497 3.25334 1.63602 3.30247C1.54707 3.3516 1.44694 3.37693 1.34533 3.37599C0.605334 3.44599 0.675334 4.46599 1.40533 3.92599C2.21533 3.67599 1.54533 4.03599 1.15533 4.10599C0.949524 4.13729 0.75424 4.21756 0.58591 4.34004C0.417579 4.46253 0.281125 4.62364 0.188026 4.80984C0.0949269 4.99604 0.0479055 5.20187 0.0509173 5.41003C0.0539292 5.61818 0.106886 5.82257 0.205334 6.00599C0.595995 7.12844 0.929753 8.2699 1.20533 9.42599C1.82258 11.1785 2.73582 12.8122 3.90533 14.256C4.5203 15.0278 5.24855 15.7021 6.06533 16.256C6.8153 16.7726 7.63303 17.1831 8.49533 17.476C10.0325 17.9288 11.6232 18.1743 13.2253 18.206C14.1972 18.2114 15.1676 18.1311 16.1253 17.966C16.9953 18.056 17.6153 17.316 18.3853 17.706C18.8653 17.286 19.5453 17.476 20.0153 17.166C20.3353 15.946 18.7953 16.896 18.3053 16.316ZM16.5653 15.576C16.3453 15.576 16.6153 15.236 16.5653 15.576V15.576ZM8.93533 4.57599C8.83533 4.57599 8.85533 4.45599 8.77533 4.42599C7.97533 4.05599 9.16533 4.19599 8.93533 4.61599V4.57599ZM15.6953 15.966C15.3453 15.886 15.9753 15.716 15.6953 15.966V15.966ZM12.8853 16.076C12.6553 16.076 13.0653 15.936 12.8853 16.076V16.076ZM11.0053 14.896C10.8753 14.896 11.0053 14.766 11.0053 14.896V14.896ZM10.7853 14.726C10.4253 14.726 10.6953 14.496 10.7853 14.726V14.726ZM10.3653 14.366C10.0353 14.446 10.3653 14.026 10.3653 14.366V14.366ZM4.36533 2.70599C3.83533 2.42599 4.47533 3.03599 4.02533 3.02599C3.78533 3.02599 3.33533 2.50599 3.48533 2.24599C3.78533 2.40599 4.31533 2.45599 4.40533 2.74599L4.36533 2.70599ZM3.44533 1.89599H3.33533C3.30533 1.62599 4.20533 1.83599 3.48533 1.93599L3.44533 1.89599ZM2.42533 1.10599C2.00533 0.915994 2.42533 0.175995 2.86533 0.525995C3.37533 1.25599 1.91533 0.445994 2.42533 1.10599ZM2.91533 1.79599C2.64533 1.90599 3.07533 1.58599 2.91533 1.79599V1.79599ZM3.39533 2.71599C3.99533 3.17599 3.05533 2.71599 2.67533 3.00599C2.06533 3.06599 3.33533 2.66599 3.39533 2.71599ZM3.56533 3.31599C3.91533 3.31599 5.44533 2.62599 4.93533 3.24599C5.40533 3.79599 5.03533 3.61599 4.72533 3.24599C5.00533 3.43599 4.78533 4.24599 4.35533 3.69599C3.92533 3.14599 3.85533 3.51599 4.18533 3.90599C3.86533 3.25599 2.94533 3.53599 2.27533 3.75599C1.84533 3.71599 3.40533 3.38599 3.56533 3.31599ZM1.64533 4.76599C1.48533 5.16599 1.88533 5.29599 2.26533 5.36599C2.88533 5.19599 1.85533 5.08599 2.32533 4.92599C2.58533 4.92599 1.50533 4.66599 2.40533 4.54599C3.30533 4.42599 4.15533 4.02599 5.06533 3.83599C5.83644 3.66645 6.62701 3.60253 7.41533 3.64599C7.71533 3.99599 7.18533 4.58599 6.64533 4.64599C5.99645 4.8547 5.32509 4.98562 4.64533 5.03599C3.84533 4.93599 3.27533 5.64599 2.45533 5.73599C2.67533 5.33599 2.27533 5.59599 1.86533 5.57599C2.07533 6.39599 0.395334 5.36599 1.38533 5.16599C0.645334 4.90599 0.635334 5.68599 0.715334 6.16599C0.0653338 5.25599 0.785334 4.87599 1.64533 4.76599ZM3.52533 5.84599C3.30533 5.79599 3.69533 5.64599 3.52533 5.84599V5.84599ZM2.80533 6.72599C2.80533 6.72599 2.46533 6.64599 2.60533 6.55599C3.60533 6.68599 1.70533 6.22599 2.73533 6.33599C3.39533 6.31599 3.17533 6.69599 2.80533 6.72599ZM3.13533 6.89599C3.01533 7.01599 3.13533 6.65599 3.13533 6.89599V6.89599ZM2.42533 6.89599C1.98533 6.80599 2.63533 6.67599 2.42533 6.89599V6.89599ZM2.36533 8.32599C2.26533 8.24599 2.29533 8.42599 2.36533 8.32599V8.32599ZM2.06533 8.15599C1.51533 7.96599 2.06533 7.94599 2.06533 8.15599V8.15599ZM1.94533 9.436C1.68533 9.34599 1.69533 8.936 1.57533 8.71599C1.19533 7.686 1.98533 9.116 1.90533 9.436H1.94533ZM2.17533 7.94599C1.48533 7.86599 2.12533 7.45599 2.17533 7.94599V7.94599ZM2.17533 7.60599H2.08533C1.32533 7.25599 2.53533 7.43599 2.06533 7.60599H2.17533ZM2.06533 6.81599C1.45533 6.50599 2.64533 6.45599 2.06533 6.81599V6.81599ZM2.27533 7.07599C1.93533 7.13599 2.32533 6.75599 2.27533 7.07599V7.07599ZM0.975334 7.14599C0.855334 7.22599 0.975334 6.91599 0.975334 7.14599V7.14599ZM1.06533 7.00599C0.905334 7.00599 1.06533 6.73599 1.06533 7.00599V7.00599ZM1.14533 6.00599C0.745334 5.90599 1.47533 5.75599 1.14533 6.00599V6.00599ZM1.40533 8.00599C0.965334 7.90599 1.28533 7.35599 1.40533 8.00599V8.00599ZM1.70533 9.25599C2.12533 9.766 1.96533 10.046 2.39533 10.666C1.83533 10.316 1.72533 9.46599 1.39533 8.91599C0.985334 8.01599 1.62533 8.90599 1.70533 9.25599ZM5.79533 15.636C5.45533 15.566 5.22533 15.206 4.98533 14.976C4.30269 14.4763 3.76167 13.8078 3.41533 13.036C2.83962 12.3008 2.34978 11.5023 1.95533 10.656C1.54533 9.73599 2.20533 10.726 2.30533 11.076C2.51533 11.756 3.18533 12.146 3.24533 12.596C3.98533 13.016 3.60533 13.716 4.24533 13.906C4.51533 13.766 4.54533 14.746 5.13533 14.546C4.80533 14.696 5.26533 14.876 5.43533 15.156C5.78533 15.106 6.60533 15.976 5.79533 15.676V15.636ZM2.68533 9.25599C2.37533 9.186 3.01533 9.146 2.68533 9.25599V9.25599ZM2.88533 9.726C2.33533 9.58599 3.40533 9.526 2.88533 9.726V9.726ZM4.27533 10.196C4.67533 10.026 4.43533 10.976 4.82533 11.096C5.58533 12.096 4.29533 11.096 3.82533 11.026C3.88533 11.026 3.44533 10.906 3.63533 10.866C3.49533 10.716 3.18533 10.206 3.89533 10.546C4.49533 10.786 4.54533 10.606 4.27533 10.156V10.196ZM5.58533 11.956C5.58533 12.106 4.86533 12.086 5.52533 12.376C5.14533 12.376 5.02533 12.376 5.52533 12.676C5.30533 12.846 5.95533 12.986 5.73533 13.246C6.39533 13.766 5.61533 13.376 5.33533 13.166C5.05533 12.956 4.48533 12.816 4.58533 12.666C5.39533 13.086 4.79533 12.666 4.43533 12.366C5.08533 12.526 3.92533 11.886 4.53533 12.056C4.72533 12.106 4.26533 11.676 4.86533 11.986C4.32533 11.466 5.33533 11.866 5.58533 11.916V11.956ZM6.06533 11.786C5.45533 11.646 6.06533 11.446 6.06533 11.786V11.786ZM5.89533 13.786C5.28533 13.526 6.28533 13.786 5.89533 13.786V13.786ZM5.44533 13.616C4.73533 13.386 5.96533 13.616 5.44533 13.616V13.616ZM5.35533 13.726C5.13533 13.726 5.35533 13.556 5.35533 13.726V13.726ZM4.27533 12.176C3.55533 11.876 4.07533 11.846 4.27533 12.176V12.176ZM3.73533 11.826C3.15533 11.496 3.65533 11.496 3.73533 11.826V11.826ZM3.73533 12.476C3.16533 12.036 3.66533 12.226 3.73533 12.476V12.476ZM3.58533 11.136C3.23533 11.136 3.71533 10.936 3.58533 11.136V11.136ZM6.06533 14.636C5.55533 14.486 6.06533 14.496 6.06533 14.636V14.636ZM5.69533 14.256H5.53533C4.85533 13.716 5.84533 13.876 6.28533 14.116C7.25533 14.256 6.06533 14.506 5.69533 14.256ZM8.39533 15.906C7.71533 15.746 8.55533 15.636 8.39533 15.906V15.906ZM8.22533 15.386C8.12533 15.276 8.17533 15.386 8.22533 15.386V15.386ZM7.36533 14.046C6.77533 13.906 7.57533 13.856 7.72533 14.046C8.74533 14.256 7.66533 14.306 7.36533 14.046ZM7.57533 15.256H7.46533L7.33533 15.196C6.77533 14.606 8.52533 15.476 7.57533 15.256ZM7.29533 15.946C7.14533 16.006 7.29533 15.806 7.29533 15.946V15.946ZM7.58533 14.756L7.42533 14.706C6.76533 14.256 8.26533 14.796 7.58533 14.706V14.756ZM7.74533 16.476C7.34533 16.316 8.00533 16.226 7.74533 16.476V16.476ZM7.84533 15.736C7.26533 15.596 8.20533 15.606 7.84533 15.736V15.736ZM7.97533 15.126C7.53533 15.066 8.02533 14.916 7.97533 15.126V15.126ZM7.25533 14.246C7.71533 14.306 7.72533 14.516 7.25533 14.386C7.16533 14.386 7.01533 14.386 6.97533 14.216C6.21533 13.716 7.00533 13.966 7.25533 14.196V14.246ZM7.19533 16.246C6.99533 16.366 7.19533 16.026 7.19533 16.246V16.246ZM6.88533 15.736C6.35533 15.736 7.28533 15.476 6.88533 15.736V15.736ZM6.76533 16.086C6.50533 15.986 6.93533 16.006 6.76533 16.086V16.086ZM7.06533 15.196C6.54533 15.056 7.31533 15.016 7.06533 15.196V15.196ZM6.90533 14.626C6.62533 14.626 6.84533 14.466 6.90533 14.626V14.626ZM6.36533 13.676C5.79533 13.216 7.54533 14.056 6.36533 13.676V13.676ZM6.30533 13.866C6.19533 13.776 6.30533 13.926 6.30533 13.866V13.866ZM9.95533 17.646C9.06557 17.4872 8.20337 17.2009 7.39533 16.796L7.06533 16.596C6.49533 16.286 6.56533 16.216 7.12533 16.526C7.31533 16.686 8.71533 17.256 8.05533 16.876C7.76533 16.806 6.15533 15.926 7.21533 16.306C8.09858 16.7743 9.01426 17.1786 9.95533 17.516C10.7508 17.7047 11.5727 17.7555 12.3853 17.666C13.0353 17.996 13.7153 17.586 14.3853 17.876C12.8998 18.055 11.3945 17.9772 9.93533 17.646H9.95533ZM8.70533 16.946C8.19533 16.856 8.86533 16.716 8.70533 16.946V16.946ZM9.43533 15.946C8.85533 15.836 10.0353 15.716 9.43533 15.946V15.946ZM10.2753 17.256C11.2753 17.626 9.67533 17.376 9.34533 17.166C8.42533 16.786 10.0653 17.256 10.2753 17.256ZM9.21533 16.156C8.40533 16.036 10.1153 16.156 9.21533 16.156V16.156ZM10.7353 17.006C10.4453 17.236 10.7353 16.706 10.7353 17.006V17.006ZM11.0253 17.056C10.8753 17.116 11.0253 16.886 11.0253 17.056V17.056ZM11.2953 16.676C11.1353 16.876 11.2953 16.446 11.2953 16.676V16.676ZM11.6053 16.676C11.1553 16.846 12.0753 16.286 11.6053 16.676V16.676ZM11.7453 16.676C12.2353 16.256 12.2553 16.456 12.2453 16.806C11.8153 17.286 12.0753 16.606 11.8053 16.866C11.5353 17.126 11.6153 16.766 11.7453 16.696V16.676ZM12.5753 17.126C12.0753 17.126 13.0853 16.586 12.5753 17.126V17.126ZM12.5753 17.306C12.3753 17.356 12.5753 17.176 12.5753 17.306V17.306ZM12.4153 16.956C12.0253 16.696 13.3553 16.346 12.4153 16.956V16.956ZM12.9853 17.046H12.9053C12.8753 16.816 13.4453 16.776 12.9853 17.066V17.046ZM13.1353 17.236C12.8353 17.156 13.6053 16.836 13.1353 17.236V17.236ZM13.4953 17.136C12.9853 17.316 13.9753 16.736 13.4953 17.136V17.136ZM13.7153 17.246L13.5953 17.326C13.3653 17.186 14.3053 16.846 13.7153 17.256V17.246ZM13.2853 16.716C12.7453 16.536 11.8853 15.956 11.2853 16.346C10.4853 16.856 11.6953 15.786 11.0453 16.266C10.3853 17.056 10.5953 15.766 9.95533 16.156C9.95533 16.036 9.38533 15.996 9.78533 15.786C9.42533 15.786 9.65533 15.736 9.78533 15.446C9.62533 15.446 8.78533 15.446 8.42533 15.156C8.02533 14.636 8.49533 14.856 8.90533 14.926C8.23533 15.046 9.14533 15.426 9.58533 15.216C9.38533 15.126 9.15533 14.696 8.58533 14.316C7.89688 13.9386 7.18549 13.6046 6.45533 13.316C5.61533 12.816 6.63533 13.136 6.92533 13.396C7.76533 13.766 7.43533 12.886 6.92533 12.656C6.38533 12.656 6.25533 12.066 5.82533 12.096C6.49533 12.206 6.96533 11.926 6.21533 11.246C5.46533 10.566 6.51533 11.876 6.10533 11.686C5.91533 11.436 6.05533 11.086 5.45533 10.956C5.45533 11.186 5.37533 11.536 5.24533 11.056C5.07533 11.056 4.88533 11.266 4.74533 10.776C4.87533 10.206 4.18533 10.076 4.07533 9.71599C4.67533 10.096 4.94533 9.79599 4.52533 9.38599C4.10533 8.976 4.19533 9.276 4.03533 9.38599C3.44533 9.986 3.97533 8.38599 3.71533 8.82599C3.45533 8.82599 3.60533 9.116 3.61533 9.476C2.75533 9.266 3.81533 9.92599 4.06533 10.286C3.67533 9.88599 3.74533 10.596 3.41533 10.286C3.30533 9.98599 3.29533 9.516 2.74533 9.436C3.36533 9.21599 2.38533 8.786 2.46533 8.766C2.81533 8.446 2.86533 8.00599 3.28533 8.69599C2.75533 8.69599 3.28533 9.57599 3.40533 9.29599C3.40533 8.82599 3.62533 8.29599 2.81533 8.10599C2.57533 8.42599 2.16533 7.47599 2.63533 7.67599C2.57533 7.04599 3.37533 7.41599 3.32533 7.14599C3.74533 6.96599 2.82533 6.37599 3.32533 6.14599C3.70533 6.38599 4.68533 5.78599 4.02533 5.70599C4.44533 5.70599 4.77533 5.88599 4.81533 5.46599C5.14533 5.53599 6.05533 5.82599 5.23533 5.37599C5.59524 5.22963 5.97728 5.1451 6.36533 5.12599C7.15533 4.51599 6.99533 6.12599 6.81533 6.57599C7.11533 6.36599 7.05533 7.51599 6.95533 7.94599C7.11533 7.72599 7.18533 8.30599 6.95533 8.71599C6.95533 8.646 7.35533 8.586 7.07533 9.066C6.85533 8.59599 6.76533 10.066 6.90533 9.38599C7.27533 8.776 7.18533 9.38599 7.29533 9.62599C7.37533 10.176 7.61533 10.686 7.69533 11.186C8.04533 11.536 7.54533 11.296 7.54533 11.776C7.65533 11.636 8.12533 11.966 8.11533 12.456C8.11533 11.676 8.20533 12.276 8.58533 12.456C8.84106 12.9795 9.17864 13.4588 9.58533 13.876C9.95533 14.306 9.58533 14.006 9.72533 14.266C9.97211 14.6066 10.2838 14.895 10.6425 15.1147C11.0012 15.3344 11.3998 15.481 11.8153 15.546C11.9693 15.8137 12.2043 16.0258 12.4864 16.1515C12.7685 16.2773 13.0832 16.3104 13.3853 16.246C12.7853 16.616 15.0653 16.716 14.2953 16.916C14.0653 17.076 13.6753 16.716 13.2853 16.736V16.716ZM6.76533 13.146C6.52533 13.146 6.76533 12.946 6.76533 13.146V13.146ZM7.14533 13.366C6.96533 13.366 7.02533 13.126 7.14533 13.366V13.366ZM4.53533 9.71599C4.29533 9.646 4.63533 9.62599 4.53533 9.71599V9.71599ZM3.94533 9.71599C3.68533 9.71599 3.94533 9.37599 3.94533 9.71599V9.71599ZM3.64533 9.63599C3.54533 9.686 3.64533 9.526 3.64533 9.63599V9.63599ZM14.6453 17.886C14.2553 17.816 14.9653 17.666 14.6453 17.886V17.886ZM15.3753 16.836H15.0753C15.1353 16.386 16.4053 16.736 16.9253 16.746C16.7653 17.086 15.7953 16.786 15.3753 16.876V16.836ZM17.3753 16.836C17.1053 16.836 17.4953 16.516 17.3753 16.836V16.836ZM18.3753 16.746C18.1253 16.876 18.3753 16.446 18.3753 16.746V16.746ZM18.8553 16.856C18.3353 16.736 19.0953 16.736 19.2553 16.716C20.1953 16.736 19.2553 16.876 18.7853 16.876L18.8553 16.856Z" fill="url(#paint0_linear_563_6764)"/>
<defs>
<linearGradient id="paint0_linear_563_6764" x1="0.0507813" y1="18.2062" x2="20.0587" y2="18.2062" gradientUnits="userSpaceOnUse">
<stop stop-color="#26A7CF"/>
<stop offset="1" stop-color="#27AF8F"/>
</linearGradient>
</defs>
</svg>
