<svg width="31" height="25" viewBox="0 0 31 25" fill="none" xmlns="http://www.w3.org/2000/svg">
<g clip-path="url(#clip0_563_6709)">
<path d="M19.5691 9.63132C19.0582 9.76257 18.6363 9.83288 18.2051 9.98757C17.8629 10.0766 17.516 10.1704 17.1176 10.2735L17.0895 10.2782C16.8926 10.3344 16.8738 10.3391 16.691 10.1282C16.4707 9.87976 16.3113 9.72038 16.0066 9.57038C15.0832 9.12038 14.1926 9.25163 13.3629 9.79069C12.3691 10.4329 11.8582 11.3844 11.8723 12.5657C11.8863 13.7376 12.6879 14.6985 13.8035 14.8579C14.8348 14.9891 15.6691 14.6423 16.3254 13.8969C16.4238 13.7751 16.5129 13.6485 16.6113 13.5079C16.6488 13.461 16.6816 13.4094 16.7191 13.3532H13.902C13.5973 13.3532 13.5223 13.1657 13.6254 12.9173C13.8129 12.4626 14.1645 11.7032 14.3707 11.3235C14.4129 11.2391 14.516 11.0516 14.6941 11.0516H19.4332C19.6441 10.4235 19.9863 9.79069 20.4457 9.19069C21.5098 7.78913 22.7566 7.05788 24.5332 6.75319C26.0238 6.49069 27.4254 6.63601 28.7004 7.49851C29.8535 8.28601 30.566 9.35476 30.7582 10.7563C31.0066 12.7298 30.4348 14.3329 29.0379 15.7063C28.1145 16.686 26.9332 17.3001 25.5738 17.5766C25.3113 17.6235 25.0535 17.6469 24.8004 17.6704C24.6645 17.6798 24.5332 17.6938 24.402 17.7079C23.0754 17.6798 21.8613 17.3001 20.8395 16.4235C20.1223 15.8001 19.6254 15.036 19.3816 14.1501C19.2082 14.4923 19.0066 14.8251 18.7254 15.1391C17.7129 16.5266 16.3395 17.3891 14.6051 17.6188C13.1707 17.811 11.8441 17.5344 10.6723 16.6579C9.59414 15.8376 8.98008 14.7594 8.82071 13.4141C8.62852 11.8204 9.09727 10.3485 10.0582 9.13444C11.0988 7.77507 12.4723 6.91257 14.1504 6.60788C15.5238 6.31726 16.8363 6.51882 18.0223 7.32507C18.7957 7.83601 19.3488 8.53444 19.7145 9.38288C19.8035 9.51413 19.7426 9.58913 19.5691 9.63132ZM3.07852 9.89382C3.01993 9.89382 3.00539 9.86569 3.03446 9.81882L3.34149 9.42507C3.37055 9.38288 3.44368 9.35476 3.50227 9.35476H8.71758C8.77383 9.35476 8.78789 9.39694 8.75977 9.43913L8.51133 9.81882C8.48321 9.86569 8.40821 9.90788 8.36602 9.90788L3.07852 9.89382ZM0.872863 11.2391C0.814457 11.2391 0.799832 11.2063 0.829082 11.1641L1.13578 10.7704C1.16503 10.7282 1.23807 10.6954 1.29633 10.6954H7.95821C8.01446 10.6954 8.04258 10.7423 8.02852 10.7844L7.91133 11.136C7.89727 11.1923 7.84102 11.2251 7.78008 11.2251L0.872863 11.2391ZM4.36383 12.4954C4.33477 12.5376 4.3493 12.5798 4.40743 12.5798L7.59258 12.5938C7.63477 12.5938 7.69571 12.5516 7.69571 12.4954L7.72383 12.1438C7.72383 12.0829 7.69571 12.0407 7.63477 12.0407H4.71446C4.65586 12.0407 4.59774 12.0829 4.56821 12.1298L4.36383 12.4954ZM27.8707 11.6516C27.8613 11.5298 27.8566 11.4266 27.8379 11.3235C27.5754 9.87976 26.2441 9.05944 24.8566 9.38288C23.4973 9.68757 22.6207 10.5501 22.302 11.9235C22.0395 13.0626 22.5926 14.2157 23.6426 14.6844C24.4488 15.036 25.2504 14.9938 26.0238 14.5954C27.177 13.9579 27.8051 13.0626 27.8801 11.8063C27.8754 11.7501 27.8754 11.6985 27.8707 11.6516Z" fill="url(#paint0_linear_563_6709)"/>
</g>
<defs>
<linearGradient id="paint0_linear_563_6709" x1="0.814453" y1="17.7079" x2="30.8146" y2="17.7079" gradientUnits="userSpaceOnUse">
<stop stop-color="#26A7CF"/>
<stop offset="1" stop-color="#27AF8F"/>
</linearGradient>
<clipPath id="clip0_563_6709">
<rect width="30" height="24" fill="white" transform="translate(0.814453 0.5)"/>
</clipPath>
</defs>
</svg>
