<svg width="25" height="25" viewBox="0 0 25 25" fill="none" xmlns="http://www.w3.org/2000/svg">
<path fill-rule="evenodd" clip-rule="evenodd" d="M12.0645 3.7666C11.7883 3.7666 11.5645 3.99046 11.5645 4.2666C11.5645 4.54274 11.7883 4.7666 12.0645 4.7666C12.3406 4.7666 12.5645 4.54274 12.5645 4.2666C12.5645 3.99046 12.3406 3.7666 12.0645 3.7666ZM9.56445 4.2666C9.56445 2.88589 10.6837 1.7666 12.0645 1.7666C13.4452 1.7666 14.5645 2.88589 14.5645 4.2666C14.5645 4.35154 14.5602 4.4355 14.5519 4.51826L18.5569 6.77214C18.976 6.45484 19.4982 6.2666 20.0645 6.2666C21.4452 6.2666 22.5645 7.38589 22.5645 8.7666C22.5645 9.79176 21.9474 10.6728 21.0645 11.0586V14.4746C21.9474 14.8604 22.5645 15.7414 22.5645 16.7666C22.5645 18.1473 21.4452 19.2666 20.0645 19.2666C19.4989 19.2666 18.9773 19.0788 18.5584 18.7622L14.552 21.0158C14.5602 21.0983 14.5645 21.182 14.5645 21.2666C14.5645 22.6473 13.4452 23.7666 12.0645 23.7666C10.6837 23.7666 9.56445 22.6473 9.56445 21.2666C9.56445 21.1819 9.56867 21.0982 9.5769 21.0156L5.57151 18.7615C5.15248 19.0785 4.63043 19.2666 4.06445 19.2666C2.68374 19.2666 1.56445 18.1473 1.56445 16.7666C1.56445 15.7414 2.1815 14.8604 3.06445 14.4746V11.0586C2.1815 10.6728 1.56445 9.79176 1.56445 8.7666C1.56445 7.38589 2.68374 6.2666 4.06445 6.2666C4.63074 6.2666 5.15305 6.45488 5.5722 6.77226L9.57709 4.51955C9.56873 4.43637 9.56445 4.35199 9.56445 4.2666ZM19.0645 11.0586C18.1815 10.6728 17.5645 9.79176 17.5645 8.7666C17.5645 8.68189 17.5687 8.59816 17.5769 8.51561L14.8642 6.98897L19.0645 13.9896V11.0586ZM20.0645 16.267L20.049 16.2668C19.9164 16.2709 19.7968 16.3265 19.7096 16.4143C19.7006 16.4246 19.6913 16.4348 19.6818 16.4447C19.6086 16.5317 19.5645 16.644 19.5645 16.7666C19.5645 17.0427 19.7883 17.2666 20.0645 17.2666C20.3406 17.2666 20.5645 17.0427 20.5645 16.7666C20.5645 16.4956 20.3489 16.275 20.0799 16.2668L20.0645 16.267ZM12.3861 6.7461L17.7834 15.7419L17.7723 15.767H6.35658L6.34551 15.742L11.7442 6.74627C11.849 6.75969 11.9559 6.7666 12.0645 6.7666C12.1735 6.7666 12.2808 6.75963 12.3861 6.7461ZM4.04901 16.2668C3.78001 16.275 3.56445 16.4956 3.56445 16.7666C3.56445 17.0427 3.78831 17.2666 4.06445 17.2666C4.3406 17.2666 4.56445 17.0427 4.56445 16.7666C4.56445 16.644 4.52035 16.5318 4.44714 16.4448C4.43762 16.4348 4.42833 16.4246 4.41927 16.4143C4.33207 16.3265 4.21247 16.2709 4.0799 16.2668L4.06445 16.267L4.04901 16.2668ZM5.06445 13.9899V11.0586C5.94741 10.6728 6.56445 9.79176 6.56445 8.7666C6.56445 8.68195 6.56025 8.59828 6.55203 8.5158L9.26575 6.98936L5.06445 13.9899ZM10.5569 19.2721C10.976 18.9548 11.4982 18.7666 12.0645 18.7666C12.6307 18.7666 13.153 18.9549 13.5722 19.2723L16.2483 17.767H7.88229L10.5569 19.2721ZM11.5645 21.2666C11.5645 20.9905 11.7883 20.7666 12.0645 20.7666C12.3406 20.7666 12.5645 20.9905 12.5645 21.2666C12.5645 21.5427 12.3406 21.7666 12.0645 21.7666C11.7883 21.7666 11.5645 21.5427 11.5645 21.2666ZM4.06445 8.2666C3.78831 8.2666 3.56445 8.49046 3.56445 8.7666C3.56445 9.04274 3.78831 9.2666 4.06445 9.2666C4.3406 9.2666 4.56445 9.04274 4.56445 8.7666C4.56445 8.49046 4.3406 8.2666 4.06445 8.2666ZM19.5645 8.7666C19.5645 8.49046 19.7883 8.2666 20.0645 8.2666C20.3406 8.2666 20.5645 8.49046 20.5645 8.7666C20.5645 9.04274 20.3406 9.2666 20.0645 9.2666C19.7883 9.2666 19.5645 9.04274 19.5645 8.7666Z" fill="url(#paint0_linear_563_6810)"/>
<defs>
<linearGradient id="paint0_linear_563_6810" x1="1.56445" y1="23.7666" x2="22.5645" y2="23.7666" gradientUnits="userSpaceOnUse">
<stop stop-color="#26A7CF"/>
<stop offset="1" stop-color="#27AF8F"/>
</linearGradient>
</defs>
</svg>
