<svg width="25" height="25" viewBox="0 0 25 25" fill="none" xmlns="http://www.w3.org/2000/svg">
<g clip-path="url(#clip0_563_6699)">
<path d="M10.5241 3.08107C10.3909 2.94455 10.2318 2.83605 10.056 2.76198C9.88021 2.6879 9.69139 2.64974 9.50064 2.64974C9.3099 2.64974 9.12108 2.6879 8.94531 2.76198C8.76953 2.83605 8.61035 2.94455 8.47714 3.08107H8.47014C8.19826 3.35954 8.04701 3.73389 8.04914 4.12307C8.04914 4.53307 8.21014 4.90007 8.47114 5.16207L8.47814 5.16907C8.73514 5.43307 9.09414 5.59507 9.49714 5.59507C9.90114 5.59507 10.2631 5.43307 10.5241 5.16907L10.5271 5.16207C10.7881 4.90007 10.9481 4.53307 10.9481 4.12307C10.9481 3.71507 10.7891 3.34607 10.5271 3.08107H10.5241ZM9.49714 23.2401C9.90114 23.2401 10.2631 23.0731 10.5241 22.8111L10.5271 22.8031C10.7881 22.5421 10.9481 22.1721 10.9481 21.7671C10.9481 21.3571 10.7891 20.9891 10.5271 20.7231H10.5241C10.3909 20.5855 10.2313 20.4764 10.0548 20.4021C9.87829 20.3279 9.68861 20.2901 9.49714 20.2911C9.30668 20.2899 9.11798 20.3276 8.9426 20.4019C8.76722 20.4762 8.60883 20.5855 8.47714 20.7231H8.47014C8.21014 20.9891 8.04814 21.3571 8.04814 21.7671C8.04814 22.1731 8.20914 22.5421 8.47014 22.8031L8.47714 22.8111C8.73514 23.0731 9.09414 23.2401 9.49714 23.2401ZM17.3871 18.7781C17.7461 18.6821 18.0701 18.4481 18.2691 18.0941L18.2961 18.0421C18.4672 17.7135 18.508 17.3324 18.4101 16.9751C18.3626 16.7885 18.2784 16.6132 18.1625 16.4593C18.0467 16.3055 17.9014 16.1763 17.7351 16.0791L17.7141 16.0651C17.3863 15.8805 16.9988 15.833 16.6361 15.9331C16.2761 16.0241 15.9521 16.2681 15.7551 16.6191C15.5551 16.9681 15.5141 17.3691 15.6091 17.7381C15.7081 18.1011 15.9391 18.4291 16.2841 18.6341H16.2861C16.6321 18.8371 17.0231 18.8731 17.3871 18.7781ZM10.9821 11.4361C10.7887 11.2381 10.5577 11.0808 10.3028 10.9731C10.0478 10.8654 9.77391 10.8097 9.49714 10.8091C8.91714 10.8091 8.39414 11.0511 8.01514 11.4361C7.63714 11.8211 7.40314 12.3521 7.40314 12.9431C7.40314 13.5341 7.63614 14.0671 8.01514 14.4571C8.20873 14.6541 8.43962 14.8105 8.69432 14.9173C8.94903 15.0241 9.22245 15.0791 9.49864 15.0791C9.77483 15.0791 10.0483 15.0241 10.303 14.9173C10.5577 14.8105 10.7886 14.6541 10.9821 14.4571C11.3611 14.0671 11.5941 13.5341 11.5941 12.9431C11.5941 12.3521 11.3611 11.8211 10.9821 11.4361ZM10.1471 8.92607C10.9901 9.06707 11.7471 9.47807 12.3251 10.0701H12.3291C12.4211 10.1631 12.5111 10.2661 12.5941 10.3691L14.0401 9.51807C13.8496 8.93269 13.8333 8.30455 13.9931 7.71007C14.0972 7.30904 14.2794 6.93248 14.5292 6.60198C14.7791 6.27148 15.0917 5.99354 15.4491 5.78407L15.4741 5.76807C15.8252 5.56415 16.2133 5.43208 16.6159 5.37954C17.0185 5.32701 17.4275 5.35506 17.8191 5.46207C18.5891 5.67207 19.2841 6.18307 19.7171 6.94407V6.94607C20.1481 7.70307 20.2351 8.57207 20.0301 9.35407C19.9265 9.75555 19.7445 10.1326 19.4947 10.4635C19.2448 10.7943 18.9319 11.0725 18.5741 11.2821L18.3761 11.4001H18.3561C17.6857 11.724 16.9209 11.7954 16.2021 11.6011C15.6165 11.4401 15.0904 11.1121 14.6881 10.6571L13.2441 11.5051C13.5866 12.4342 13.5866 13.455 13.2441 14.3841L14.6881 15.2301C15.1011 14.7601 15.6271 14.4411 16.2021 14.2861C16.5984 14.1762 17.0128 14.1478 17.4203 14.2026C17.8279 14.2574 18.22 14.3944 18.5731 14.6051L18.6211 14.6281V14.6301C19.3192 15.0595 19.8238 15.7426 20.0291 16.5361C20.2428 17.3479 20.1304 18.211 19.7161 18.9411L19.6901 18.9941L19.6871 18.9891C19.2742 19.6914 18.6049 20.2061 17.8201 20.4251C17.4236 20.532 17.0097 20.5589 16.6027 20.5043C16.1956 20.4497 15.8035 20.3147 15.4491 20.1071V20.1011C14.7275 19.6772 14.2038 18.984 13.9931 18.1741C13.8338 17.5805 13.8501 16.9535 14.0401 16.3691L12.5941 15.5211C12.5108 15.6235 12.4224 15.7216 12.3291 15.8151L12.3251 15.8201C11.7391 16.422 10.9759 16.8208 10.1471 16.9581V18.6571C10.7405 18.7849 11.2831 19.0847 11.7071 19.5191L11.7091 19.5231C12.2741 20.0951 12.6231 20.8911 12.6231 21.7661C12.6231 22.6391 12.2731 23.4301 11.7091 24.0051L11.7071 24.0141C11.4191 24.3082 11.0753 24.5421 10.6958 24.7019C10.3164 24.8618 9.90888 24.9444 9.49714 24.9451C9.08615 24.944 8.67946 24.8613 8.30074 24.7016C7.92203 24.542 7.57884 24.3086 7.29114 24.0151H7.28914V24.0061C6.70132 23.4092 6.37224 22.6048 6.37314 21.7671C6.37314 20.8921 6.72314 20.0951 7.28914 19.5241V19.5201H7.29114C7.71501 19.0866 8.25669 18.7869 8.84914 18.6581V16.9591C8.02079 16.8222 7.25813 16.4233 6.67314 15.8211L6.66714 15.8161C5.9144 15.049 5.49314 14.0168 5.49414 12.9421C5.49414 11.8201 5.94614 10.8061 6.66714 10.0701H6.67314C7.2582 9.46681 8.02052 9.06603 8.84914 8.92607V7.23407C8.25722 7.10269 7.71607 6.80258 7.29114 6.37007H7.28914V6.36607C6.7009 5.76784 6.37183 4.96206 6.37314 4.12307C6.37314 3.25207 6.72314 2.45407 7.28914 1.88007L7.29114 1.87807C7.57804 1.58329 7.92101 1.34889 8.29987 1.18866C8.67872 1.02843 9.0858 0.945607 9.49714 0.945068C10.3581 0.945068 11.1381 1.30007 11.7071 1.87707V1.87907H11.7091C12.2741 2.45307 12.6231 3.25107 12.6231 4.12207C12.6231 4.99807 12.2731 5.78907 11.7091 6.36507L11.7071 6.37007C11.2815 6.80269 10.7397 7.10278 10.1471 7.23407V8.92607ZM18.2681 7.79707L18.2561 7.77807C18.0646 7.45022 17.7523 7.21042 17.3861 7.11007C17.2019 7.05947 17.0093 7.04632 16.8199 7.0714C16.6304 7.09647 16.4479 7.15927 16.2831 7.25607H16.2851C15.9381 7.45607 15.7051 7.78507 15.6081 8.15207C15.5131 8.51707 15.5541 8.92007 15.7541 9.27107L15.7611 9.28007C15.9611 9.62707 16.2801 9.85907 16.6351 9.95307C16.9921 10.0561 17.3901 10.0121 17.7331 9.80907L17.7521 9.80007C18.0776 9.60144 18.3132 9.28411 18.4091 8.91507C18.51 8.53829 18.4594 8.13701 18.2681 7.79707Z" fill="url(#paint0_linear_563_6699)"/>
</g>
<defs>
<linearGradient id="paint0_linear_563_6699" x1="5.49414" y1="24.9451" x2="20.1359" y2="24.9451" gradientUnits="userSpaceOnUse">
<stop stop-color="#26A7CF"/>
<stop offset="1" stop-color="#27AF8F"/>
</linearGradient>
<clipPath id="clip0_563_6699">
<rect width="24" height="24" fill="white" transform="translate(0.814453 0.945068)"/>
</clipPath>
</defs>
</svg>
