<svg width="20" height="19" viewBox="0 0 20 19" fill="none" xmlns="http://www.w3.org/2000/svg">
<path d="M19.9822 11.2396L17.5042 10.6741C17.7291 8.93438 17.3233 7.17165 16.3604 5.70535L18.2654 4.1866L17.3302 3.0136L15.4259 4.5316C14.199 3.26955 12.5662 2.48076 10.8149 2.3041V0.0166016H9.31494V2.3041C7.56367 2.48076 5.93086 3.26955 4.70394 4.5316L2.79894 3.0136L1.86444 4.1866L3.76944 5.70535C2.8068 7.17175 2.40131 8.93447 2.62644 10.6741L0.148438 11.2396L0.482937 12.7021L2.95569 12.1374C3.51857 13.8109 4.65189 15.2333 6.15744 16.1559L5.15994 18.2281L6.51144 18.8784L7.50819 16.8084C9.15833 17.42 10.973 17.42 12.6232 16.8084L13.6207 18.8784L14.9722 18.2274L13.9747 16.1559C15.4802 15.2333 16.6136 13.8109 17.1764 12.1374L19.6492 12.7014L19.9822 11.2396ZM16.0649 9.7666C16.0649 9.95935 16.0537 10.1499 16.0357 10.3389L12.2857 9.48235C12.2668 9.33072 12.2324 9.18143 12.1829 9.03685L15.1799 6.6466C15.7579 7.5847 16.0643 8.66475 16.0649 9.7666ZM9.31494 9.7666C9.31494 9.61827 9.35892 9.47326 9.44134 9.34992C9.52375 9.22659 9.64088 9.13046 9.77792 9.07369C9.91497 9.01693 10.0658 9.00207 10.2113 9.03101C10.3567 9.05995 10.4904 9.13138 10.5953 9.23627C10.7002 9.34116 10.7716 9.4748 10.8005 9.62028C10.8295 9.76577 10.8146 9.91657 10.7578 10.0536C10.7011 10.1907 10.605 10.3078 10.4816 10.3902C10.3583 10.4726 10.2133 10.5166 10.0649 10.5166C9.86602 10.5166 9.67526 10.4376 9.53461 10.2969C9.39396 10.1563 9.31494 9.96551 9.31494 9.7666ZM14.2469 5.4721L11.2499 7.86235C11.1128 7.77774 10.967 7.70809 10.8149 7.6546V3.8191C12.1086 3.98161 13.3137 4.56232 14.2469 5.47285V5.4721ZM9.31494 3.8191V7.65535C9.16292 7.70884 9.01709 7.77849 8.87994 7.8631L5.88294 5.47285C6.81614 4.56232 8.02128 3.98161 9.31494 3.8191ZM4.06494 9.7666C4.06561 8.66475 4.37197 7.5847 4.94994 6.6466L7.94694 9.03685C7.89748 9.18143 7.86305 9.33072 7.84419 9.48235L4.09419 10.3381C4.07543 10.1482 4.06567 9.95746 4.06494 9.7666ZM4.42719 11.8006L8.15919 10.9486C8.2472 11.0941 8.35136 11.2292 8.46969 11.3514L6.80994 14.7991C5.71089 14.0853 4.8746 13.0326 4.42794 11.8006H4.42719ZM10.0649 15.7666C9.41706 15.7656 8.77366 15.6592 8.15994 15.4516L9.82494 11.9926C9.90445 12.0049 9.98457 12.0129 10.0649 12.0166C10.1451 12.0129 10.2249 12.0049 10.3042 11.9926L11.9699 15.4516C11.3563 15.6593 10.7128 15.7657 10.0649 15.7666ZM13.3199 14.7991L11.6602 11.3506C11.7785 11.2287 11.8826 11.0938 11.9707 10.9486L15.7027 11.8006C15.256 13.0326 14.4197 14.0853 13.3207 14.7991H13.3199Z" fill="url(#paint0_linear_563_6822)"/>
<defs>
<linearGradient id="paint0_linear_563_6822" x1="0.148438" y1="18.8783" x2="19.9822" y2="18.8783" gradientUnits="userSpaceOnUse">
<stop stop-color="#26A7CF"/>
<stop offset="1" stop-color="#27AF8F"/>
</linearGradient>
</defs>
</svg>
