<svg width="25" height="25" viewBox="0 0 25 25" fill="none" xmlns="http://www.w3.org/2000/svg">
<path d="M9.36745 3.46502C8.7337 3.42227 8.11045 3.53627 7.56445 3.85127C6.8362 4.27127 6.35095 4.98902 6.0907 5.81627C5.83045 6.64127 5.77045 7.59377 5.8657 8.63402C5.8747 8.73902 5.89345 8.84927 5.9062 8.95652C5.8072 8.99852 5.7022 9.03752 5.6062 9.08252C4.6582 9.51977 3.86395 10.0478 3.2782 10.686C2.6932 11.325 2.31445 12.1035 2.31445 12.945C2.31445 13.7858 2.6932 14.565 3.2782 15.204C3.8632 15.8423 4.6582 16.3703 5.6062 16.8075C5.7022 16.8525 5.8072 16.8915 5.9062 16.9335C5.89345 17.0408 5.8747 17.151 5.86495 17.256C5.77045 18.2963 5.83045 19.248 6.0907 20.0745C6.35095 20.901 6.8362 21.618 7.56445 22.0388C8.2927 22.4588 9.15595 22.521 10.002 22.3335C10.848 22.146 11.7022 21.7208 12.555 21.1185C12.6412 21.0585 12.7275 20.9873 12.8145 20.9228C12.9007 20.9873 12.987 21.0578 13.074 21.1185C13.9267 21.7208 14.781 22.146 15.627 22.3335C16.473 22.521 17.3362 22.4595 18.0645 22.0388C18.7927 21.6188 19.278 20.901 19.5382 20.0738C19.7985 19.2488 19.8585 18.2963 19.7632 17.256C19.7542 17.151 19.7355 17.0408 19.7227 16.9335C19.8217 16.8915 19.9267 16.8525 20.0227 16.8075C20.9707 16.3703 21.765 15.8423 22.3507 15.204C22.9357 14.565 23.3145 13.7865 23.3145 12.945C23.3145 12.1043 22.9357 11.325 22.3507 10.686C21.7657 10.0478 20.9707 9.51977 20.0227 9.08252C19.9267 9.03752 19.8217 8.99852 19.7227 8.95652C19.7355 8.84927 19.7542 8.73902 19.764 8.63402C19.8585 7.59377 19.7985 6.64202 19.5382 5.81552C19.278 4.98902 18.7927 4.27202 18.0645 3.85127C17.3362 3.43127 16.473 3.36902 15.627 3.55652C14.781 3.74402 13.9267 4.16927 13.074 4.77152C12.9877 4.83152 12.9015 4.90277 12.8145 4.96727C12.7282 4.90277 12.642 4.83227 12.555 4.77152C11.7022 4.16927 10.848 3.74402 10.002 3.55652C9.7931 3.50971 9.58099 3.47887 9.36745 3.46427V3.46502ZM9.26995 4.95902C9.39745 4.96802 9.5332 4.98902 9.67795 5.02202C10.245 5.14727 10.9237 5.46527 11.64 5.96327C11.0111 6.56185 10.4282 7.20692 9.8962 7.89302C9.0373 8.01015 8.18841 8.19167 7.3567 8.43602C7.2832 7.56752 7.3462 6.82052 7.5202 6.26702C7.69945 5.70002 7.96645 5.35202 8.31445 5.15027C8.57545 5.00027 8.88595 4.92977 9.2692 4.95902H9.26995ZM16.3597 4.95902C16.7422 4.92977 17.0535 5.00027 17.3145 5.15027C17.6625 5.35127 17.9295 5.70002 18.1087 6.26702C18.2827 6.82052 18.3457 7.56752 18.2722 8.43602C17.4405 8.19167 16.5916 8.01015 15.7327 7.89302C15.2007 7.20692 14.6178 6.56185 13.989 5.96327C14.7052 5.46527 15.384 5.14727 15.951 5.02202C16.0957 4.98977 16.2315 4.96802 16.3597 4.95902ZM12.8145 6.91427C13.0777 7.15802 13.341 7.42877 13.6042 7.71227C13.3411 7.70184 13.0778 7.69608 12.8145 7.69502C12.5482 7.69502 12.2865 7.70327 12.0247 7.71227C12.2872 7.42877 12.5512 7.15802 12.8145 6.91427ZM12.8145 9.19502C13.5382 9.19502 14.2395 9.23777 14.9137 9.30902C15.3273 9.87532 15.7106 10.4631 16.062 11.07C16.4235 11.6963 16.737 12.3248 17.013 12.945C16.7293 13.5864 16.4119 14.2123 16.062 14.82C15.7106 15.4269 15.3273 16.0147 14.9137 16.581C14.2387 16.6523 13.5382 16.695 12.8145 16.695C12.0907 16.695 11.3895 16.6523 10.7152 16.581C10.3016 16.0147 9.91832 15.4269 9.56695 14.82C9.20545 14.1938 8.89195 13.5653 8.61595 12.945C8.8912 12.3248 9.20545 11.6963 9.56695 11.07C9.92845 10.4438 10.3162 9.85727 10.7152 9.30902C11.4124 9.23395 12.1132 9.1959 12.8145 9.19502ZM8.67745 9.64502C8.5387 9.86627 8.4007 10.089 8.26795 10.32C8.13736 10.5487 8.01084 10.7798 7.88845 11.013C7.77596 10.6559 7.67713 10.2947 7.5922 9.93002C7.93495 9.82427 8.30095 9.73052 8.67745 9.64502ZM16.9515 9.64502C17.328 9.73052 17.694 9.82427 18.0367 9.93002C17.9572 10.2803 17.8545 10.644 17.7405 11.013C17.6181 10.7798 17.4916 10.5487 17.361 10.32C17.2285 10.0926 17.0919 9.86758 16.9515 9.64502ZM6.17995 10.4723C6.37195 11.271 6.6367 12.0998 6.9802 12.945C6.6518 13.748 6.3843 14.5746 6.17995 15.4178C5.3917 15.0465 4.77595 14.6175 4.38445 14.19C3.9832 13.752 3.81445 13.347 3.81445 12.945C3.81445 12.543 3.9832 12.138 4.38445 11.7C4.77595 11.2725 5.3917 10.8435 6.17995 10.4723ZM19.449 10.4723C20.2372 10.8435 20.853 11.2725 21.2445 11.7C21.6457 12.138 21.8145 12.543 21.8145 12.945C21.8145 13.347 21.6457 13.752 21.2445 14.19C20.853 14.6175 20.2372 15.0465 19.449 15.4178C19.2446 14.5746 18.9771 13.748 18.6487 12.945C18.9769 12.1419 19.2444 11.3154 19.449 10.4723ZM12.8145 10.695C11.5807 10.695 10.5645 11.7113 10.5645 12.945C10.5645 14.1788 11.5807 15.195 12.8145 15.195C14.0482 15.195 15.0645 14.1788 15.0645 12.945C15.0645 11.7113 14.0482 10.695 12.8145 10.695ZM12.8145 12.195C13.2375 12.195 13.5645 12.522 13.5645 12.945C13.5645 13.368 13.2375 13.695 12.8145 13.695C12.3915 13.695 12.0645 13.368 12.0645 12.945C12.0645 12.522 12.3915 12.195 12.8145 12.195ZM7.88845 14.877C8.0107 15.108 8.13445 15.339 8.2672 15.57C8.4007 15.801 8.5387 16.0238 8.67745 16.245C8.30095 16.1595 7.93495 16.0658 7.5922 15.96C7.6717 15.6098 7.77445 15.246 7.88845 14.877ZM17.7405 14.877C17.8545 15.246 17.958 15.6098 18.0367 15.96C17.694 16.0658 17.328 16.1595 16.9515 16.245C17.0902 16.0238 17.2282 15.801 17.3617 15.57C17.4945 15.339 17.6182 15.108 17.7405 14.877ZM7.3567 17.454C8.1442 17.6865 8.99395 17.8725 9.8962 17.997C10.4285 18.6829 11.0113 19.328 11.64 19.9268C10.9237 20.4248 10.245 20.7428 9.67795 20.868C9.0982 20.997 8.66245 20.94 8.31445 20.7398C7.96645 20.5388 7.69945 20.19 7.5202 19.623C7.3462 19.0695 7.2832 18.3225 7.3567 17.454ZM18.2722 17.454C18.3457 18.3225 18.2827 19.0695 18.1087 19.623C17.9295 20.19 17.6625 20.538 17.3145 20.7398C16.9665 20.94 16.5307 20.997 15.951 20.868C15.384 20.7428 14.7052 20.4248 13.989 19.9268C14.6178 19.3282 15.2007 18.6831 15.7327 17.997C16.5916 17.8799 17.4405 17.6984 18.2722 17.454ZM12.0247 18.1778C12.2865 18.1868 12.5482 18.195 12.8145 18.195C13.0807 18.195 13.3425 18.1868 13.6042 18.1778C13.3417 18.4613 13.0777 18.732 12.8145 18.9758C12.5411 18.7199 12.2777 18.4537 12.0247 18.1778Z" fill="url(#paint0_linear_563_6691)"/>
<defs>
<linearGradient id="paint0_linear_563_6691" x1="2.31445" y1="22.4341" x2="23.3145" y2="22.4341" gradientUnits="userSpaceOnUse">
<stop stop-color="#26A7CF"/>
<stop offset="1" stop-color="#27AF8F"/>
</linearGradient>
</defs>
</svg>
