<svg width="25" height="25" viewBox="0 0 25 25" fill="none" xmlns="http://www.w3.org/2000/svg">
<path d="M11.0645 2.76172H13.0645V4.76172H13.5645C13.9623 4.76172 14.3438 4.91975 14.6251 5.20106C14.9064 5.48236 15.0645 5.86389 15.0645 6.26172V9.76172L14.6245 10.2017L16.2645 13.0417C17.3745 11.9517 18.0645 10.4417 18.0645 8.76172H20.0645C20.0645 11.1817 18.9945 13.3517 17.2945 14.8217L20.4345 20.2617L20.5645 22.4817L18.6945 21.2617L15.6245 15.9317C14.5645 16.4617 13.3445 16.7617 12.0645 16.7617C10.7845 16.7617 9.56445 16.4617 8.50445 15.9317L5.43445 21.2617L3.56445 22.4817L3.69445 20.2617L9.50445 10.2017L9.06445 9.76172V6.26172C9.06445 5.86389 9.22249 5.48236 9.50379 5.20106C9.7851 4.91975 10.1666 4.76172 10.5645 4.76172H11.0645V2.76172ZM9.50445 14.1917C10.2845 14.5617 11.1545 14.7617 12.0645 14.7617C12.9745 14.7617 13.8445 14.5617 14.6245 14.1917L13.1645 11.6617H13.1545C12.5345 12.2617 11.5945 12.2617 10.9745 11.6617H10.9645L9.50445 14.1917ZM12.0645 6.76172C11.7992 6.76172 11.5449 6.86708 11.3573 7.05461C11.1698 7.24215 11.0645 7.4965 11.0645 7.76172C11.0645 8.02694 11.1698 8.28129 11.3573 8.46883C11.5449 8.65636 11.7992 8.76172 12.0645 8.76172C12.3297 8.76172 12.584 8.65636 12.7716 8.46883C12.9591 8.28129 13.0645 8.02694 13.0645 7.76172C13.0645 7.4965 12.9591 7.24215 12.7716 7.05461C12.584 6.86708 12.3297 6.76172 12.0645 6.76172Z" fill="url(#paint0_linear_563_6756)"/>
<defs>
<linearGradient id="paint0_linear_563_6756" x1="3.56445" y1="22.4817" x2="20.5645" y2="22.4817" gradientUnits="userSpaceOnUse">
<stop stop-color="#26A7CF"/>
<stop offset="1" stop-color="#27AF8F"/>
</linearGradient>
</defs>
</svg>
