<svg width="25" height="25" viewBox="0 0 25 25" fill="none" xmlns="http://www.w3.org/2000/svg">
<g clip-path="url(#clip0_563_6753)">
<path d="M12.0645 0.761728C5.43645 0.761728 0.0644531 6.13473 0.0644531 12.7617C0.0644531 19.3897 5.43645 24.7617 12.0645 24.7617C18.6915 24.7617 24.0645 19.3897 24.0645 12.7617C24.0649 11.6307 23.9057 10.5052 23.5915 9.41873C23.5326 9.27565 23.4207 9.16087 23.2791 9.09833C23.1376 9.0358 22.9774 9.03036 22.8319 9.08314C22.6865 9.13592 22.5671 9.24285 22.4986 9.3816C22.4301 9.52034 22.4179 9.68018 22.4645 9.82773H22.4625C22.7275 10.7707 22.8645 11.7557 22.8645 12.7617C22.8684 14.1806 22.5908 15.5861 22.0479 16.897C21.505 18.2079 20.7074 19.3981 19.7015 20.3987C18.7009 21.4047 17.5107 22.2023 16.1998 22.7452C14.8889 23.2882 13.4833 23.5657 12.0645 23.5617C10.6456 23.5656 9.24003 23.2881 7.92914 22.7452C6.61826 22.2022 5.42806 21.4047 4.42745 20.3987C3.42139 19.3982 2.6238 18.208 2.08087 16.8971C1.53794 15.5862 1.26044 14.1806 1.26445 12.7617C1.26055 11.3429 1.5381 9.93731 2.08103 8.62642C2.62395 7.31553 3.42148 6.12534 4.42745 5.12473C5.428 4.11867 6.61818 3.32108 7.92908 2.77815C9.23998 2.23521 10.6456 1.95772 12.0645 1.96173C14.6405 1.96173 17.0775 2.85773 19.0225 4.50173C18.8995 4.81374 18.8873 5.15846 18.9878 5.47841C19.0883 5.79835 19.2954 6.07417 19.5747 6.25986C19.8539 6.44555 20.1884 6.52989 20.5223 6.49881C20.8562 6.46772 21.1694 6.32309 21.4095 6.08905C21.6497 5.855 21.8024 5.54568 21.8421 5.21269C21.8818 4.87969 21.8061 4.54315 21.6277 4.25919C21.4493 3.97524 21.1789 3.76103 20.8617 3.6523C20.5445 3.54358 20.1995 3.5469 19.8845 3.66173C17.7105 1.7875 14.9348 0.758119 12.0645 0.761728ZM10.6245 6.64173L6.42445 17.5437H9.05445L9.74145 15.6957H13.7105L12.9915 13.6537H10.3785L12.0785 8.96273L15.1025 17.5427H17.7335L13.5345 6.64173H10.6245Z" fill="url(#paint0_linear_563_6753)"/>
</g>
<defs>
<linearGradient id="paint0_linear_563_6753" x1="0.0644531" y1="24.7617" x2="24.0645" y2="24.7617" gradientUnits="userSpaceOnUse">
<stop stop-color="#26A7CF"/>
<stop offset="1" stop-color="#27AF8F"/>
</linearGradient>
<clipPath id="clip0_563_6753">
<rect width="24" height="24" fill="white" transform="translate(0.0644531 0.761719)"/>
</clipPath>
</defs>
</svg>
