<svg width="25" height="25" viewBox="0 0 25 25" fill="none" xmlns="http://www.w3.org/2000/svg">
<path d="M9.75879 22.945C8.94673 22.9507 8.15292 22.7041 7.48706 22.2392C6.8212 21.7744 6.31615 21.1142 6.0417 20.3499C5.76724 19.5856 5.73693 18.7549 5.95496 17.9726C6.17298 17.1904 6.62858 16.4951 7.25879 15.983C6.80602 15.6165 6.44086 15.1535 6.19003 14.6278C5.93919 14.1021 5.80901 13.5269 5.80901 12.9445C5.80901 12.362 5.93919 11.7868 6.19003 11.2611C6.44086 10.7354 6.80602 10.2724 7.25879 9.90596C6.62779 9.39426 6.17146 8.69906 5.95296 7.9166C5.73446 7.13414 5.7646 6.3031 6.03919 5.53852C6.31379 4.77393 6.81927 4.11361 7.48566 3.64896C8.15206 3.1843 8.94642 2.93828 9.75879 2.94496H15.8688C16.6812 2.93828 17.4755 3.1843 18.1419 3.64896C18.8083 4.11361 19.3138 4.77393 19.5884 5.53852C19.863 6.3031 19.8931 7.13414 19.6746 7.9166C19.4561 8.69906 18.9998 9.39426 18.3688 9.90596C18.9996 10.4178 19.4557 11.1131 19.6741 11.8955C19.8925 12.678 19.8623 13.509 19.5878 14.2736C19.3132 15.0381 18.8079 15.6985 18.1416 16.1633C17.4754 16.628 16.6811 16.8743 15.8688 16.868C15.0998 16.8689 14.3473 16.6451 13.7038 16.224V19.024C13.6993 20.0666 13.2814 21.065 12.5419 21.8C11.8024 22.5351 10.8015 22.9468 9.75879 22.945ZM9.73679 16.869C9.31248 16.8757 8.89961 17.0076 8.55005 17.2482C8.20049 17.4888 7.92984 17.8274 7.77208 18.2213C7.61433 18.6153 7.57651 19.0471 7.66338 19.4624C7.75026 19.8778 7.95795 20.2583 8.26036 20.556C8.56277 20.8537 8.94642 21.0554 9.36311 21.1357C9.77979 21.2161 10.2109 21.1715 10.6024 21.0076C10.9938 20.8437 11.3281 20.5678 11.5632 20.2145C11.7983 19.8612 11.9237 19.4463 11.9238 19.022V16.869H9.73579H9.73679ZM15.8698 10.792C15.4444 10.7941 15.0293 10.9222 14.6767 11.1601C14.324 11.398 14.0498 11.735 13.8885 12.1286C13.7273 12.5222 13.6862 12.9548 13.7705 13.3717C13.8548 13.7886 14.0607 14.1712 14.3623 14.4712C14.6638 14.7712 15.0474 14.9752 15.4648 15.0574C15.8821 15.1395 16.3145 15.0963 16.7072 14.933C17.1 14.7697 17.4356 14.4938 17.6717 14.1399C17.9078 13.7861 18.0338 13.3703 18.0338 12.945C18.0317 12.3725 17.8025 11.8243 17.3966 11.4207C16.9907 11.017 16.4412 10.7909 15.8688 10.792H15.8698ZM9.75979 10.792C9.18878 10.7889 8.63994 11.0128 8.23402 11.4144C7.8281 11.816 7.59834 12.3624 7.59529 12.9335C7.59224 13.5045 7.81615 14.0533 8.21775 14.4592C8.61936 14.8651 9.16578 15.0949 9.73679 15.098H11.9238V10.792H9.75979ZM13.7038 4.71496V9.02196H15.8678C16.4248 9.02455 16.9612 8.81138 17.3644 8.42714C17.7677 8.0429 18.0065 7.51744 18.0308 6.96096V7.39596V6.86796C18.0284 6.29612 17.7996 5.74852 17.3944 5.34501C16.9892 4.9415 16.4406 4.71495 15.8688 4.71496H13.7038ZM9.75779 4.71496C9.18678 4.71496 8.63915 4.94179 8.23539 5.34556C7.83162 5.74932 7.60479 6.29695 7.60479 6.86796C7.60479 7.43897 7.83162 7.98659 8.23539 8.39036C8.63915 8.79412 9.18678 9.02096 9.75779 9.02096H11.9238V4.71496H9.75779Z" fill="url(#paint0_linear_563_6702)"/>
<defs>
<linearGradient id="paint0_linear_563_6702" x1="5.80859" y1="22.945" x2="19.819" y2="22.945" gradientUnits="userSpaceOnUse">
<stop stop-color="#26A7CF"/>
<stop offset="1" stop-color="#27AF8F"/>
</linearGradient>
</defs>
</svg>
