<svg width="18" height="21" viewBox="0 0 18 21" fill="none" xmlns="http://www.w3.org/2000/svg">
<path fill-rule="evenodd" clip-rule="evenodd" d="M4.29481 3.14635C4.33384 2.87962 4.58607 2.69705 4.84688 2.73891L4.84688 2.73895L4.85491 2.74017C5.00296 2.7627 5.14264 2.86103 5.21419 2.99437C5.23331 3.03 5.25457 3.06444 5.27787 3.0975L6.2398 4.46283L3.10953 10.4282L4.29236 3.16222L4.29481 3.14635ZM5.08683 10.9643L10.135 6.03165L9.32348 4.49292C9.27636 4.4068 9.19898 4.32961 9.11277 4.2828C8.90973 4.17517 8.67003 4.22474 8.52728 4.39446C8.51382 4.42898 8.49838 4.46295 8.48093 4.49621L5.08683 10.9643ZM11.6032 4.52831C11.6246 4.50149 11.6476 4.47552 11.6722 4.45051C12.6431 3.46292 14.2309 3.4629 15.2025 4.43444C15.5758 4.80784 15.8097 5.28097 15.8923 5.79027L15.8926 5.79232L17.3921 14.8991L17.3926 14.9023C17.5597 15.9382 17.0585 16.979 16.1176 17.483C16.104 17.4903 16.0903 17.4972 16.0764 17.5039L10.0271 20.394C9.30163 20.7777 8.40907 20.8091 7.6506 20.3876L1.65893 17.4813C1.64044 17.4723 1.62223 17.4628 1.60433 17.4527C0.697267 16.9414 0.190001 15.9246 0.358107 14.8823L0.358341 14.8809L2.31721 2.84781C2.52224 1.48076 3.80505 0.548351 5.15981 0.763545C5.90743 0.878586 6.56867 1.33525 6.94323 1.98875L7.44021 2.69413C8.18198 2.1582 9.19172 2.05745 10.0566 2.51953L10.0595 2.52108C10.4918 2.75386 10.8531 3.11515 11.0859 3.54745L11.09 3.55506L11.09 3.55508L11.6032 4.52831ZM13.1142 5.91679C13.168 5.86423 13.2146 5.8071 13.254 5.74661C13.4315 5.67123 13.6454 5.70583 13.7882 5.84866C13.8543 5.91476 13.9004 6.00085 13.9181 6.11078L13.9186 6.11401L15.4181 15.2208L15.4183 15.2221C15.4497 15.4201 15.3572 15.6134 15.1877 15.7119L9.14426 18.5992C9.12858 18.6067 9.1131 18.6146 9.09783 18.6229C8.91917 18.72 8.74067 18.7079 8.61563 18.6357C8.59476 18.6236 8.57346 18.6123 8.55177 18.6018L2.92529 15.8727L13.1142 5.91679Z" fill="url(#paint0_linear_563_6675)"/>
<defs>
<linearGradient id="paint0_linear_563_6675" x1="0.326172" y1="20.6928" x2="17.4244" y2="20.6928" gradientUnits="userSpaceOnUse">
<stop stop-color="#26A7CF"/>
<stop offset="1" stop-color="#27AF8F"/>
</linearGradient>
</defs>
</svg>
