<svg width="19" height="15" viewBox="0 0 19 15" fill="none" xmlns="http://www.w3.org/2000/svg">
<path fill-rule="evenodd" clip-rule="evenodd" d="M12.3898 4.44427H12.3535C11.5792 3.8179 10.5948 3.5111 9.6017 3.58667C8.60861 3.66223 7.68194 4.11445 7.0113 4.85077C6.99773 4.84803 6.98201 4.853 6.96524 4.86319C7.402 4.94892 7.82703 5.09195 8.22902 5.28967C8.93185 5.63536 9.54523 6.13886 10.0212 6.76084L7.75399 9.02884C7.62391 8.74061 7.42583 8.48825 7.17675 8.29341C6.92768 8.09857 6.63504 7.96708 6.32397 7.91022C6.01289 7.85335 5.69267 7.87282 5.39077 7.96695C5.08887 8.06107 4.81433 8.22704 4.59069 8.45062C4.36705 8.67419 4.20099 8.9487 4.10678 9.25056C4.01257 9.55243 3.99301 9.87265 4.04978 10.1837C4.10655 10.4948 4.23796 10.7875 4.43273 11.0366C4.62749 11.2858 4.8798 11.4839 5.16799 11.6141L5.16589 11.6162C5.41805 11.7306 5.6917 11.7901 5.96864 11.7905H9.87764V11.8212L9.88414 11.8146H13.7931C14.3115 11.8146 14.8086 11.6087 15.1752 11.2422C15.5417 10.8756 15.7476 10.3785 15.7476 9.86013C15.7476 9.34177 15.5417 8.84463 15.1752 8.47809C14.8086 8.11155 14.3115 7.90563 13.7931 7.90563V7.51563C13.8045 6.92471 13.6813 6.33894 13.433 5.8026C13.1901 5.27797 12.8337 4.81405 12.3898 4.44427ZM2.90583 13.8763L2.90039 13.898C3.78378 14.5651 4.86166 14.924 5.96864 14.9195H9.85997L9.88414 14.9436H13.7931C14.8848 14.9523 15.9502 14.6093 16.8318 13.9654C17.7134 13.3216 18.3643 12.411 18.6882 11.3684C19.012 10.3259 18.9917 9.20678 18.6301 8.1767C18.2686 7.14663 17.585 6.2603 16.6806 5.64888V5.64663C16.3207 4.32314 15.5822 3.13349 14.5559 2.22363L14.5223 2.25721L14.527 2.21527C13.6307 1.42556 12.5479 0.877208 11.3809 0.621925C10.2139 0.366642 9.00104 0.412846 7.85682 0.75618C6.7126 1.09951 5.6747 1.72866 4.841 2.58428C4.00731 3.43989 3.40532 4.49377 3.0918 5.64652C3.12534 5.63283 3.15956 5.62135 3.19427 5.6121C3.13593 5.65071 3.0783 5.69057 3.02142 5.73168C2.16304 6.35219 1.5199 7.22532 1.18186 8.2291C0.843825 9.23289 0.827769 10.3172 1.13594 11.3306C1.4441 12.3439 2.0611 13.2357 2.90074 13.8813L2.90583 13.8763Z" fill="url(#paint0_linear_563_6684)"/>
<defs>
<linearGradient id="paint0_linear_563_6684" x1="0.916016" y1="14.9438" x2="18.917" y2="14.9438" gradientUnits="userSpaceOnUse">
<stop stop-color="#26A7CF"/>
<stop offset="1" stop-color="#27AF8F"/>
</linearGradient>
</defs>
</svg>
