<svg width="18" height="22" viewBox="0 0 18 22" fill="none" xmlns="http://www.w3.org/2000/svg">
<path d="M15.966 1.75586H2.16199C2.0228 1.75588 1.88514 1.78495 1.75782 1.84123C1.63051 1.8975 1.51635 1.97973 1.42264 2.08266C1.32894 2.1856 1.25775 2.30695 1.21365 2.43898C1.16954 2.571 1.15348 2.71077 1.16649 2.84936L2.51049 17.1824C2.52677 17.3568 2.58859 17.5239 2.68977 17.6669C2.79094 17.81 2.92792 17.9239 3.08699 17.9974L8.64499 20.5624C8.77636 20.623 8.91931 20.6544 9.06399 20.6544C9.20867 20.6544 9.35162 20.623 9.48299 20.5624L15.041 17.9974C15.2001 17.924 15.3372 17.8101 15.4385 17.667C15.5398 17.524 15.6017 17.3569 15.618 17.1824L16.9615 2.84936C16.9745 2.71077 16.9584 2.571 16.9143 2.43898C16.8702 2.30695 16.799 2.1856 16.7053 2.08266C16.6116 1.97973 16.4975 1.8975 16.3702 1.84123C16.2428 1.78495 16.1052 1.75588 15.966 1.75586Z" stroke="url(#paint0_linear_563_6773)" stroke-width="2"/>
<path d="M13.0645 5.25586H5.06445L5.56445 9.75586H12.5645L12.0645 15.2559L9.06445 16.7559L6.06445 15.2559L5.81445 12.7559" stroke="url(#paint1_linear_563_6773)" stroke-width="2" stroke-linecap="round" stroke-linejoin="round"/>
<defs>
<linearGradient id="paint0_linear_563_6773" x1="1.16211" y1="20.6544" x2="16.9659" y2="20.6544" gradientUnits="userSpaceOnUse">
<stop stop-color="#26A7CF"/>
<stop offset="1" stop-color="#27AF8F"/>
</linearGradient>
<linearGradient id="paint1_linear_563_6773" x1="5.06445" y1="16.7559" x2="13.0645" y2="16.7559" gradientUnits="userSpaceOnUse">
<stop stop-color="#26A7CF"/>
<stop offset="1" stop-color="#27AF8F"/>
</linearGradient>
</defs>
</svg>
