<svg width="24" height="24" viewBox="0 0 24 24" fill="none" xmlns="http://www.w3.org/2000/svg">
<mask id="path-1-outside-1_563_6767" maskUnits="userSpaceOnUse" x="-0.181641" y="0.208008" width="24" height="24" fill="black">
<rect fill="white" x="-0.181641" y="0.208008" width="24" height="24"/>
<path d="M23.0426 22.7659L23.04 22.7635C23.0858 22.8401 23.1195 22.9232 23.1402 23.01L23.1411 23.0137C23.1697 23.1117 23.2291 23.1979 23.3105 23.2595V23.3037H23.3078C23.1792 23.2872 23.0612 23.2239 22.9763 23.126L22.9735 23.1214C22.9238 23.0413 22.8648 22.9676 22.7976 22.9013C22.6337 22.7828 22.463 22.6604 22.2856 22.5339C22.1084 22.4076 21.9306 22.2926 21.7521 22.1889C21.7568 22.1922 21.7616 22.1954 21.7663 22.1987L21.7515 22.1886C21.7517 22.1887 21.7519 22.1888 21.7521 22.1889C21.4817 22.0026 21.1903 21.8455 20.8519 21.7097L20.8095 21.695C20.4927 21.567 20.1888 21.4141 19.9273 21.2539L19.9052 21.2419C19.7312 21.1388 19.5636 21.0246 19.4153 20.9086C19.2533 20.7827 19.0973 20.6603 18.9475 20.5412L18.9411 20.5366C18.779 20.4178 18.6326 20.2787 18.5028 20.1185L18.5065 20.1231C18.3738 19.9684 18.256 19.8008 18.1464 19.6065L18.1492 19.612C18.1031 19.5365 18.0654 19.4555 18.0341 19.3616L18.0322 19.356C18.0018 19.2676 17.9567 19.1857 17.9005 19.1157C17.9071 19.0519 17.9347 18.9922 17.9791 18.946C18.0235 18.8998 18.0821 18.8697 18.1455 18.8606L18.163 18.8569C18.2851 18.8269 18.4045 18.7872 18.5203 18.7381L18.4834 18.751C18.9201 18.5733 19.3778 18.4526 19.8454 18.3919L19.7938 18.3974C20.3536 18.3246 20.9185 18.2978 21.4826 18.3173C21.4661 18.1687 21.3175 18.0091 21.037 17.8385C20.7564 17.6678 20.5566 17.538 20.4375 17.4489C20.1852 17.2844 19.9329 17.1095 19.6805 16.9241L19.6999 16.9379C19.4568 16.7574 19.2017 16.5916 18.9006 16.4231L18.9089 16.4277C18.7532 16.3283 18.5838 16.2491 18.3886 16.1892L18.3517 16.1791C18.1777 16.1229 18.0083 16.0594 17.8766 15.9995L17.9199 16.0152C17.6436 15.9019 17.3582 15.8061 17.0193 15.7214L17.0119 15.7205C16.732 15.6717 16.4824 15.5317 16.2955 15.3319L16.3056 15.3457C16.0819 15.0483 15.8894 14.726 15.7172 14.3521L15.2273 13.283C15.064 12.9257 14.889 12.558 14.7024 12.1798C14.5158 11.8017 14.3408 11.4269 14.1775 11.0555C14.1039 10.8762 14.0373 10.7013 13.9777 10.5306L13.9676 10.5002C13.9063 10.3313 13.8343 10.1664 13.7521 10.0066L13.7134 9.92836C13.4344 9.40716 13.1241 8.90437 12.8165 8.46973L12.788 8.42645C12.4537 7.95037 12.0881 7.49639 11.705 7.07832L11.6958 7.06727C11.3036 6.64 10.8855 6.23574 10.4251 5.84162L10.4407 5.85451C9.99963 5.47604 9.53092 5.1298 8.98853 4.79185C8.66194 4.58374 8.31662 4.38698 7.95258 4.20158L7.99033 4.21908C7.62936 4.03215 7.24905 3.87652 6.80612 3.74484L6.82822 3.75129C6.59064 3.6721 6.34109 3.62145 6.07128 3.60027C5.80423 3.57755 5.55192 3.5662 5.31434 3.5662H5.00217C4.86834 3.47657 4.74218 3.38725 4.6237 3.29823C4.5074 3.21085 4.3908 3.13057 4.27391 3.05739C4.27724 3.0597 4.28058 3.06202 4.28391 3.06433L4.26733 3.05328C4.26952 3.05465 4.27172 3.05602 4.27391 3.05739C4.05584 2.90639 3.82487 2.77045 3.55459 2.64166C3.3164 2.53055 3.05641 2.41544 2.77463 2.29634L1.54806 2.67297L1.5499 2.6831C1.57563 2.78708 1.61237 2.88802 1.65948 2.98422L1.66777 3.00264C1.77489 3.21868 1.90652 3.42168 2.06005 3.60764C2.20739 3.78628 2.35595 3.97199 2.50574 4.16475C2.62361 4.3434 2.75744 4.53278 2.90723 4.73292L2.90601 4.73129C3.04746 4.92033 3.16653 5.12513 3.26084 5.3416L3.2369 5.28266C3.44055 5.7301 3.60866 6.19288 3.73968 6.6667L3.75994 6.74866C3.87917 7.1727 4.02495 7.58883 4.19643 7.99457C4.27071 8.1591 4.35604 8.32608 4.45242 8.49551C4.54881 8.66495 4.64887 8.82456 4.75262 8.97436L4.75538 8.97804C4.85071 9.0881 4.9538 9.1912 5.06387 9.28652L5.06479 9.28744C5.18026 9.38763 5.26489 9.51856 5.30881 9.66499C5.39783 9.81294 5.36806 10.0803 5.21949 10.4671C5.07322 10.8478 4.97754 11.1203 4.93243 11.2845L4.94139 11.2516C4.71957 11.9401 4.6302 12.6644 4.67803 13.3862V13.3944C4.69459 14.0699 4.82632 14.7376 5.06755 15.3687C5.15595 15.5769 5.25602 15.7887 5.36775 16.0041L5.36959 16.0087C5.42395 16.113 5.50096 16.2037 5.59497 16.2743C5.68899 16.3449 5.79762 16.3936 5.91289 16.4167L5.93499 16.3946L5.97919 16.3725C6.02401 15.9569 6.06852 15.5523 6.11272 15.1588L6.11456 15.1413C6.15327 14.7764 6.24285 14.4187 6.38068 14.0786L6.38529 14.0667C6.47006 13.8692 6.58916 13.6884 6.73705 13.5326L6.73613 13.5335C6.88034 13.3813 7.00641 13.2129 7.11184 13.0316L7.11368 13.0325C7.15837 13.0564 7.19611 13.0914 7.22323 13.1342C7.25034 13.1769 7.2659 13.226 7.26839 13.2766V13.2812C7.27962 13.3881 7.30954 13.4922 7.35679 13.5887C7.46115 13.8263 7.56889 14.0713 7.68001 14.3236C7.79112 14.5759 7.90623 14.8208 8.02532 15.0584C8.27702 15.5434 8.54438 16.0207 8.82739 16.4903C9.1104 16.96 9.40783 17.4103 9.71969 17.8412C9.83756 17.9892 9.9674 18.1451 10.1092 18.309C10.251 18.4729 10.3885 18.6215 10.5218 18.7547L10.5171 18.752C10.579 18.7981 10.6439 18.8399 10.7114 18.8772L10.7133 18.8781C10.7863 18.9229 10.8441 18.9887 10.879 19.0669H10.8348V19.089L10.8256 19.0844C10.6295 18.9785 10.4555 18.8376 10.31 18.6663L10.3063 18.6626C10.1516 18.4867 9.98029 18.3256 9.78507 18.1764L9.76481 18.1626C9.38971 17.8898 9.04213 17.5811 8.72701 17.2408L8.72978 17.2436C8.413 16.9112 8.12478 16.5502 7.85313 16.1367C7.74938 15.9286 7.64931 15.7208 7.55293 15.5133C7.45655 15.3058 7.36385 15.098 7.27483 14.8899V14.8457C7.18582 14.9052 7.14499 14.9685 7.15236 15.0354V15.0336L7.1542 15.075C7.1544 15.1413 7.14254 15.2072 7.11921 15.2693L7.13118 15.2076C7.04001 15.5888 6.97371 15.9793 6.92951 16.4158V16.4176C6.92105 16.5866 6.8625 16.7492 6.76133 16.8848C6.66086 17.0195 6.52287 17.1214 6.36471 17.1779C6.19869 17.2642 6.00863 17.2928 5.82457 17.259C5.64005 17.2251 5.47214 17.1306 5.34749 16.9904C5.13293 16.774 4.93863 16.5373 4.75722 16.2657L4.77012 16.2887C4.34473 15.5886 4.07884 14.7803 4.02276 13.9005C3.99952 13.6767 3.98831 13.4503 3.98831 13.2204C3.9858 12.5227 4.09492 11.8292 4.31153 11.166L4.30417 11.1936C4.36904 10.9846 4.41617 10.7705 4.44506 10.5536L4.44598 10.5481C4.46865 10.3549 4.53716 10.1689 4.6458 10.0076C4.64344 9.95085 4.6282 9.89542 4.60124 9.84549C4.57427 9.79555 4.53629 9.7524 4.49018 9.71932L4.48742 9.71748C4.39941 9.65863 4.32398 9.58288 4.26549 9.49464C4.16235 9.34607 4.06597 9.19382 3.97634 9.03789C3.88671 8.88196 3.79739 8.72235 3.70837 8.55905L3.72587 8.59589C3.5592 8.28003 3.41554 7.94853 3.2857 7.55717C3.16661 7.19865 3.04045 6.84872 2.90723 6.5074C2.86242 6.35883 2.82528 6.22132 2.79581 6.09485L2.79305 6.08012C2.7599 5.94568 2.71478 5.81492 2.66321 5.70533L2.65584 5.686C2.56284 5.47696 2.44773 5.27898 2.31789 5.10586C2.17608 4.9131 2.03857 4.72739 1.90535 4.54875C1.72732 4.29398 1.47132 3.94405 1.13736 3.49898L1.1392 3.50174C0.977021 3.306 0.871401 3.06968 0.833749 2.81829C0.796097 2.5669 0.827845 2.31 0.925563 2.07534L0.928326 2.06613C0.986003 1.89132 1.08151 1.73137 1.20804 1.59768C1.33458 1.46398 1.48903 1.35982 1.6604 1.29262L1.65211 1.29538C1.82615 1.22658 2.01343 1.19782 2.20009 1.21121C2.38674 1.2246 2.568 1.2798 2.73043 1.37273L2.8087 1.39667C3.46183 1.62111 4.09184 1.90789 4.69 2.25306L4.69921 2.25951C4.81327 2.343 4.92185 2.43374 5.02427 2.53116C5.13023 2.63332 5.25023 2.71983 5.38064 2.78808C5.57402 2.78808 5.76709 2.79545 5.95986 2.81018L6.53907 2.85438L7.56398 3.11038L7.58792 3.1159C7.89972 3.19401 8.19889 3.31585 8.47654 3.4778C9.12973 3.86517 9.73136 4.25868 10.2814 4.65833L10.3265 4.69056C10.8521 5.07621 11.354 5.49319 11.8294 5.93923L11.8367 5.94568C12.3201 6.39985 12.7692 6.88924 13.1802 7.40983L13.1545 7.37484C13.6037 7.94815 14.0132 8.55149 14.3801 9.18063L14.3681 9.15945C14.5375 9.43412 14.6797 9.72464 14.7927 10.0269C14.9044 10.3234 15.0269 10.6202 15.1601 10.9174C15.3516 11.3637 15.5514 11.8093 15.7596 12.2544C15.9677 12.6995 16.1831 13.1375 16.406 13.5685C16.5097 13.76 16.6061 13.9598 16.6951 14.168L16.7025 14.1864C16.789 14.3855 16.8988 14.5737 17.0294 14.7472L17.0303 14.7481C17.0995 14.8283 17.1935 14.8831 17.2974 14.9037L17.3075 14.9056C17.4115 14.9313 17.5124 14.968 17.6086 15.0151C17.8757 15.1484 18.1467 15.2708 18.4217 15.3826L18.453 15.3936C18.7182 15.5031 18.9726 15.6372 19.2127 15.7942L19.2754 15.831C19.6918 16.0916 20.0947 16.3731 20.4826 16.6745C20.8964 16.9937 21.2963 17.324 21.6825 17.6653L21.6871 17.669C21.8407 17.7949 21.9777 17.9397 22.095 18.1C22.2215 18.2713 22.3292 18.4235 22.4182 18.5567V18.7124C22.3286 18.7418 22.2209 18.7753 22.095 18.8127C21.9692 18.8502 21.8467 18.8836 21.7276 18.9131L21.7506 18.9076C21.5038 18.9803 21.2451 19.0245 20.9706 19.0356H20.9651C20.7045 19.0457 20.4531 19.0899 20.2358 19.158L19.7109 19.3026L19.7321 19.2971C19.5608 19.3477 19.3822 19.3837 19.187 19.403L19.2312 19.4251L19.2348 19.4343C19.3821 19.7726 19.6509 20.0434 19.9881 20.1931C20.4037 20.4233 20.7303 20.6201 20.9679 20.7833C21.2644 21.0087 21.5502 21.2462 21.8252 21.4961L21.8298 21.4998C22.1024 21.7502 22.3517 22.0248 22.5748 22.3202L23.04 22.7635C23.0399 22.7634 23.0399 22.7633 23.0398 22.7632L23.0389 22.7623L23.037 22.7586C23.038 22.7601 23.0389 22.7617 23.0398 22.7632L23.0426 22.7659Z"/>
<path d="M5.30513 5.15006L6.18362 6.52765C7.08626 4.96942 5.4388 5.15006 5.30513 5.15006Z"/>
</mask>
<path d="M23.0426 22.7659L23.04 22.7635C23.0858 22.8401 23.1195 22.9232 23.1402 23.01L23.1411 23.0137C23.1697 23.1117 23.2291 23.1979 23.3105 23.2595V23.3037H23.3078C23.1792 23.2872 23.0612 23.2239 22.9763 23.126L22.9735 23.1214C22.9238 23.0413 22.8648 22.9676 22.7976 22.9013C22.6337 22.7828 22.463 22.6604 22.2856 22.5339C22.1084 22.4076 21.9306 22.2926 21.7521 22.1889C21.7568 22.1922 21.7616 22.1954 21.7663 22.1987L21.7515 22.1886C21.7517 22.1887 21.7519 22.1888 21.7521 22.1889C21.4817 22.0026 21.1903 21.8455 20.8519 21.7097L20.8095 21.695C20.4927 21.567 20.1888 21.4141 19.9273 21.2539L19.9052 21.2419C19.7312 21.1388 19.5636 21.0246 19.4153 20.9086C19.2533 20.7827 19.0973 20.6603 18.9475 20.5412L18.9411 20.5366C18.779 20.4178 18.6326 20.2787 18.5028 20.1185L18.5065 20.1231C18.3738 19.9684 18.256 19.8008 18.1464 19.6065L18.1492 19.612C18.1031 19.5365 18.0654 19.4555 18.0341 19.3616L18.0322 19.356C18.0018 19.2676 17.9567 19.1857 17.9005 19.1157C17.9071 19.0519 17.9347 18.9922 17.9791 18.946C18.0235 18.8998 18.0821 18.8697 18.1455 18.8606L18.163 18.8569C18.2851 18.8269 18.4045 18.7872 18.5203 18.7381L18.4834 18.751C18.9201 18.5733 19.3778 18.4526 19.8454 18.3919L19.7938 18.3974C20.3536 18.3246 20.9185 18.2978 21.4826 18.3173C21.4661 18.1687 21.3175 18.0091 21.037 17.8385C20.7564 17.6678 20.5566 17.538 20.4375 17.4489C20.1852 17.2844 19.9329 17.1095 19.6805 16.9241L19.6999 16.9379C19.4568 16.7574 19.2017 16.5916 18.9006 16.4231L18.9089 16.4277C18.7532 16.3283 18.5838 16.2491 18.3886 16.1892L18.3517 16.1791C18.1777 16.1229 18.0083 16.0594 17.8766 15.9995L17.9199 16.0152C17.6436 15.9019 17.3582 15.8061 17.0193 15.7214L17.0119 15.7205C16.732 15.6717 16.4824 15.5317 16.2955 15.3319L16.3056 15.3457C16.0819 15.0483 15.8894 14.726 15.7172 14.3521L15.2273 13.283C15.064 12.9257 14.889 12.558 14.7024 12.1798C14.5158 11.8017 14.3408 11.4269 14.1775 11.0555C14.1039 10.8762 14.0373 10.7013 13.9777 10.5306L13.9676 10.5002C13.9063 10.3313 13.8343 10.1664 13.7521 10.0066L13.7134 9.92836C13.4344 9.40716 13.1241 8.90437 12.8165 8.46973L12.788 8.42645C12.4537 7.95037 12.0881 7.49639 11.705 7.07832L11.6958 7.06727C11.3036 6.64 10.8855 6.23574 10.4251 5.84162L10.4407 5.85451C9.99963 5.47604 9.53092 5.1298 8.98853 4.79185C8.66194 4.58374 8.31662 4.38698 7.95258 4.20158L7.99033 4.21908C7.62936 4.03215 7.24905 3.87652 6.80612 3.74484L6.82822 3.75129C6.59064 3.6721 6.34109 3.62145 6.07128 3.60027C5.80423 3.57755 5.55192 3.5662 5.31434 3.5662H5.00217C4.86834 3.47657 4.74218 3.38725 4.6237 3.29823C4.5074 3.21085 4.3908 3.13057 4.27391 3.05739C4.27724 3.0597 4.28058 3.06202 4.28391 3.06433L4.26733 3.05328C4.26952 3.05465 4.27172 3.05602 4.27391 3.05739C4.05584 2.90639 3.82487 2.77045 3.55459 2.64166C3.3164 2.53055 3.05641 2.41544 2.77463 2.29634L1.54806 2.67297L1.5499 2.6831C1.57563 2.78708 1.61237 2.88802 1.65948 2.98422L1.66777 3.00264C1.77489 3.21868 1.90652 3.42168 2.06005 3.60764C2.20739 3.78628 2.35595 3.97199 2.50574 4.16475C2.62361 4.3434 2.75744 4.53278 2.90723 4.73292L2.90601 4.73129C3.04746 4.92033 3.16653 5.12513 3.26084 5.3416L3.2369 5.28266C3.44055 5.7301 3.60866 6.19288 3.73968 6.6667L3.75994 6.74866C3.87917 7.1727 4.02495 7.58883 4.19643 7.99457C4.27071 8.1591 4.35604 8.32608 4.45242 8.49551C4.54881 8.66495 4.64887 8.82456 4.75262 8.97436L4.75538 8.97804C4.85071 9.0881 4.9538 9.1912 5.06387 9.28652L5.06479 9.28744C5.18026 9.38763 5.26489 9.51856 5.30881 9.66499C5.39783 9.81294 5.36806 10.0803 5.21949 10.4671C5.07322 10.8478 4.97754 11.1203 4.93243 11.2845L4.94139 11.2516C4.71957 11.9401 4.6302 12.6644 4.67803 13.3862V13.3944C4.69459 14.0699 4.82632 14.7376 5.06755 15.3687C5.15595 15.5769 5.25602 15.7887 5.36775 16.0041L5.36959 16.0087C5.42395 16.113 5.50096 16.2037 5.59497 16.2743C5.68899 16.3449 5.79762 16.3936 5.91289 16.4167L5.93499 16.3946L5.97919 16.3725C6.02401 15.9569 6.06852 15.5523 6.11272 15.1588L6.11456 15.1413C6.15327 14.7764 6.24285 14.4187 6.38068 14.0786L6.38529 14.0667C6.47006 13.8692 6.58916 13.6884 6.73705 13.5326L6.73613 13.5335C6.88034 13.3813 7.00641 13.2129 7.11184 13.0316L7.11368 13.0325C7.15837 13.0564 7.19611 13.0914 7.22323 13.1342C7.25034 13.1769 7.2659 13.226 7.26839 13.2766V13.2812C7.27962 13.3881 7.30954 13.4922 7.35679 13.5887C7.46115 13.8263 7.56889 14.0713 7.68001 14.3236C7.79112 14.5759 7.90623 14.8208 8.02532 15.0584C8.27702 15.5434 8.54438 16.0207 8.82739 16.4903C9.1104 16.96 9.40783 17.4103 9.71969 17.8412C9.83756 17.9892 9.9674 18.1451 10.1092 18.309C10.251 18.4729 10.3885 18.6215 10.5218 18.7547L10.5171 18.752C10.579 18.7981 10.6439 18.8399 10.7114 18.8772L10.7133 18.8781C10.7863 18.9229 10.8441 18.9887 10.879 19.0669H10.8348V19.089L10.8256 19.0844C10.6295 18.9785 10.4555 18.8376 10.31 18.6663L10.3063 18.6626C10.1516 18.4867 9.98029 18.3256 9.78507 18.1764L9.76481 18.1626C9.38971 17.8898 9.04213 17.5811 8.72701 17.2408L8.72978 17.2436C8.413 16.9112 8.12478 16.5502 7.85313 16.1367C7.74938 15.9286 7.64931 15.7208 7.55293 15.5133C7.45655 15.3058 7.36385 15.098 7.27483 14.8899V14.8457C7.18582 14.9052 7.14499 14.9685 7.15236 15.0354V15.0336L7.1542 15.075C7.1544 15.1413 7.14254 15.2072 7.11921 15.2693L7.13118 15.2076C7.04001 15.5888 6.97371 15.9793 6.92951 16.4158V16.4176C6.92105 16.5866 6.8625 16.7492 6.76133 16.8848C6.66086 17.0195 6.52287 17.1214 6.36471 17.1779C6.19869 17.2642 6.00863 17.2928 5.82457 17.259C5.64005 17.2251 5.47214 17.1306 5.34749 16.9904C5.13293 16.774 4.93863 16.5373 4.75722 16.2657L4.77012 16.2887C4.34473 15.5886 4.07884 14.7803 4.02276 13.9005C3.99952 13.6767 3.98831 13.4503 3.98831 13.2204C3.9858 12.5227 4.09492 11.8292 4.31153 11.166L4.30417 11.1936C4.36904 10.9846 4.41617 10.7705 4.44506 10.5536L4.44598 10.5481C4.46865 10.3549 4.53716 10.1689 4.6458 10.0076C4.64344 9.95085 4.6282 9.89542 4.60124 9.84549C4.57427 9.79555 4.53629 9.7524 4.49018 9.71932L4.48742 9.71748C4.39941 9.65863 4.32398 9.58288 4.26549 9.49464C4.16235 9.34607 4.06597 9.19382 3.97634 9.03789C3.88671 8.88196 3.79739 8.72235 3.70837 8.55905L3.72587 8.59589C3.5592 8.28003 3.41554 7.94853 3.2857 7.55717C3.16661 7.19865 3.04045 6.84872 2.90723 6.5074C2.86242 6.35883 2.82528 6.22132 2.79581 6.09485L2.79305 6.08012C2.7599 5.94568 2.71478 5.81492 2.66321 5.70533L2.65584 5.686C2.56284 5.47696 2.44773 5.27898 2.31789 5.10586C2.17608 4.9131 2.03857 4.72739 1.90535 4.54875C1.72732 4.29398 1.47132 3.94405 1.13736 3.49898L1.1392 3.50174C0.977021 3.306 0.871401 3.06968 0.833749 2.81829C0.796097 2.5669 0.827845 2.31 0.925563 2.07534L0.928326 2.06613C0.986003 1.89132 1.08151 1.73137 1.20804 1.59768C1.33458 1.46398 1.48903 1.35982 1.6604 1.29262L1.65211 1.29538C1.82615 1.22658 2.01343 1.19782 2.20009 1.21121C2.38674 1.2246 2.568 1.2798 2.73043 1.37273L2.8087 1.39667C3.46183 1.62111 4.09184 1.90789 4.69 2.25306L4.69921 2.25951C4.81327 2.343 4.92185 2.43374 5.02427 2.53116C5.13023 2.63332 5.25023 2.71983 5.38064 2.78808C5.57402 2.78808 5.76709 2.79545 5.95986 2.81018L6.53907 2.85438L7.56398 3.11038L7.58792 3.1159C7.89972 3.19401 8.19889 3.31585 8.47654 3.4778C9.12973 3.86517 9.73136 4.25868 10.2814 4.65833L10.3265 4.69056C10.8521 5.07621 11.354 5.49319 11.8294 5.93923L11.8367 5.94568C12.3201 6.39985 12.7692 6.88924 13.1802 7.40983L13.1545 7.37484C13.6037 7.94815 14.0132 8.55149 14.3801 9.18063L14.3681 9.15945C14.5375 9.43412 14.6797 9.72464 14.7927 10.0269C14.9044 10.3234 15.0269 10.6202 15.1601 10.9174C15.3516 11.3637 15.5514 11.8093 15.7596 12.2544C15.9677 12.6995 16.1831 13.1375 16.406 13.5685C16.5097 13.76 16.6061 13.9598 16.6951 14.168L16.7025 14.1864C16.789 14.3855 16.8988 14.5737 17.0294 14.7472L17.0303 14.7481C17.0995 14.8283 17.1935 14.8831 17.2974 14.9037L17.3075 14.9056C17.4115 14.9313 17.5124 14.968 17.6086 15.0151C17.8757 15.1484 18.1467 15.2708 18.4217 15.3826L18.453 15.3936C18.7182 15.5031 18.9726 15.6372 19.2127 15.7942L19.2754 15.831C19.6918 16.0916 20.0947 16.3731 20.4826 16.6745C20.8964 16.9937 21.2963 17.324 21.6825 17.6653L21.6871 17.669C21.8407 17.7949 21.9777 17.9397 22.095 18.1C22.2215 18.2713 22.3292 18.4235 22.4182 18.5567V18.7124C22.3286 18.7418 22.2209 18.7753 22.095 18.8127C21.9692 18.8502 21.8467 18.8836 21.7276 18.9131L21.7506 18.9076C21.5038 18.9803 21.2451 19.0245 20.9706 19.0356H20.9651C20.7045 19.0457 20.4531 19.0899 20.2358 19.158L19.7109 19.3026L19.7321 19.2971C19.5608 19.3477 19.3822 19.3837 19.187 19.403L19.2312 19.4251L19.2348 19.4343C19.3821 19.7726 19.6509 20.0434 19.9881 20.1931C20.4037 20.4233 20.7303 20.6201 20.9679 20.7833C21.2644 21.0087 21.5502 21.2462 21.8252 21.4961L21.8298 21.4998C22.1024 21.7502 22.3517 22.0248 22.5748 22.3202L23.04 22.7635C23.0399 22.7634 23.0399 22.7633 23.0398 22.7632L23.0389 22.7623L23.037 22.7586C23.038 22.7601 23.0389 22.7617 23.0398 22.7632L23.0426 22.7659Z" fill="url(#paint0_linear_563_6767)"/>
<path d="M5.30513 5.15006L6.18362 6.52765C7.08626 4.96942 5.4388 5.15006 5.30513 5.15006Z" fill="url(#paint1_linear_563_6767)"/>
<path d="M4.02276 13.9005L3.77307 13.9164L3.7741 13.9263L4.02276 13.9005ZM4.02515 13.923L3.77658 13.9497L4.27399 13.8989L4.02515 13.923ZM4.02239 13.8945L4.27122 13.8704L3.77288 13.9101L4.02239 13.8945ZM6.36471 17.1779L6.4488 17.4134L6.46479 17.4077L6.47986 17.3998L6.36471 17.1779ZM6.36595 17.1773L6.48161 17.3989L6.27315 16.9452L6.36595 17.1773ZM6.36135 17.1791L6.26855 16.947L6.44443 17.4149L6.36135 17.1791ZM3.7741 13.9263C3.77491 13.9341 3.77574 13.9419 3.77658 13.9497L4.27371 13.8963C4.27294 13.8891 4.27218 13.8819 4.27143 13.8746L3.7741 13.9263ZM4.27399 13.8989L4.27122 13.8704L3.77355 13.9185L3.77631 13.9471L4.27399 13.8989ZM3.77288 13.9101C3.77301 13.9122 3.77314 13.9143 3.77327 13.9164L4.27226 13.8846C4.27214 13.8827 4.27202 13.8808 4.2719 13.8788L3.77288 13.9101ZM6.47986 17.3998C6.48053 17.3995 6.48114 17.3992 6.48161 17.3989L6.25029 16.9557C6.24993 16.9558 6.24971 16.956 6.24955 16.956L6.47986 17.3998ZM6.27315 16.9452L6.26855 16.947L6.45414 17.4113L6.45875 17.4094L6.27315 16.9452ZM6.44443 17.4149C6.44594 17.4144 6.44741 17.4139 6.4488 17.4134L6.28061 16.9425C6.27977 16.9428 6.27899 16.9431 6.27827 16.9433L6.44443 17.4149ZM4.69124 11.2187L4.68915 11.2264L5.17154 11.3579L5.17362 11.3503L4.69124 11.2187ZM3.10619 4.58153C3.10464 4.57945 3.10309 4.57738 3.10154 4.57532L2.70188 4.87578C2.70321 4.87754 2.70452 4.8793 2.70584 4.88105L3.10619 4.58153ZM2.89269 2.07318L2.85954 2.06121L2.68972 2.53148L2.72287 2.54345L2.89269 2.07318ZM23.0426 22.7659L22.6978 23.128L23.3961 22.4124L23.0426 22.7659ZM22.5748 22.3202L22.1757 22.6215L22.2003 22.6541L22.2299 22.6823L22.5748 22.3202ZM21.8298 21.4998L22.1681 21.1316L22.1555 21.12L22.1421 21.1093L21.8298 21.4998ZM21.8252 21.4961L21.489 21.8662L21.5006 21.8767L21.5129 21.8865L21.8252 21.4961ZM20.9679 20.7833L21.2704 20.3852L21.2609 20.378L21.2511 20.3713L20.9679 20.7833ZM19.9881 20.1931L20.2304 19.7557L20.2111 19.745L20.191 19.7361L19.9881 20.1931ZM19.2348 19.4343L18.7706 19.62L18.7734 19.6269L18.7764 19.6338L19.2348 19.4343ZM19.2312 19.4251L19.6954 19.2394L19.6248 19.0629L19.4548 18.9779L19.2312 19.4251ZM19.187 19.403L19.1377 18.9054L17.4151 19.0761L18.9634 19.8502L19.187 19.403ZM19.7321 19.2971L19.8739 19.7766L19.6059 18.8133L19.7321 19.2971ZM19.7109 19.3026L19.5781 18.8206L19.8371 19.7864L19.7109 19.3026ZM20.2358 19.158L20.3686 19.6401L20.377 19.6378L20.3854 19.6351L20.2358 19.158ZM20.9651 19.0356V18.5356H20.9554L20.9457 18.536L20.9651 19.0356ZM20.9706 19.0356V19.5356H20.9807L20.9908 19.5352L20.9706 19.0356ZM21.7506 18.9076L21.892 19.3872L21.6339 18.4214L21.7506 18.9076ZM21.7276 18.9131L21.6075 18.4277L21.8443 19.3993L21.7276 18.9131ZM22.095 18.8127L21.9524 18.3335L21.9524 18.3335L22.095 18.8127ZM22.4182 18.7124L22.5744 19.1873L22.9182 19.0743V18.7124H22.4182ZM22.4182 18.5567H22.9182V18.4051L22.834 18.2789L22.4182 18.5567ZM22.095 18.1L21.6915 18.3953L21.6928 18.397L22.095 18.1ZM21.6871 17.669L22.0041 17.2823L21.9996 17.2787L21.6871 17.669ZM21.6825 17.6653L21.3513 18.04L21.3605 18.048L21.37 18.0557L21.6825 17.6653ZM20.4826 16.6745L20.1758 17.0693L20.1772 17.0704L20.4826 16.6745ZM19.2754 15.831L19.5407 15.407L19.5289 15.4L19.2754 15.831ZM19.2127 15.7942L18.9392 16.2127L18.9491 16.2192L18.9592 16.2251L19.2127 15.7942ZM18.453 15.3936L18.6438 14.9314L18.6318 14.9265L18.6195 14.9221L18.453 15.3936ZM18.4217 15.3826L18.2335 15.8458L18.2443 15.8502L18.2553 15.8541L18.4217 15.3826ZM17.6086 15.0151L17.8318 14.5677L17.8286 14.5661L17.6086 15.0151ZM17.3075 14.9056L17.4276 14.4202L17.4124 14.4164L17.397 14.4136L17.3075 14.9056ZM17.2974 14.9037L17.1998 15.3942L17.2079 15.3956L17.2974 14.9037ZM17.0303 14.7481L17.4089 14.4215L17.3968 14.4074L17.3837 14.3944L17.0303 14.7481ZM17.0294 14.7472L16.63 15.048L16.6512 15.0761L16.676 15.1009L17.0294 14.7472ZM16.7025 14.1864L16.2383 14.3721L16.241 14.3789L16.2439 14.3857L16.7025 14.1864ZM16.6951 14.168L17.1595 13.9822L17.1549 13.9713L16.6951 14.168ZM16.406 13.5685L15.9618 13.7982L15.9663 13.8066L16.406 13.5685ZM15.7596 12.2544L16.2125 12.0426L16.2125 12.0426L15.7596 12.2544ZM15.1601 10.9174L15.6196 10.7201L15.6163 10.7128L15.1601 10.9174ZM14.7927 10.0269L14.3243 10.202L14.3248 10.2032L14.7927 10.0269ZM14.3681 9.15945L14.7938 8.89705L13.9329 9.40548L14.3681 9.15945ZM14.3801 9.18063L13.9482 9.43254L14.8154 8.9346L14.3801 9.18063ZM13.1545 7.37484L13.548 7.06646L12.7519 7.67143L13.1545 7.37484ZM13.1802 7.40983L12.7878 7.71967L13.5828 7.11323L13.1802 7.40983ZM11.8367 5.94568L12.1791 5.58127L12.1726 5.57521L12.166 5.56938L11.8367 5.94568ZM11.8294 5.93923L11.4872 6.30387L11.4936 6.30981L11.5001 6.31553L11.8294 5.93923ZM10.3265 4.69056L10.6224 4.28741L10.6172 4.28369L10.3265 4.69056ZM10.2814 4.65833L9.9875 5.06284L9.99079 5.06519L10.2814 4.65833ZM8.47654 3.4778L8.73159 3.04772L8.72845 3.04589L8.47654 3.4778ZM7.58792 3.1159L7.70945 2.63081L7.70035 2.62871L7.58792 3.1159ZM7.56398 3.11038L7.44279 3.59555L7.45155 3.59757L7.56398 3.11038ZM6.53907 2.85438L6.66024 2.36928L6.61924 2.35904L6.57712 2.35583L6.53907 2.85438ZM5.95986 2.81018L5.92175 3.30872L5.92181 3.30873L5.95986 2.81018ZM5.38064 2.78808L5.14879 3.23108L5.25771 3.28808H5.38064V2.78808ZM5.02427 2.53116L5.37131 2.17119L5.36888 2.16888L5.02427 2.53116ZM4.69921 2.25951L4.9946 1.85595L4.98593 1.84989L4.69921 2.25951ZM4.69 2.25306L4.97672 1.84344L4.95883 1.83091L4.9399 1.81999L4.69 2.25306ZM2.8087 1.39667L2.97119 0.923812L2.96312 0.921037L2.95496 0.91854L2.8087 1.39667ZM2.73043 1.37273L2.48214 1.80672L2.53069 1.8345L2.58418 1.85086L2.73043 1.37273ZM2.20009 1.21121L2.23586 0.712487L2.20009 1.21121ZM1.65211 1.29538L1.46831 0.83039L1.81023 1.76972L1.65211 1.29538ZM1.6604 1.29262L1.84295 1.7581L1.50229 0.818274L1.6604 1.29262ZM1.20804 1.59768L1.57119 1.94137L1.20804 1.59768ZM0.928326 2.06613L0.453327 1.90941L0.449413 1.92246L0.928326 2.06613ZM0.925563 2.07534L1.38714 2.26755L1.39706 2.24373L1.40448 2.21901L0.925563 2.07534ZM0.833749 2.81829L0.339264 2.89235H0.339264L0.833749 2.81829ZM1.1392 3.50174L0.75419 3.82075L1.55523 3.22439L1.1392 3.50174ZM1.13736 3.49898L1.53729 3.19889L0.721333 3.77632L1.13736 3.49898ZM1.90535 4.54875L1.4955 4.83514L1.49992 4.84146L1.50452 4.84764L1.90535 4.54875ZM2.31789 5.10586L1.91512 5.40217L1.91789 5.40586L2.31789 5.10586ZM2.65584 5.686L3.12309 5.508L3.11822 5.49523L3.11267 5.48274L2.65584 5.686ZM2.66321 5.70533L2.19597 5.88333L2.20272 5.90106L2.2108 5.91823L2.66321 5.70533ZM2.79305 6.08012L3.28449 5.98798L3.28189 5.97411L3.27851 5.96042L2.79305 6.08012ZM2.79581 6.09485L2.30438 6.187L2.30638 6.19771L2.30886 6.20832L2.79581 6.09485ZM2.90723 6.5074L2.42854 6.65179L2.43426 6.67075L2.44145 6.68919L2.90723 6.5074ZM3.2857 7.55717L3.76027 7.39972L3.76021 7.39954L3.2857 7.55717ZM3.72587 8.59589L3.28366 8.82924L4.17751 8.38135L3.72587 8.59589ZM3.70837 8.55905L4.14739 8.31974L3.25674 8.77358L3.70837 8.55905ZM3.97634 9.03789L4.40983 8.78872L4.40983 8.78872L3.97634 9.03789ZM4.26549 9.49464L4.68236 9.21835L4.67622 9.2095L4.26549 9.49464ZM4.48742 9.71748L4.20947 10.1331L4.20998 10.1335L4.48742 9.71748ZM4.49018 9.71932L4.78162 9.31305L4.7747 9.30808L4.76761 9.30335L4.49018 9.71932ZM4.60124 9.84549L4.16127 10.083L4.16127 10.083L4.60124 9.84549ZM4.6458 10.0076L5.06057 10.2868L5.1522 10.1507L5.14537 9.98674L4.6458 10.0076ZM4.44598 10.5481L4.93917 10.6303L4.94116 10.6184L4.94257 10.6063L4.44598 10.5481ZM4.44506 10.5536L3.95186 10.4714L3.95051 10.4795L3.94943 10.4876L4.44506 10.5536ZM4.30417 11.1936L3.82105 11.0648L4.78169 11.3418L4.30417 11.1936ZM4.31153 11.166L4.79465 11.2948L3.83624 11.0107L4.31153 11.166ZM3.98831 13.2204H4.48832L4.48831 13.2186L3.98831 13.2204ZM4.02276 13.9005L4.52175 13.8687L4.52112 13.8587L4.52009 13.8488L4.02276 13.9005ZM4.77012 16.2887L4.34281 16.5483L5.20637 16.0444L4.77012 16.2887ZM4.75722 16.2657L5.17303 15.988L4.32097 16.51L4.75722 16.2657ZM5.34749 16.9904L5.72117 16.6582L5.71213 16.648L5.70255 16.6383L5.34749 16.9904ZM5.82457 17.259L5.73431 17.7508H5.73431L5.82457 17.259ZM6.36471 17.1779L6.19652 16.7071L6.16438 16.7186L6.13409 16.7343L6.36471 17.1779ZM6.76133 16.8848L7.16208 17.1838H7.16208L6.76133 16.8848ZM6.92951 16.4176L7.42889 16.4426L7.42951 16.4301V16.4176H6.92951ZM6.92951 16.4158L6.43206 16.3654L6.42951 16.3905V16.4158H6.92951ZM7.13118 15.2076L7.62202 15.3028L6.64489 15.0913L7.13118 15.2076ZM7.11921 15.2693L6.62836 15.1741L7.58727 15.4451L7.11921 15.2693ZM7.1542 15.075L7.6542 15.0735L7.65417 15.0631L7.65371 15.0528L7.1542 15.075ZM7.15236 15.0336L7.65187 15.0114L6.65236 15.0336H7.15236ZM7.15236 15.0354L6.65536 15.0901L7.65236 15.0354H7.15236ZM7.27483 14.8457H7.77483V13.9097L6.99682 14.4301L7.27483 14.8457ZM7.27483 14.8899H6.77483V14.9923L6.81512 15.0865L7.27483 14.8899ZM7.55293 15.5133L8.0064 15.3027L8.0064 15.3027L7.55293 15.5133ZM7.85313 16.1367L7.40565 16.3598L7.41892 16.3864L7.43525 16.4113L7.85313 16.1367ZM8.72978 17.2436L8.37616 17.5971L9.09175 16.8987L8.72978 17.2436ZM8.72701 17.2408L9.08063 16.8873L8.36015 17.5806L8.72701 17.2408ZM9.76481 18.1626L9.47076 18.567L9.47688 18.5715L9.48314 18.5757L9.76481 18.1626ZM9.78507 18.1764L10.0887 17.7791L10.0779 17.7709L10.0667 17.7633L9.78507 18.1764ZM10.3063 18.6626L9.93084 18.9929L9.94141 19.0049L9.95272 19.0162L10.3063 18.6626ZM10.31 18.6663L10.691 18.3426L10.6779 18.3271L10.6635 18.3128L10.31 18.6663ZM10.8256 19.0844L10.5881 19.5243L10.595 19.5281L10.602 19.5316L10.8256 19.0844ZM10.8348 19.089L10.6112 19.5362L11.3348 19.898V19.089H10.8348ZM10.8348 19.0669V18.5669H10.3348V19.0669H10.8348ZM10.879 19.0669V19.5669H11.6501L11.3356 18.8629L10.879 19.0669ZM10.7133 18.8781L10.9746 18.4518L10.9562 18.4406L10.937 18.4309L10.7133 18.8781ZM10.7114 18.8772L10.47 19.3151L10.4788 19.3199L10.4877 19.3244L10.7114 18.8772ZM10.5171 18.752L10.7745 18.3233L10.2181 19.1526L10.5171 18.752ZM10.5218 18.7547L10.2644 19.1834L10.8753 18.4012L10.5218 18.7547ZM9.71969 17.8412L9.31462 18.1344L9.32141 18.1437L9.32863 18.1528L9.71969 17.8412ZM8.82739 16.4903L8.39914 16.7484L8.82739 16.4903ZM8.02532 15.0584L7.5783 15.2825L7.58153 15.2887L8.02532 15.0584ZM7.68001 14.3236L8.1376 14.1221L7.68001 14.3236ZM7.35679 13.5887L7.81457 13.3876L7.81043 13.3782L7.8059 13.369L7.35679 13.5887ZM7.26839 13.2812H6.76839V13.3074L6.77112 13.3334L7.26839 13.2812ZM7.26839 13.2766H7.76839V13.2643L7.76778 13.252L7.26839 13.2766ZM7.11368 13.0325L7.34901 12.5912L7.33738 12.5854L7.11368 13.0325ZM7.11184 13.0316L7.33554 12.5845L6.91569 12.3744L6.67964 12.7802L7.11184 13.0316ZM6.73613 13.5335L6.37316 13.1896L7.0896 13.8871L6.73613 13.5335ZM6.73705 13.5326L7.09973 13.8768L6.38359 13.1789L6.73705 13.5326ZM6.38529 14.0667L5.92585 13.8694L5.92207 13.8782L5.91862 13.8872L6.38529 14.0667ZM6.38068 14.0786L6.84414 14.2665L6.84735 14.2581L6.38068 14.0786ZM6.11456 15.1413L5.61735 15.0885L5.61731 15.089L6.11456 15.1413ZM6.11272 15.1588L6.6096 15.2146L6.60997 15.2111L6.11272 15.1588ZM5.97919 16.3725L6.2028 16.8197L6.44704 16.6976L6.47631 16.4261L5.97919 16.3725ZM5.93499 16.3946L5.71138 15.9474L5.63882 15.9836L5.58144 16.041L5.93499 16.3946ZM5.91289 16.4167L5.81457 16.9069L6.07711 16.9596L6.26644 16.7702L5.91289 16.4167ZM5.59497 16.2743L5.29476 16.6742L5.29476 16.6742L5.59497 16.2743ZM5.36959 16.0087L4.90536 16.1944L4.91466 16.2177L4.92624 16.2399L5.36959 16.0087ZM5.36775 16.0041L5.83198 15.8184L5.82289 15.7957L5.81163 15.774L5.36775 16.0041ZM5.06755 15.3687L4.6005 15.5473L4.60377 15.5558L4.60735 15.5642L5.06755 15.3687ZM4.67803 13.3944H4.17788L4.17818 13.4067L4.67803 13.3944ZM4.67803 13.3862H5.17803V13.3696L5.17694 13.3531L4.67803 13.3862ZM4.94139 11.2516L5.42378 11.3832L4.46549 11.0983L4.94139 11.2516ZM4.93243 11.2845L4.45005 11.1529L5.41457 11.4169L4.93243 11.2845ZM5.21949 10.4671L4.75274 10.2878L5.21949 10.4671ZM5.30881 9.66499L4.82989 9.80865L4.84796 9.86888L4.88038 9.92276L5.30881 9.66499ZM5.06479 9.28744L4.71133 9.64109L4.7238 9.65356L4.73712 9.66512L5.06479 9.28744ZM5.06387 9.28652L5.41733 8.93288L5.40471 8.92026L5.39121 8.90857L5.06387 9.28652ZM4.75538 8.97804L4.35538 9.27804L4.36593 9.2921L4.37743 9.30538L4.75538 8.97804ZM4.75262 8.97436L4.34159 9.25905L4.34696 9.26681L4.35262 9.27436L4.75262 8.97436ZM4.45242 8.49551L4.01782 8.74273L4.01782 8.74273L4.45242 8.49551ZM4.19643 7.99457L3.73573 8.18927L3.74072 8.20032L4.19643 7.99457ZM3.75994 6.74866L3.27455 6.86864L3.27646 6.87635L3.27861 6.884L3.75994 6.74866ZM3.73968 6.6667L4.22526 6.54667L4.2216 6.53344L3.73968 6.6667ZM3.2369 5.28266L3.69198 5.07554L2.77367 5.47085L3.2369 5.28266ZM3.26084 5.3416L2.80246 5.54132L3.72407 5.15341L3.26084 5.3416ZM2.90601 4.73129L3.30599 4.43126L2.50567 5.03082L2.90601 4.73129ZM2.90723 4.73292L2.50726 5.03294L3.30753 4.43331L2.90723 4.73292ZM2.50574 4.16475L2.92309 3.88939L2.91243 3.87324L2.90056 3.85795L2.50574 4.16475ZM2.06005 3.60764L2.44579 3.2895L2.44562 3.2893L2.06005 3.60764ZM1.66777 3.00264L1.21181 3.20782L1.21565 3.21636L1.21981 3.22475L1.66777 3.00264ZM1.65948 2.98422L2.11544 2.77904L2.1121 2.77161L2.10852 2.76429L1.65948 2.98422ZM1.5499 2.6831L1.05797 2.77255L1.06077 2.78798L1.06454 2.80321L1.5499 2.6831ZM1.54806 2.67297L1.40129 2.195L0.976662 2.32538L1.05612 2.76242L1.54806 2.67297ZM2.77463 2.29634L2.96929 1.83579L2.80175 1.76498L2.62787 1.81837L2.77463 2.29634ZM3.55459 2.64166L3.76968 2.19027L3.76597 2.18854L3.55459 2.64166ZM4.28391 3.06433L4.00656 3.48036L4.5695 2.65392L4.28391 3.06433ZM4.26733 3.05328L4.53194 2.62904L3.98998 3.46931L4.26733 3.05328ZM4.6237 3.29823L4.32337 3.69798L4.6237 3.29823ZM5.00217 3.5662L4.72394 3.98164L4.85021 4.0662H5.00217V3.5662ZM6.07128 3.60027L6.0289 4.09848L6.03215 4.09874L6.07128 3.60027ZM6.82822 3.75129L6.68822 4.23129L6.98633 3.27695L6.82822 3.75129ZM6.80612 3.74484L6.94612 3.26484L6.66363 4.22411L6.80612 3.74484ZM7.99033 4.21908L7.78011 4.67274L8.22026 3.77508L7.99033 4.21908ZM7.95258 4.20158L8.1628 3.74793L7.72567 4.64713L7.95258 4.20158ZM8.98853 4.79185L8.71983 5.21354L8.72412 5.21621L8.98853 4.79185ZM10.4407 5.85451L10.1229 6.24047L10.7663 5.47505L10.4407 5.85451ZM10.4251 5.84162L10.7429 5.45566L10.0999 6.22146L10.4251 5.84162ZM11.6958 7.06727L12.0799 6.74718L12.0723 6.73796L12.0642 6.72912L11.6958 7.06727ZM11.705 7.07832L11.3209 7.39842L11.3285 7.40745L11.3364 7.41611L11.705 7.07832ZM12.788 8.42645L13.2054 8.15115L13.2014 8.14508L13.1972 8.13913L12.788 8.42645ZM12.8165 8.46973L12.3991 8.74503L12.4036 8.75186L12.4084 8.75855L12.8165 8.46973ZM13.7134 9.92836L14.1617 9.70686L14.1581 9.69956L14.1542 9.69238L13.7134 9.92836ZM13.7521 10.0066L13.3038 10.2282L13.3075 10.2354L13.7521 10.0066ZM13.9676 10.5002L14.4421 10.342L14.4376 10.3297L13.9676 10.5002ZM13.9777 10.5306L13.5033 10.6887L13.5056 10.6953L13.9777 10.5306ZM14.1775 11.0555L13.7149 11.2456L13.7198 11.2567L14.1775 11.0555ZM14.7024 12.1798L14.254 12.4011V12.4011L14.7024 12.1798ZM15.2273 13.283L14.7725 13.4909L14.7728 13.4913L15.2273 13.283ZM15.7172 14.3521L15.2626 14.5604L15.2631 14.5613L15.7172 14.3521ZM16.3056 15.3457L15.9061 15.6463L16.7088 15.0501L16.3056 15.3457ZM16.2955 15.3319L16.6606 14.9903L15.8923 15.6276L16.2955 15.3319ZM17.0119 15.7205L16.926 16.2131L16.9379 16.2151L16.9499 16.2166L17.0119 15.7205ZM17.0193 15.7214L17.1405 15.2364L17.1113 15.229L17.0813 15.2253L17.0193 15.7214ZM17.9199 16.0152L17.7498 16.4854L18.1095 15.5526L17.9199 16.0152ZM17.8766 15.9995L18.0467 15.5293L17.6697 16.4547L17.8766 15.9995ZM18.3517 16.1791L18.1982 16.6549L18.2086 16.6583L18.2192 16.6612L18.3517 16.1791ZM18.3886 16.1892L18.5351 15.7112L18.5282 15.7091L18.5212 15.7071L18.3886 16.1892ZM18.9089 16.4277L18.666 16.8648L19.1781 16.0064L18.9089 16.4277ZM18.9006 16.4231L19.1434 15.986L18.6564 16.8594L18.9006 16.4231ZM19.6999 16.9379L19.4093 17.3447L19.9979 16.5364L19.6999 16.9379ZM19.6805 16.9241L19.9712 16.5172L19.3845 17.327L19.6805 16.9241ZM20.4375 17.4489L20.7368 17.0485L20.724 17.0389L20.7106 17.0301L20.4375 17.4489ZM21.4826 18.3173L21.4653 18.817L22.0437 18.8371L21.9796 18.2619L21.4826 18.3173ZM19.7938 18.3974L19.7293 17.9016L19.8471 18.8946L19.7938 18.3974ZM19.8454 18.3919L19.9098 18.8877L19.7921 17.8947L19.8454 18.3919ZM18.4834 18.751L18.2949 18.2879L18.6486 19.223L18.4834 18.751ZM18.5203 18.7381L18.7155 19.1985L18.3551 18.2662L18.5203 18.7381ZM18.163 18.8569L18.266 19.3462L18.2741 19.3445L18.2823 19.3425L18.163 18.8569ZM18.1455 18.8606L18.2166 19.3555L18.2326 19.3532L18.2485 19.3499L18.1455 18.8606ZM17.9791 18.946L17.6185 18.5997V18.5997L17.9791 18.946ZM17.9005 19.1157L17.4031 19.0647L17.3822 19.2687L17.5106 19.4287L17.9005 19.1157ZM18.0322 19.356L18.5066 19.1979L18.5051 19.1935L18.0322 19.356ZM18.0341 19.3616L18.5084 19.2034L18.5084 19.2034L18.0341 19.3616ZM18.1492 19.612L17.7223 19.8723L18.5964 19.3884L18.1492 19.612ZM18.1464 19.6065L18.5819 19.3609L17.6992 19.8301L18.1464 19.6065ZM18.5065 20.1231L18.1268 20.4485L18.8968 19.8107L18.5065 20.1231ZM18.5028 20.1185L18.8912 19.8037L18.1124 20.4309L18.5028 20.1185ZM18.9411 20.5366L18.6455 20.9399L18.6504 20.9433L18.9411 20.5366ZM18.9475 20.5412L19.2587 20.1498L19.2487 20.1418L19.2383 20.1344L18.9475 20.5412ZM19.4153 20.9086L19.7235 20.5148L19.722 20.5137L19.4153 20.9086ZM19.9052 21.2419L19.6503 21.6721L19.6586 21.677L19.6671 21.6816L19.9052 21.2419ZM19.9273 21.2539L20.1885 20.8276L20.1772 20.8206L20.1655 20.8143L19.9273 21.2539ZM20.8095 21.695L20.6222 22.1586L20.6336 22.1632L20.6453 22.1672L20.8095 21.695ZM20.8519 21.7097L21.038 21.2457L21.0271 21.2413L21.0161 21.2375L20.8519 21.7097ZM21.7663 22.1987L21.483 22.6107L22.0515 21.788L21.7663 22.1987ZM21.7515 22.1886L22.0032 21.7565L21.4683 22.6006L21.7515 22.1886ZM22.2856 22.5339L21.9954 22.941H21.9954L22.2856 22.5339ZM22.7976 22.9013L23.1487 22.5453L23.1215 22.5185L23.0905 22.4961L22.7976 22.9013ZM22.9735 23.1214L23.4023 22.8641L23.3983 22.8577L22.9735 23.1214ZM22.9763 23.126L22.5475 23.3833L22.5699 23.4206L22.5985 23.4535L22.9763 23.126ZM23.3078 23.3037L23.2441 23.7996L23.2758 23.8037H23.3078V23.3037ZM23.3105 23.3037V23.8037H23.8105V23.3037H23.3105ZM23.3105 23.2595H23.8105V23.0109L23.6122 22.8608L23.3105 23.2595ZM23.1411 23.0137L22.656 23.135L22.6584 23.1444L22.6611 23.1536L23.1411 23.0137ZM23.1402 23.01L22.6537 23.1256L22.6551 23.1313L23.1402 23.01ZM23.037 22.7586L23.4646 22.4993L22.5898 22.9822L23.037 22.7586ZM23.0389 22.7623L22.5917 22.9859L22.628 23.0584L22.6853 23.1158L23.0389 22.7623ZM5.30513 5.15006V4.65006H4.39327L4.88356 5.4189L5.30513 5.15006ZM6.18362 6.52765L5.76205 6.79649L6.20414 7.48975L6.61628 6.77828L6.18362 6.52765ZM23.3874 22.4038L23.3848 22.4014L22.6952 23.1256L22.6978 23.128L23.3874 22.4038ZM23.3849 22.4015L22.9197 21.9582L22.2299 22.6823L22.6951 23.1255L23.3849 22.4015ZM22.9738 22.019C22.7326 21.6995 22.4629 21.4025 22.1681 21.1316L21.4915 21.868C21.7419 22.098 21.9709 22.3502 22.1757 22.6215L22.9738 22.019ZM22.1421 21.1093L22.1375 21.1056L21.5129 21.8865L21.5175 21.8902L22.1421 21.1093ZM22.1614 21.126C21.8755 20.8663 21.5785 20.6194 21.2704 20.3852L20.6654 21.1815C20.9503 21.3979 21.2248 21.6262 21.489 21.8662L22.1614 21.126ZM21.2511 20.3713C20.9946 20.195 20.6523 19.9894 20.2304 19.7557L19.7458 20.6305C20.1551 20.8572 20.466 21.0451 20.6847 21.1954L21.2511 20.3713ZM20.191 19.7361C19.9682 19.6372 19.7906 19.4583 19.6933 19.2348L18.7764 19.6338C18.9736 20.0869 19.3336 20.4496 19.7853 20.6501L20.191 19.7361ZM19.6991 19.2486L19.6954 19.2394L18.7669 19.6108L18.7706 19.62L19.6991 19.2486ZM19.4548 18.9779L19.4106 18.9558L18.9634 19.8502L19.0076 19.8723L19.4548 18.9779ZM19.2362 19.9006C19.463 19.8781 19.6726 19.8361 19.8739 19.7766L19.5903 18.8176C19.449 18.8594 19.3013 18.8892 19.1377 18.9054L19.2362 19.9006ZM19.6059 18.8133L19.5848 18.8188L19.8371 19.7864L19.8583 19.7809L19.6059 18.8133ZM19.8437 19.7847L20.3686 19.6401L20.103 18.676L19.5781 18.8206L19.8437 19.7847ZM20.3854 19.6351C20.5586 19.5808 20.7661 19.5437 20.9845 19.5352L20.9457 18.536C20.643 18.5477 20.3476 18.599 20.0862 18.681L20.3854 19.6351ZM20.9651 19.5356H20.9706V18.5356H20.9651V19.5356ZM20.9908 19.5352C21.3068 19.5224 21.6063 19.4714 21.892 19.3872L21.6092 18.428C21.4014 18.4893 21.1833 18.5266 20.9505 18.536L20.9908 19.5352ZM21.6339 18.4214L21.6109 18.4269L21.8443 19.3993L21.8673 19.3938L21.6339 18.4214ZM21.8477 19.3985C21.9748 19.367 22.1048 19.3315 22.2376 19.292L21.9524 18.3335C21.8335 18.3689 21.7185 18.4003 21.6075 18.4277L21.8477 19.3985ZM22.2376 19.292C22.3664 19.2536 22.4789 19.2187 22.5744 19.1873L22.2621 18.2374C22.1783 18.2649 22.0753 18.2969 21.9524 18.3335L22.2376 19.292ZM22.9182 18.7124V18.5567H21.9182V18.7124H22.9182ZM22.834 18.2789C22.7395 18.1375 22.627 17.9787 22.4972 17.803L21.6928 18.397C21.816 18.5639 21.919 18.7095 22.0025 18.8345L22.834 18.2789ZM22.4985 17.8047C22.3563 17.6104 22.1902 17.435 22.0041 17.2824L21.3701 18.0557C21.4911 18.1549 21.5991 18.269 21.6915 18.3953L22.4985 17.8047ZM21.9996 17.2787L21.995 17.275L21.37 18.0557L21.3746 18.0593L21.9996 17.2787ZM22.0136 17.2907C21.619 16.9419 21.2105 16.6046 20.788 16.2786L20.1772 17.0704C20.5823 17.3829 20.9736 17.7061 21.3513 18.04L22.0136 17.2907ZM20.7894 16.2797C20.3881 15.9679 19.9713 15.6767 19.5406 15.4072L19.0101 16.2549C19.4122 16.5065 19.8013 16.7783 20.1758 17.0693L20.7894 16.2797ZM19.5289 15.4L19.4663 15.3632L18.9592 16.2251L19.0219 16.262L19.5289 15.4ZM19.4863 15.3757C19.22 15.2016 18.9379 15.0528 18.6438 14.9314L18.2623 15.8558C18.4986 15.9533 18.7252 16.0728 18.9392 16.2127L19.4863 15.3757ZM18.6195 14.9221L18.5881 14.9111L18.2553 15.8541L18.2866 15.8651L18.6195 14.9221ZM18.6099 14.9193C18.3468 14.8124 18.0875 14.6952 17.8318 14.5677L17.3854 15.4626C17.6639 15.6015 17.9466 15.7292 18.2335 15.8458L18.6099 14.9193ZM17.8286 14.5661C17.7005 14.5034 17.5661 14.4545 17.4276 14.4202L17.1874 15.3909C17.2569 15.4081 17.3244 15.4327 17.3887 15.4642L17.8286 14.5661ZM17.397 14.4136L17.3869 14.4118L17.2079 15.3956L17.218 15.3975L17.397 14.4136ZM17.3949 14.4133C17.4004 14.4144 17.4053 14.4173 17.4089 14.4215L16.6518 15.0747C16.7937 15.2393 16.9866 15.3517 17.1998 15.3941L17.3949 14.4133ZM17.3837 14.3944L17.3828 14.3934L16.676 15.1009L16.677 15.1018L17.3837 14.3944ZM17.4288 14.4463C17.3218 14.3043 17.2319 14.1502 17.1611 13.9871L16.2439 14.3857C16.3462 14.6209 16.4757 14.8432 16.63 15.048L17.4288 14.4463ZM17.1667 14.0007L17.1594 13.9823L16.2309 14.3536L16.2383 14.3721L17.1667 14.0007ZM17.1549 13.9713C17.06 13.7496 16.957 13.5359 16.8456 13.3303L15.9663 13.8066C16.0625 13.9841 16.1522 14.1701 16.2354 14.3646L17.1549 13.9713ZM16.8501 13.3388C16.6304 12.9138 16.4178 12.4818 16.2125 12.0426L15.3066 12.4662C15.5175 12.9172 15.7359 13.3612 15.9619 13.7981L16.8501 13.3388ZM16.2125 12.0426C16.0066 11.6023 15.809 11.1615 15.6196 10.7202L14.7006 11.1145C14.8943 11.5658 15.0963 12.0164 15.3066 12.4662L16.2125 12.0426ZM15.6163 10.7128C15.4872 10.4247 15.3686 10.1373 15.2605 9.85058L14.3248 10.2032C14.4402 10.5095 14.5666 10.8157 14.7038 11.1219L15.6163 10.7128ZM15.261 9.8518C15.1366 9.51913 14.9801 9.19937 14.7938 8.89705L13.9425 9.42184C14.0948 9.66887 14.2227 9.93015 14.3243 10.202L15.261 9.8518ZM13.9329 9.40548L13.9448 9.42666L14.8154 8.9346L14.8034 8.91342L13.9329 9.40548ZM14.812 8.92871C14.4336 8.2799 14.0113 7.65771 13.548 7.06646L12.7609 7.68321C13.196 8.2386 13.5927 8.82307 13.9482 9.43254L14.812 8.92871ZM12.7519 7.67143L12.7777 7.70643L13.5828 7.11323L13.557 7.07824L12.7519 7.67143ZM13.5727 7.09999C13.1463 6.56 12.6805 6.05237 12.1791 5.58127L11.4944 6.31008C11.9598 6.74733 12.3921 7.21848 12.7878 7.71967L13.5727 7.09999ZM12.166 5.56938L12.1586 5.56293L11.5001 6.31553L11.5075 6.32197L12.166 5.56938ZM12.1715 5.57459C11.6814 5.11481 11.1641 4.68498 10.6223 4.28744L10.0307 5.09367C10.5401 5.46744 11.0265 5.87157 11.4872 6.30387L12.1715 5.57459ZM10.6172 4.28369L10.572 4.25146L9.99079 5.06519L10.0359 5.09742L10.6172 4.28369ZM10.5753 4.25382C10.0114 3.84407 9.3966 3.44212 8.73159 3.04774L8.2215 3.90786C8.86286 4.28822 9.45136 4.67328 9.98751 5.06283L10.5753 4.25382ZM8.72845 3.04589C8.41005 2.86018 8.06698 2.72046 7.70943 2.63089L7.46641 3.60091C7.73245 3.66756 7.98772 3.77152 8.22463 3.9097L8.72845 3.04589ZM7.70035 2.62871L7.67641 2.62318L7.45155 3.59757L7.47549 3.6031L7.70035 2.62871ZM7.68514 2.62528L6.66024 2.36928L6.41791 3.33948L7.44281 3.59547L7.68514 2.62528ZM6.57712 2.35583L5.9979 2.31163L5.92181 3.30873L6.50103 3.35293L6.57712 2.35583ZM5.99796 2.31163C5.79251 2.29593 5.58673 2.28808 5.38064 2.28808V3.28808C5.56131 3.28808 5.74167 3.29496 5.92175 3.30872L5.99796 2.31163ZM5.61249 2.34508C5.52423 2.29889 5.44301 2.24034 5.3713 2.1712L4.67724 2.89112C4.81745 3.02629 4.97624 3.14077 5.14879 3.23108L5.61249 2.34508ZM5.36888 2.16888C5.25093 2.05669 5.12589 1.95219 4.99453 1.85604L4.40389 2.66298C4.50066 2.73381 4.59277 2.81079 4.67966 2.89344L5.36888 2.16888ZM4.98593 1.84989L4.97672 1.84344L4.40328 2.66269L4.41249 2.66913L4.98593 1.84989ZM4.9399 1.81999C4.31394 1.45879 3.65467 1.15867 2.97119 0.923812L2.64621 1.86953C3.26899 2.08354 3.86973 2.357 4.4401 2.68613L4.9399 1.81999ZM2.95496 0.91854L2.87668 0.894598L2.58418 1.85086L2.66245 1.8748L2.95496 0.91854ZM2.97873 0.938738C2.7512 0.808568 2.49732 0.731243 2.23586 0.712487L2.16431 1.70992C2.27617 1.71795 2.38479 1.75103 2.48214 1.80672L2.97873 0.938738ZM2.23586 0.712487C1.9744 0.693732 1.71208 0.734028 1.46831 0.83039L1.83592 1.76037C1.94022 1.71914 2.05245 1.7019 2.16431 1.70992L2.23586 0.712487ZM1.81023 1.76972L1.81852 1.76696L1.50229 0.818274L1.494 0.821037L1.81023 1.76972ZM1.47786 0.827129C1.23806 0.921166 1.02195 1.06691 0.844896 1.25398L1.57119 1.94137C1.6472 1.86105 1.73999 1.79848 1.84295 1.7581L1.47786 0.827129ZM0.844896 1.25398C0.667843 1.44106 0.534208 1.66486 0.453503 1.90947L1.40315 2.22279C1.4378 2.11778 1.49517 2.02169 1.57119 1.94137L0.844896 1.25398ZM0.449413 1.92246L0.44665 1.93167L1.40448 2.21901L1.40724 2.2098L0.449413 1.92246ZM0.463985 1.88313C0.331245 2.20189 0.288118 2.55086 0.339264 2.89235L1.32823 2.74423C1.30408 2.58294 1.32445 2.41811 1.38714 2.26755L0.463985 1.88313ZM0.339264 2.89235C0.39041 3.23384 0.533885 3.55486 0.75419 3.82075L1.52421 3.18273C1.42016 3.05715 1.35239 2.90552 1.32823 2.74423L0.339264 2.89235ZM1.55523 3.22439L1.55338 3.22163L0.721333 3.77632L0.723175 3.77909L1.55523 3.22439ZM0.737425 3.79906C1.07019 4.24255 1.32227 4.58724 1.4955 4.83514L2.3152 4.26235C2.13237 4.00071 1.87245 3.64556 1.53729 3.19889L0.737425 3.79906ZM1.50452 4.84764C1.63705 5.02536 1.77392 5.2102 1.91514 5.40215L2.72064 4.80957C2.57824 4.616 2.44008 4.42942 2.30617 4.24985L1.50452 4.84764ZM1.91789 5.40586C2.02371 5.54696 2.12021 5.71213 2.19902 5.88925L3.11267 5.48274C3.00546 5.2418 2.87175 5.011 2.71789 4.80586L1.91789 5.40586ZM2.1886 5.86399L2.19597 5.88333L3.13045 5.52734L3.12309 5.508L2.1886 5.86399ZM2.2108 5.91823C2.24621 5.99348 2.28108 6.09232 2.30759 6.19982L3.27851 5.96042C3.23872 5.79904 3.18334 5.63635 3.11562 5.49244L2.2108 5.91823ZM2.30161 6.17226L2.30438 6.187L3.28725 6.00271L3.28449 5.98798L2.30161 6.17226ZM2.30886 6.20832C2.34116 6.34695 2.38121 6.49491 2.42854 6.65179L3.38593 6.363C3.34363 6.22275 3.3094 6.09569 3.28277 5.98139L2.30886 6.20832ZM2.44145 6.68919C2.57146 7.02229 2.69472 7.36415 2.8112 7.71479L3.76021 7.39954C3.63849 7.03314 3.50944 6.67516 3.37302 6.32561L2.44145 6.68919ZM2.81114 7.71461C2.94962 8.13202 3.10408 8.48892 3.28366 8.82924L4.16808 8.36253C4.01432 8.07115 3.88147 7.76504 3.76027 7.39972L2.81114 7.71461ZM4.17751 8.38135L4.16001 8.34452L3.25674 8.77358L3.27423 8.81042L4.17751 8.38135ZM3.26936 8.79836C3.36012 8.96486 3.45128 9.12776 3.54285 9.28707L4.40983 8.78872C4.32214 8.63617 4.23466 8.47984 4.14739 8.31974L3.26936 8.79836ZM3.54285 9.28706C3.63959 9.45537 3.74358 9.61961 3.85476 9.77977L4.67622 9.2095C4.58113 9.07253 4.49235 8.93228 4.40983 8.78872L3.54285 9.28706ZM3.84872 9.77086C3.94379 9.91431 4.06641 10.0374 4.20947 10.1331L4.76536 9.30186C4.73241 9.27982 4.70416 9.25146 4.68226 9.21841L3.84872 9.77086ZM4.20998 10.1335L4.21274 10.1353L4.76761 9.30335L4.76485 9.30151L4.20998 10.1335ZM4.19874 10.1256C4.18318 10.1144 4.17037 10.0999 4.16127 10.083L5.0412 9.60794C4.97817 9.49121 4.8894 9.39036 4.78162 9.31305L4.19874 10.1256ZM4.16127 10.083C4.15217 10.0662 4.14703 10.0475 4.14623 10.0284L5.14537 9.98674C5.13985 9.8542 5.10422 9.72466 5.0412 9.60793L4.16127 10.083ZM4.23103 9.72833C4.07758 9.95627 3.98127 10.218 3.94938 10.4898L4.94257 10.6063C4.95602 10.4917 4.99673 10.3816 5.06057 10.2868L4.23103 9.72833ZM3.95278 10.4659L3.95186 10.4714L4.93825 10.6358L4.93917 10.6303L3.95278 10.4659ZM3.94943 10.4876C3.92425 10.6767 3.88318 10.8632 3.82664 11.0454L4.78169 11.3418C4.85489 11.106 4.90808 10.8644 4.94068 10.6196L3.94943 10.4876ZM4.78728 11.3224L4.79465 11.2948L3.82842 11.0371L3.82105 11.0648L4.78728 11.3224ZM3.83624 11.0107C3.60307 11.7246 3.48561 12.4712 3.48832 13.2222L4.48831 13.2186C4.48599 12.5743 4.58676 11.9337 4.78682 11.3212L3.83624 11.0107ZM3.48831 13.2204C3.48831 13.4665 3.50032 13.7102 3.52544 13.9521L4.52009 13.8488C4.49872 13.6431 4.48831 13.434 4.48831 13.2204H3.48831ZM3.52378 13.9323C3.58509 14.8942 3.87624 15.7804 4.34281 16.5483L5.19742 16.029C4.81322 15.3967 4.5726 14.6664 4.52175 13.8687L3.52378 13.9323ZM5.20637 16.0444L5.19347 16.0213L4.32097 16.51L4.33387 16.533L5.20637 16.0444ZM4.34142 16.5433C4.54046 16.8414 4.75506 17.103 4.99243 17.3424L5.70255 16.6383C5.5108 16.4449 5.3368 16.2332 5.17303 15.988L4.34142 16.5433ZM4.97381 17.3226C5.1725 17.5461 5.44017 17.6968 5.73431 17.7508L5.91484 16.7672C5.83994 16.7535 5.77177 16.7151 5.72117 16.6582L4.97381 17.3226ZM5.73431 17.7508C6.02771 17.8046 6.33068 17.7592 6.59532 17.6216L6.13409 16.7343C6.0667 16.7693 5.98955 16.7809 5.91484 16.7672L5.73431 17.7508ZM6.53289 17.6488C6.78381 17.5592 7.00271 17.3974 7.16208 17.1838L6.36057 16.5858C6.31902 16.6415 6.26194 16.6837 6.19652 16.7071L6.53289 17.6488ZM7.16208 17.1838C7.32258 16.9687 7.41546 16.7107 7.42889 16.4426L6.43014 16.3926C6.42664 16.4625 6.40242 16.5297 6.36057 16.5858L7.16208 17.1838ZM7.42951 16.4176V16.4158H6.42951V16.4176H7.42951ZM7.42697 16.4661C7.46904 16.0507 7.53176 15.6823 7.61747 15.3239L6.64489 15.0913C6.54827 15.4954 6.47839 15.9079 6.43206 16.3654L7.42697 16.4661ZM6.64033 15.1124L6.62836 15.1741L7.61005 15.3645L7.62202 15.3028L6.64033 15.1124ZM7.58727 15.4451C7.6319 15.3263 7.65457 15.2004 7.6542 15.0735L6.6542 15.0765C6.65422 15.0823 6.65318 15.088 6.65114 15.0935L7.58727 15.4451ZM7.65371 15.0528L7.65187 15.0114L6.65285 15.0558L6.65469 15.0972L7.65371 15.0528ZM6.65236 15.0336V15.0354H7.65236V15.0336H6.65236ZM7.64936 14.9807C7.65974 15.075 7.63163 15.1561 7.59751 15.209C7.56876 15.2535 7.54284 15.268 7.55284 15.2613L6.99682 14.4301C6.85177 14.5272 6.61722 14.7437 6.65536 15.0901L7.64936 14.9807ZM6.77483 14.8457V14.8899H7.77483V14.8457H6.77483ZM6.81512 15.0865C6.90617 15.2994 7.00095 15.5119 7.09946 15.724L8.0064 15.3027C7.91214 15.0998 7.82153 14.8966 7.73454 14.6933L6.81512 15.0865ZM7.09946 15.724C7.19781 15.9357 7.29988 16.1476 7.40565 16.3598L8.3006 15.9137C8.19887 15.7096 8.10081 15.5059 8.0064 15.3027L7.09946 15.724ZM7.43525 16.4113C7.72321 16.8496 8.03011 17.2341 8.3678 17.5885L9.09175 16.8987C8.7959 16.5882 8.52634 16.2508 8.271 15.8622L7.43525 16.4113ZM9.08339 16.8901L9.08063 16.8873L8.3734 17.5943L8.37616 17.5971L9.08339 16.8901ZM8.36015 17.5806C8.69738 17.9447 9.06934 18.2751 9.47076 18.567L10.0589 17.7582C9.71008 17.5046 9.38689 17.2175 9.09388 16.9011L8.36015 17.5806ZM9.48314 18.5757L9.5034 18.5895L10.0667 17.7633L10.0465 17.7495L9.48314 18.5757ZM9.48149 18.5737C9.65019 18.7026 9.79747 18.8412 9.93084 18.9929L10.6817 18.3324C10.5057 18.1323 10.3104 17.9486 10.0887 17.7791L9.48149 18.5737ZM9.95272 19.0162L9.9564 19.0199L10.6635 18.3128L10.6598 18.3091L9.95272 19.0162ZM9.92889 18.99C10.1145 19.2085 10.3372 19.3889 10.5881 19.5243L11.0632 18.6444C10.9218 18.5681 10.7964 18.4667 10.691 18.3426L9.92889 18.99ZM10.602 19.5316L10.6112 19.5362L11.0585 18.6418L11.0493 18.6372L10.602 19.5316ZM11.3348 19.089V19.0669H10.3348V19.089H11.3348ZM10.8348 19.5669H10.879V18.5669H10.8348V19.5669ZM11.3356 18.8629C11.2595 18.6926 11.1336 18.5493 10.9746 18.4518L10.452 19.3044C10.439 19.2964 10.4287 19.2847 10.4225 19.2708L11.3356 18.8629ZM10.937 18.4309L10.9351 18.43L10.4877 19.3244L10.4896 19.3253L10.937 18.4309ZM10.9529 18.4393C10.9053 18.4131 10.8597 18.3837 10.8162 18.3513L10.2181 19.1526C10.2982 19.2125 10.3824 19.2667 10.47 19.3151L10.9529 18.4393ZM10.2598 19.1806L10.2644 19.1834L10.7791 18.326L10.7745 18.3233L10.2598 19.1806ZM10.8753 18.4012C10.7517 18.2776 10.6224 18.138 10.4873 17.9819L9.73109 18.6362C9.87963 18.8079 10.0253 18.9654 10.1682 19.1083L10.8753 18.4012ZM10.4873 17.9819C10.3493 17.8224 10.2239 17.6716 10.1108 17.5297L9.32863 18.1528C9.45125 18.3067 9.58548 18.4679 9.73109 18.6362L10.4873 17.9819ZM10.1248 17.5481C9.82136 17.1288 9.53163 16.6903 9.25564 16.2323L8.39914 16.7484C8.68916 17.2297 8.9943 17.6917 9.31462 18.1344L10.1248 17.5481ZM9.25564 16.2323C8.97808 15.7717 8.71591 15.3036 8.46912 14.8281L7.58153 15.2887C7.83813 15.7832 8.11067 16.2697 8.39914 16.7484L9.25564 16.2323ZM8.47231 14.8343C8.35707 14.6045 8.24549 14.3671 8.1376 14.1221L7.22241 14.5251C7.33675 14.7847 7.45539 15.0372 7.57834 15.2825L8.47231 14.8343ZM8.1376 14.1221C8.02654 13.8699 7.91886 13.6251 7.81457 13.3876L6.89901 13.7898C7.00344 14.0276 7.11124 14.2727 7.22241 14.5251L8.1376 14.1221ZM7.8059 13.369C7.78439 13.325 7.77076 13.2776 7.76565 13.2289L6.77112 13.3334C6.78848 13.4986 6.83469 13.6594 6.90767 13.8085L7.8059 13.369ZM7.76839 13.2812V13.2766H6.76839V13.2812H7.76839ZM7.76778 13.252C7.76106 13.1151 7.71893 12.9822 7.64552 12.8664L6.80094 13.4019C6.78175 13.3716 6.77075 13.3369 6.76899 13.3011L7.76778 13.252ZM7.64552 12.8664C7.5721 12.7506 7.46991 12.6559 7.34893 12.5913L6.87843 13.4737C6.84682 13.4569 6.82012 13.4321 6.80094 13.4019L7.64552 12.8664ZM7.33738 12.5854L7.33554 12.5845L6.88814 13.4788L6.88998 13.4797L7.33738 12.5854ZM6.67964 12.7802C6.59364 12.9281 6.49079 13.0654 6.37316 13.1896L7.09911 13.8774C7.26988 13.6971 7.41919 13.4977 7.54404 13.283L6.67964 12.7802ZM7.0896 13.8871L7.09052 13.8862L6.38359 13.1789L6.38267 13.1798L7.0896 13.8871ZM6.37438 13.1884C6.1858 13.3871 6.03394 13.6177 5.92585 13.8694L6.84473 14.2639C6.90618 14.1208 6.99252 13.9897 7.09973 13.8768L6.37438 13.1884ZM5.91862 13.8872L5.91402 13.8991L6.84735 14.2581L6.85196 14.2462L5.91862 13.8872ZM5.9173 13.8908C5.76194 14.2741 5.66098 14.6773 5.61735 15.0885L6.61177 15.194C6.64556 14.8755 6.72375 14.5633 6.84407 14.2664L5.9173 13.8908ZM5.61731 15.089L5.61546 15.1065L6.60997 15.2111L6.61181 15.1936L5.61731 15.089ZM5.61584 15.103C5.57155 15.4973 5.52697 15.9026 5.48208 16.3189L6.47631 16.4261C6.52105 16.0112 6.56548 15.6073 6.60959 15.2146L5.61584 15.103ZM5.75559 15.9253L5.71138 15.9474L6.1586 16.8418L6.2028 16.8197L5.75559 15.9253ZM5.58144 16.041L5.55934 16.0631L6.26644 16.7702L6.28854 16.7481L5.58144 16.041ZM6.01121 15.9264C5.96915 15.918 5.9295 15.9002 5.89519 15.8745L5.29476 16.6742C5.44848 16.7896 5.6261 16.8691 5.81457 16.9069L6.01121 15.9264ZM5.89519 15.8745C5.86088 15.8487 5.83278 15.8156 5.81294 15.7776L4.92624 16.2399C5.01512 16.4104 5.14104 16.5587 5.29476 16.6742L5.89519 15.8745ZM5.83382 15.823L5.83198 15.8184L4.90352 16.1898L4.90536 16.1944L5.83382 15.823ZM5.81163 15.774C5.70535 15.569 5.61081 15.3688 5.52775 15.1733L4.60735 15.5642C4.7011 15.7849 4.80668 16.0083 4.92387 16.2343L5.81163 15.774ZM5.5346 15.1902C5.31369 14.6122 5.19305 14.0008 5.17788 13.3822L4.17818 13.4067C4.19614 14.139 4.33896 14.863 4.6005 15.5473L5.5346 15.1902ZM5.17803 13.3944V13.3862H4.17803V13.3944H5.17803ZM5.17694 13.3531C5.13329 12.6944 5.21485 12.0333 5.4173 11.405L4.46549 11.0983C4.22429 11.8469 4.12712 12.6344 4.17913 13.4192L5.17694 13.3531ZM4.45901 11.1201L4.45005 11.1529L5.41481 11.416L5.42378 11.3832L4.45901 11.1201ZM5.41457 11.4169C5.45247 11.279 5.54002 11.027 5.68624 10.6463L4.75274 10.2878C4.60643 10.6687 4.50261 10.9616 4.4503 11.152L5.41457 11.4169ZM5.68624 10.6463C5.76854 10.4321 5.82874 10.2242 5.85017 10.0318C5.87085 9.84617 5.86212 9.61478 5.73725 9.40722L4.88038 9.92276C4.84452 9.86316 4.86542 9.83942 4.85632 9.92113C4.84797 9.99605 4.819 10.1153 4.75274 10.2878L5.68624 10.6463ZM5.78773 9.52134C5.71659 9.28415 5.5795 9.07205 5.39245 8.90977L4.73712 9.66512C4.78102 9.7032 4.8132 9.75298 4.82989 9.80865L5.78773 9.52134ZM5.41825 8.9338L5.41733 8.93288L4.71041 9.64017L4.71133 9.64109L5.41825 8.9338ZM5.39121 8.90857C5.2992 8.82888 5.21302 8.7427 5.13333 8.65069L4.37743 9.30538C4.4884 9.4335 4.6084 9.55351 4.73652 9.66447L5.39121 8.90857ZM5.15538 8.67804L5.15262 8.67436L4.35262 9.27436L4.35538 9.27804L5.15538 8.67804ZM5.16366 8.68966C5.06887 8.55281 4.97661 8.40578 4.88703 8.24829L4.01782 8.74273C4.121 8.92412 4.22887 9.09631 4.34159 9.25905L5.16366 8.68966ZM4.88703 8.24829C4.79772 8.09129 4.71955 7.93814 4.65213 7.78882L3.74072 8.20032C3.82187 8.38005 3.91436 8.56086 4.01782 8.74273L4.88703 8.24829ZM4.65699 7.79993C4.49368 7.4135 4.35483 7.01718 4.24128 6.61332L3.27861 6.884C3.40351 7.32822 3.55623 7.76415 3.73587 8.18921L4.65699 7.79993ZM4.24533 6.62867L4.22507 6.54672L3.25429 6.78669L3.27455 6.86864L4.24533 6.62867ZM4.2216 6.53344C4.08358 6.03433 3.9065 5.54686 3.69198 5.07554L2.78182 5.48979C2.9746 5.91335 3.13374 6.35143 3.25777 6.79996L4.2216 6.53344ZM2.77367 5.47085L2.79761 5.52979L3.72407 5.15341L3.70013 5.09447L2.77367 5.47085ZM3.71922 5.14188C3.60948 4.89001 3.47094 4.65172 3.30636 4.43175L2.50567 5.03082C2.62398 5.18895 2.72357 5.36026 2.80246 5.54132L3.71922 5.14188ZM2.50604 5.03132L2.50726 5.03294L3.30721 4.43289L3.30599 4.43126L2.50604 5.03132ZM3.30753 4.43331C3.16271 4.23981 3.0347 4.05856 2.92309 3.88939L2.0884 4.44011C2.21252 4.62824 2.35218 4.82575 2.50694 5.03252L3.30753 4.43331ZM2.90056 3.85795C2.74795 3.66157 2.59636 3.47208 2.44579 3.2895L1.67432 3.92577C1.81841 4.10048 1.96395 4.2824 2.11093 4.47155L2.90056 3.85795ZM2.44562 3.2893C2.3165 3.13292 2.20581 2.9622 2.11572 2.78052L1.21981 3.22475C1.34398 3.47516 1.49654 3.71045 1.67449 3.92597L2.44562 3.2893ZM2.12373 2.79745L2.11544 2.77904L1.20352 3.1894L1.21181 3.20782L2.12373 2.79745ZM2.10852 2.76429C2.07702 2.69998 2.05246 2.6325 2.03526 2.56299L1.06454 2.80321C1.0988 2.94166 1.14771 3.07606 1.21045 3.20415L2.10852 2.76429ZM2.04184 2.59366L2.03999 2.58353L1.05612 2.76242L1.05797 2.77255L2.04184 2.59366ZM2.57998 2.7569C2.85702 2.87399 3.11136 2.98662 3.34321 3.09478L3.76597 2.18854C3.52144 2.07447 3.2558 1.95689 2.96929 1.83579L2.57998 2.7569ZM3.33951 3.09304C3.58507 3.21005 3.79282 3.33243 3.98926 3.46846L4.55856 2.64633C4.31887 2.48035 4.06468 2.33086 3.76968 2.19029L3.33951 3.09304ZM3.98926 3.46846C3.99229 3.47055 3.99531 3.47265 3.99832 3.47475L4.5695 2.65392C4.56585 2.65138 4.5622 2.64885 4.55856 2.64633L3.98926 3.46846ZM4.56126 2.64831L4.54468 2.63726L3.98998 3.46931L4.00656 3.48036L4.56126 2.64831ZM4.00272 3.47753C4.00467 3.47874 4.00663 3.47997 4.0086 3.4812L4.53921 2.63359C4.5368 2.63207 4.53438 2.63056 4.53194 2.62904L4.00272 3.47753ZM4.00859 3.48119C4.11284 3.54646 4.21778 3.61865 4.32337 3.69798L4.92403 2.89848C4.79702 2.80305 4.66876 2.71469 4.53923 2.63359L4.00859 3.48119ZM4.32337 3.69798C4.44967 3.79287 4.58324 3.88741 4.72394 3.98164L5.2804 3.15076C5.15344 3.06573 5.0347 2.98162 4.92403 2.89848L4.32337 3.69798ZM5.00217 4.0662H5.31434V3.0662H5.00217V4.0662ZM5.31434 4.0662C5.53612 4.0662 5.7742 4.07681 6.0289 4.09847L6.11365 3.10207C5.83426 3.0783 5.56772 3.0662 5.31434 3.0662V4.0662ZM6.03215 4.09874C6.26302 4.11686 6.47251 4.15977 6.6701 4.22563L6.98633 3.27695C6.70877 3.18443 6.41916 3.12604 6.11041 3.1018L6.03215 4.09874ZM6.96822 3.27129L6.94612 3.26484L6.66612 4.22484L6.68822 4.23129L6.96822 3.27129ZM6.66363 4.22411C7.0768 4.34694 7.4278 4.49083 7.76041 4.66308L8.22026 3.77508C7.83092 3.57346 7.4213 3.4061 6.9486 3.26557L6.66363 4.22411ZM8.20056 3.76542L8.1628 3.74793L7.74235 4.65524L7.78011 4.67274L8.20056 3.76542ZM7.72567 4.64713C8.07619 4.82564 8.4075 5.01449 8.71984 5.21352L9.25723 4.37018C8.91638 4.15299 8.55706 3.94832 8.17948 3.75604L7.72567 4.64713ZM8.72412 5.21621C9.2452 5.54089 9.69344 5.87215 10.1151 6.23397L10.7663 5.47505C10.3058 5.07993 9.81663 4.71871 9.25295 4.36749L8.72412 5.21621ZM10.7586 5.46855L10.7429 5.45566L10.1072 6.22758L10.1229 6.24047L10.7586 5.46855ZM10.0999 6.22146C10.5453 6.60273 10.949 6.99308 11.3275 7.40542L12.0642 6.72912C11.6582 6.28691 11.2257 5.86876 10.7502 5.46178L10.0999 6.22146ZM11.3117 7.38737L11.3209 7.39842L12.0892 6.75823L12.0799 6.74718L11.3117 7.38737ZM11.3364 7.41611C11.7049 7.81829 12.0569 8.25542 12.3788 8.71376L13.1972 8.13913C12.8505 7.64532 12.4713 7.17449 12.0737 6.74053L11.3364 7.41611ZM12.3706 8.70175L12.3991 8.74503L13.2339 8.19443L13.2054 8.15115L12.3706 8.70175ZM12.4084 8.75855C12.7032 9.17523 13.0028 9.66025 13.2726 10.1643L14.1542 9.69238C13.8661 9.15406 13.5449 8.63351 13.2247 8.18091L12.4084 8.75855ZM13.2652 10.1499L13.3038 10.2281L14.2004 9.78514L14.1617 9.70686L13.2652 10.1499ZM13.3075 10.2354C13.38 10.3763 13.4435 10.5217 13.4976 10.6707L14.4376 10.3297C14.3691 10.1408 14.2886 9.9565 14.1967 9.77785L13.3075 10.2354ZM13.4932 10.6583L13.5034 10.6887L14.452 10.3725L14.4419 10.3421L13.4932 10.6583ZM13.5056 10.6953C13.5683 10.8751 13.6382 11.0585 13.7151 11.2455L14.64 10.8654C14.5695 10.6939 14.5062 10.5274 14.4498 10.3659L13.5056 10.6953ZM13.7198 11.2567C13.8862 11.6351 14.0643 12.0166 14.254 12.4011L15.1508 11.9586C14.9673 11.5868 14.7955 11.2186 14.6352 10.8542L13.7198 11.2567ZM14.254 12.4011C14.4386 12.7752 14.6115 13.1384 14.7725 13.4909L15.6821 13.0752C15.5166 12.7131 15.3394 12.3409 15.1508 11.9586L14.254 12.4011ZM14.7728 13.4913L15.2626 14.5604L16.1717 14.1438L15.6819 13.0747L14.7728 13.4913ZM15.2631 14.5613C15.4494 14.9658 15.6598 15.319 15.9061 15.6463L16.7052 15.0451C16.5039 14.7776 16.3294 14.4862 16.1713 14.143L15.2631 14.5613ZM16.7088 15.0501L16.6987 15.0362L15.8923 15.6276L15.9024 15.6414L16.7088 15.0501ZM15.9304 15.6735C16.1891 15.95 16.5356 16.145 16.926 16.2131L17.0978 15.2279C16.9283 15.1984 16.7758 15.1134 16.6606 14.9903L15.9304 15.6735ZM16.9499 16.2166L16.9572 16.2176L17.0813 15.2253L17.074 15.2244L16.9499 16.2166ZM16.898 16.2065C17.2134 16.2853 17.476 16.3736 17.7302 16.4778L18.1095 15.5526C17.8112 15.4302 17.5029 15.327 17.1405 15.2364L16.898 16.2065ZM18.0899 15.545L18.0467 15.5293L17.7065 16.4697L17.7498 16.4854L18.0899 15.545ZM17.6697 16.4547C17.8237 16.5247 18.012 16.5948 18.1982 16.6549L18.5053 15.7033C18.3434 15.651 18.1929 15.5941 18.0835 15.5443L17.6697 16.4547ZM18.2192 16.6612L18.256 16.6713L18.5212 15.7071L18.4843 15.697L18.2192 16.6612ZM18.242 16.6673C18.3949 16.7141 18.5229 16.7745 18.6396 16.849L19.1781 16.0064C18.9835 15.8821 18.7727 15.784 18.5351 15.7112L18.242 16.6673ZM19.1517 15.9907L19.1434 15.986L18.6577 16.8602L18.666 16.8648L19.1517 15.9907ZM18.6564 16.8594C18.9396 17.0179 19.1766 17.1721 19.4018 17.3393L19.9979 16.5364C19.7369 16.3427 19.4638 16.1654 19.1448 15.9868L18.6564 16.8594ZM19.9905 16.531L19.9712 16.5172L19.3899 17.3309L19.4093 17.3447L19.9905 16.531ZM19.3845 17.327C19.644 17.5177 19.904 17.698 20.1644 17.8678L20.7106 17.0301C20.4664 16.8709 20.2217 16.7012 19.9766 16.5211L19.3845 17.327ZM20.1381 17.8494C20.2778 17.9538 20.4951 18.0941 20.7771 18.2656L21.2968 17.4113C21.0177 17.2415 20.8354 17.1221 20.7368 17.0485L20.1381 17.8494ZM20.7771 18.2656C20.8959 18.3379 20.9613 18.393 20.9928 18.4268C21.0261 18.4627 20.9937 18.4441 20.9857 18.3727L21.9796 18.2619C21.955 18.042 21.84 17.8693 21.7248 17.7455C21.6078 17.6198 21.4586 17.5097 21.2968 17.4113L20.7771 18.2656ZM21.5 17.8176C20.9084 17.7971 20.3162 17.8252 19.7293 17.9016L19.8583 18.8932C20.391 18.8239 20.9285 18.7984 21.4653 18.817L21.5 17.8176ZM19.8471 18.8946L19.8986 18.8891L19.7921 17.8947L19.7405 17.9003L19.8471 18.8946ZM19.781 17.8961C19.2709 17.9623 18.7714 18.094 18.2949 18.2879L18.6719 19.2141C19.0688 19.0526 19.4848 18.9429 19.9098 18.8877L19.781 17.8961ZM18.6486 19.223L18.6854 19.2101L18.3551 18.2662L18.3183 18.2791L18.6486 19.223ZM18.3251 18.2778C18.2339 18.3165 18.1398 18.3477 18.0437 18.3714L18.2823 19.3425C18.4303 19.3061 18.5751 19.258 18.7155 19.1985L18.3251 18.2778ZM18.06 18.3677L18.0425 18.3713L18.2485 19.3499L18.266 19.3462L18.06 18.3677ZM18.0744 18.3657C17.9006 18.3907 17.7401 18.473 17.6185 18.5997L18.3397 19.2923C18.3069 19.3265 18.2635 19.3488 18.2166 19.3555L18.0744 18.3657ZM17.6185 18.5997C17.4968 18.7263 17.4211 18.89 17.4031 19.0647L18.3979 19.1667C18.3931 19.2139 18.3726 19.2581 18.3397 19.2923L17.6185 18.5997ZM17.5106 19.4287C17.5298 19.4526 17.5473 19.4834 17.5594 19.5186L18.5051 19.1935C18.4564 19.0518 18.3836 18.9187 18.2905 18.8027L17.5106 19.4287ZM17.5579 19.5142L17.5597 19.5197L18.5084 19.2034L18.5065 19.1979L17.5579 19.5142ZM17.5597 19.5197C17.6024 19.6477 17.6557 19.7632 17.7223 19.8723L18.5761 19.3517C18.5505 19.3099 18.5284 19.2633 18.5084 19.2034L17.5597 19.5197ZM18.5964 19.3884L18.5936 19.3829L17.6992 19.8301L17.7019 19.8356L18.5964 19.3884ZM17.7109 19.8521C17.836 20.074 17.9725 20.2684 18.1268 20.4485L18.8861 19.7977C18.7752 19.6684 18.676 19.5276 18.5819 19.3609L17.7109 19.8521ZM18.8968 19.8107L18.8932 19.8061L18.1124 20.4309L18.1161 20.4355L18.8968 19.8107ZM18.1143 20.4333C18.2711 20.6268 18.4488 20.7956 18.6455 20.9398L19.2367 20.1333C19.1093 20.0399 18.9941 19.9306 18.8912 19.8037L18.1143 20.4333ZM18.6504 20.9433L18.6568 20.948L19.2383 20.1344L19.2318 20.1298L18.6504 20.9433ZM18.6364 20.9325C18.7878 21.0529 18.9452 21.1766 19.1087 21.3035L19.722 20.5137C19.5613 20.3889 19.4069 20.2676 19.2587 20.1498L18.6364 20.9325ZM19.1072 21.3023C19.2733 21.4324 19.4589 21.5586 19.6503 21.6721L20.1601 20.8118C20.0035 20.719 19.8538 20.6168 19.7235 20.5148L19.1072 21.3023ZM19.6671 21.6816L19.6892 21.6936L20.1655 20.8143L20.1434 20.8023L19.6671 21.6816ZM19.6661 21.6802C19.9526 21.8558 20.2814 22.0209 20.6222 22.1586L20.9968 21.2314C20.704 21.1131 20.425 20.9725 20.1885 20.8276L19.6661 21.6802ZM20.6453 22.1672L20.6876 22.182L21.0161 21.2375L20.9738 21.2227L20.6453 22.1672ZM20.6657 22.1738C20.9711 22.2962 21.2295 22.436 21.4684 22.6006L22.0358 21.7772C21.7338 21.5691 21.4096 21.3947 21.038 21.2457L20.6657 22.1738ZM21.4684 22.6006C21.4726 22.6035 21.4768 22.6064 21.481 22.6093L22.0515 21.788C22.0463 21.7844 22.041 21.7808 22.0358 21.7772L21.4684 22.6006ZM22.0495 21.7867L22.0348 21.7765L21.4683 22.6006L21.483 22.6107L22.0495 21.7867ZM21.4999 22.6206L21.5004 22.621L22.0038 21.7569L22.0032 21.7565L21.4999 22.6206ZM21.501 22.6213C21.6653 22.7167 21.8301 22.8232 21.9954 22.941L22.5758 22.1267C22.3867 21.9919 22.1958 21.8684 22.0033 21.7566L21.501 22.6213ZM21.9954 22.941C22.172 23.0669 22.3418 23.1887 22.5047 23.3065L23.0905 22.4961C22.9257 22.3769 22.7541 22.2538 22.5758 22.1267L21.9954 22.941ZM22.4465 23.2573C22.4858 23.2961 22.52 23.3388 22.5487 23.3851L23.3983 22.8577C23.3276 22.7438 23.2439 22.6392 23.1487 22.5453L22.4465 23.2573ZM22.5448 23.3787L22.5475 23.3833L23.405 22.8687L23.4022 22.8641L22.5448 23.3787ZM22.5985 23.4535C22.7638 23.6443 22.9937 23.7675 23.2441 23.7996L23.3714 22.8078C23.3647 22.8069 23.3585 22.8036 23.3541 22.7985L22.5985 23.4535ZM23.3078 23.8037H23.3105V22.8037H23.3078V23.8037ZM23.8105 23.3037V23.2595H22.8105V23.3037H23.8105ZM23.6122 22.8608C23.6165 22.864 23.6196 22.8685 23.6211 22.8737L22.6611 23.1536C22.7198 23.3548 22.8417 23.5318 23.0088 23.6582L23.6122 22.8608ZM23.6262 22.8923L23.6252 22.8886L22.6551 23.1313L22.656 23.135L23.6262 22.8923ZM23.6266 22.8943C23.5942 22.7579 23.5411 22.6273 23.4692 22.507L22.6108 23.02C22.6304 23.0528 22.6449 23.0884 22.6537 23.1256L23.6266 22.8943ZM23.4695 22.5075L23.4693 22.5072L22.6104 23.0192L22.6105 23.0195L23.4695 22.5075ZM23.4689 22.5066C23.4675 22.5041 23.466 22.5017 23.4646 22.4993L22.6095 23.0178C22.6099 23.0186 22.6103 23.0192 22.6107 23.0198L23.4689 22.5066ZM22.5898 22.9822L22.5917 22.9859L23.4861 22.5387L23.4843 22.535L22.5898 22.9822ZM22.6853 23.1158L22.6863 23.1168L23.3934 22.4097L23.3924 22.4087L22.6853 23.1158ZM22.6863 23.1168L22.689 23.1195L23.3961 22.4124L23.3934 22.4097L22.6863 23.1168ZM4.88356 5.4189L5.76205 6.79649L6.6052 6.25882L5.72671 4.88122L4.88356 5.4189ZM6.61628 6.77828C6.86357 6.35136 6.99446 5.94986 6.94068 5.58259C6.88066 5.17268 6.61286 4.92862 6.3471 4.80268C6.10065 4.6859 5.83258 4.65528 5.64898 4.64673C5.49069 4.63935 5.26163 4.65006 5.30513 4.65006V5.65006C5.41546 5.65006 5.44247 5.63819 5.60246 5.64564C5.73715 5.65192 5.8496 5.67353 5.91888 5.70636C5.9491 5.72068 5.95609 5.73023 5.9541 5.72786C5.94913 5.72192 5.94973 5.7172 5.95123 5.72746C5.95667 5.76457 5.95499 5.92483 5.75097 6.27703L6.61628 6.77828ZM1.69482 3.15095L2.9214 2.77432L2.62787 1.81837L1.40129 2.195L1.69482 3.15095Z" fill="url(#paint2_linear_563_6767)" mask="url(#path-1-outside-1_563_6767)"/>
<defs>
<linearGradient id="paint0_linear_563_6767" x1="0.818359" y1="23.3037" x2="23.3105" y2="23.3037" gradientUnits="userSpaceOnUse">
<stop stop-color="#26A7CF"/>
<stop offset="1" stop-color="#27AF8F"/>
</linearGradient>
<linearGradient id="paint1_linear_563_6767" x1="0.818359" y1="23.3037" x2="23.3105" y2="23.3037" gradientUnits="userSpaceOnUse">
<stop stop-color="#26A7CF"/>
<stop offset="1" stop-color="#27AF8F"/>
</linearGradient>
<linearGradient id="paint2_linear_563_6767" x1="0.818359" y1="23.3037" x2="23.3105" y2="23.3037" gradientUnits="userSpaceOnUse">
<stop stop-color="#26A7CF"/>
<stop offset="1" stop-color="#27AF8F"/>
</linearGradient>
</defs>
</svg>
