<svg width="25" height="25" viewBox="0 0 25 25" fill="none" xmlns="http://www.w3.org/2000/svg">
<g clip-path="url(#clip0_563_6706)">
<path d="M14.9771 3.96501C14.5409 3.27848 14.6804 2.82576 14.9211 2.35837C15.1366 1.93996 15.2246 1.21284 14.4633 0.640632C15.1643 0.382586 16.2705 0.83882 16.2895 1.67446C15.8827 2.23415 14.7716 2.45657 14.9771 3.96501ZM20.0101 19.3922C19.6698 20.4954 19.825 21.0823 18.3448 23.3729C20.9619 21.6061 22.1966 19.3252 22.604 16.7364C22.8599 17.8159 22.8841 18.7951 22.7836 19.7203C24.9522 16.8653 26.4381 11.1081 21.4402 5.32077C21.2391 7.87888 18.7651 9.8931 15.9119 9.1033C20.804 8.56401 21.1176 2.34323 16.9148 0.906789C16.9969 2.63741 14.6357 2.07069 15.3301 4.38594C12.925 3.02521 7.67027 2.74555 5.58129 4.80998C4.50438 5.87423 3.76929 6.7544 2.42337 6.81257C1.3121 6.86057 -0.155369 8.66385 1.75394 9.58607C1.93629 10.3546 2.57716 10.7922 2.94879 10.8676C2.8563 12.2361 3.14744 11.5384 3.57401 10.9418C3.43066 12.6718 3.66691 12.0486 4.33544 11.1585C9.99185 10.0146 13.1156 14.6275 13.1509 17.4607C13.1261 16.9467 12.3043 16.3488 11.8695 16.5135C11.5757 17.136 11.2555 17.6643 10.8604 17.925C10.9017 17.5123 10.8735 17.0995 10.7985 16.6868C10.6682 17.1859 10.4229 17.7042 10.0308 18.2469C9.25094 18.2904 8.15946 17.7104 8.47694 16.7488C8.92483 15.8136 8.04635 15.6192 7.33863 15.8869C6.80683 16.0881 6.44744 16.6452 6.39832 16.8185C6.2209 17.4433 6.27926 18.8385 7.49266 19.7636C7.17457 19.8222 6.84799 19.8744 6.62594 20.005C8.68999 21.2534 10.7968 20.8316 11.97 20.3605C13.8908 19.5893 15.2156 17.4546 15.4229 15.8078C15.9561 18.1241 15.0009 20.6984 12.8599 22.079C13.4716 22.1437 14.6689 21.7293 15.8933 21.2928C14.9677 22.4576 13.8613 23.5622 12.0489 24.4314C15.6188 24.1324 18.23 22.34 20.0102 19.3922" fill="url(#paint0_linear_563_6706)"/>
</g>
<defs>
<linearGradient id="paint0_linear_563_6706" x1="0.830078" y1="24.4314" x2="24.7996" y2="24.4314" gradientUnits="userSpaceOnUse">
<stop stop-color="#26A7CF"/>
<stop offset="1" stop-color="#27AF8F"/>
</linearGradient>
<clipPath id="clip0_563_6706">
<rect width="24" height="24" fill="white" transform="translate(0.814453 0.5)"/>
</clipPath>
</defs>
</svg>
