<svg width="25" height="25" viewBox="0 0 25 25" fill="none" xmlns="http://www.w3.org/2000/svg">
<path d="M12.9602 9.28458L11.6602 7.19458C11.5653 7.04235 11.433 6.91706 11.2757 6.83075C11.1185 6.74444 10.9417 6.7 10.7624 6.70171C10.5831 6.70341 10.4072 6.75121 10.2516 6.8405C10.0961 6.92979 9.96609 7.05757 9.87418 7.21158L3.96418 17.1196C3.86949 17.2783 3.81852 17.4592 3.81647 17.644C3.81442 17.8287 3.86135 18.0108 3.95249 18.1715C4.04364 18.3322 4.17574 18.466 4.33535 18.5591C4.49496 18.6522 4.67639 18.7014 4.86117 18.7016H8.77418M20.8572 18.7016C21.6002 18.7016 22.0582 17.8586 21.6772 17.1966L17.6332 10.1836C17.5522 10.0373 17.4336 9.91534 17.2895 9.83042C17.1455 9.7455 16.9814 9.70072 16.8142 9.70072C16.647 9.70072 16.4828 9.7455 16.3388 9.83042C16.1948 9.91534 16.0761 10.0373 15.9952 10.1836L11.9522 17.1966C11.5702 17.8586 12.0282 18.7016 12.7712 18.7016H20.8572Z" stroke="url(#paint0_linear_563_6743)" stroke-width="2" stroke-linecap="round" stroke-linejoin="round"/>
<defs>
<linearGradient id="paint0_linear_563_6743" x1="3.81641" y1="18.7016" x2="21.8143" y2="18.7016" gradientUnits="userSpaceOnUse">
<stop stop-color="#26A7CF"/>
<stop offset="1" stop-color="#27AF8F"/>
</linearGradient>
</defs>
</svg>
