<svg width="25" height="25" viewBox="0 0 25 25" fill="none" xmlns="http://www.w3.org/2000/svg">
<mask id="path-1-outside-1_563_6749" maskUnits="userSpaceOnUse" x="1.67188" y="1.1958" width="22" height="23" fill="black">
<rect fill="white" x="1.67188" y="1.1958" width="22" height="23"/>
<path d="M22.9352 15.0855C22.9231 15.0485 22.9352 15.0144 22.8853 14.9804C22.7986 14.6713 22.4677 14.6818 22.0037 14.7781C20.5556 15.0758 19.9953 14.892 19.7921 14.7606C20.9671 12.9676 21.9328 10.8016 22.4546 8.78093C22.6927 7.86165 23.1532 5.69652 22.5614 4.63979C22.5238 4.56713 22.4799 4.49798 22.43 4.43317C21.2998 2.99209 19.6433 2.21726 17.6384 2.19625C16.3295 2.18224 15.2132 2.49918 14.9103 2.61562C14.7604 2.58753 14.6098 2.56359 14.4586 2.54383C14.0794 2.4754 13.6952 2.43821 13.3099 2.43264C12.275 2.416 11.3812 2.66377 10.6396 3.16806C9.89017 2.88702 6.44855 1.72785 4.31844 3.23723C3.12688 4.08034 2.57881 5.58621 2.68475 7.71457C2.72065 8.43073 3.12863 10.6335 3.773 12.7435C4.17574 14.062 4.59423 15.1091 5.0276 15.8795C5.51176 16.7498 6.01342 17.2742 6.52822 17.4467C6.92045 17.5763 7.52017 17.5719 8.15491 16.8084C8.70552 16.1499 9.27334 15.5058 9.85777 14.8771C10.2386 15.0828 10.651 15.194 11.0747 15.2071V15.2106C11.0011 15.2984 10.929 15.3874 10.8585 15.4777C10.5617 15.8541 10.4995 15.9329 9.54522 16.1299C9.27381 16.186 8.55239 16.3339 8.54189 16.84C8.53988 16.9411 8.56758 17.0407 8.62156 17.1263C8.8203 17.4966 9.42877 17.6603 9.5102 17.6805C10.679 17.972 11.7033 17.761 12.4624 17.086C12.4475 19.0392 12.5298 20.954 12.7645 21.5406C12.9579 22.0247 13.4316 23.2075 14.927 23.2075C15.1458 23.2075 15.3875 23.1813 15.6527 23.1252C17.2129 22.7908 17.8905 22.1009 18.1523 20.581C18.2836 19.8193 18.5043 18.0639 18.6242 16.9906C18.6391 16.9293 18.6557 16.8855 18.6741 16.8715C18.6741 16.8715 18.7354 16.8295 19.048 16.8977C19.0607 16.9006 19.0735 16.9026 19.0865 16.9039L19.3089 16.9231L19.322 16.924C20.0635 16.9582 20.9951 16.7997 21.5379 16.5475C22.1017 16.2849 23.1199 15.6431 22.9352 15.0855ZM4.38323 12.5929C3.73186 10.461 3.35189 8.31604 3.32212 7.71544C3.22669 5.81384 3.6872 4.49095 4.68966 3.78179C6.29796 2.64451 8.92711 3.30902 10.0373 3.66798L10.0285 3.67673C8.25735 5.46451 8.29937 8.52178 8.3055 8.70914C8.3055 8.78093 8.31075 8.88337 8.31951 9.02432C8.34928 9.53737 8.40706 10.4952 8.25472 11.5791C8.11464 12.5859 8.42457 13.5717 9.10659 14.2835C9.17663 14.357 9.25105 14.4262 9.32722 14.491C9.02342 14.8158 8.36416 15.5355 7.66113 16.3803C7.16384 16.9774 6.82064 16.8627 6.70858 16.8251C6.36538 16.7113 5.99679 16.3112 5.62382 15.6677C5.20358 14.9331 4.78071 13.8886 4.38498 12.5929H4.38323ZM9.6424 17.0475C9.50948 17.014 9.38209 16.9615 9.26418 16.8916C9.3421 16.8575 9.47167 16.8128 9.68705 16.769C10.8112 16.537 10.9845 16.3742 11.3636 15.8935C11.4658 15.7602 11.5729 15.6308 11.685 15.5057C11.7144 15.4728 11.7365 15.434 11.7497 15.3919C11.8986 15.2597 11.9879 15.2956 12.1315 15.3551C12.268 15.412 12.4011 15.5827 12.4554 15.771C12.4817 15.8603 12.5097 16.0292 12.416 16.1606C11.6245 17.269 10.4706 17.255 9.6424 17.0475ZM11.4757 13.5559L11.4302 13.6785C11.3137 13.9911 11.2052 14.2817 11.1378 14.5575C10.5538 14.5558 9.98472 14.3054 9.5531 13.8545C9.00328 13.281 8.75376 12.4834 8.86757 11.6657C9.02779 10.5206 8.96913 9.52336 8.93761 8.98755L8.92623 8.79494C9.18538 8.56556 10.3848 7.92294 11.2402 8.11905C11.6307 8.20835 11.8688 8.4745 11.9669 8.93152C12.479 11.2989 12.0352 12.2847 11.6779 13.0779C11.6055 13.2349 11.5374 13.3944 11.4757 13.5559ZM17.9229 17.5588C17.908 17.7137 17.8914 17.8879 17.8687 18.0806L17.7408 18.464C17.7307 18.4945 17.7254 18.5264 17.7251 18.5586C17.7198 18.9744 17.6778 19.1268 17.6244 19.3203C17.5374 19.6219 17.4846 19.9323 17.4668 20.2457C17.3705 21.4837 16.6981 22.1954 15.3507 22.4835C14.0243 22.768 13.7888 22.0492 13.5822 21.4145C13.5606 21.3478 13.5379 21.2816 13.5139 21.2157C13.3257 20.7027 13.3475 19.9795 13.3764 18.9788C13.3904 18.4877 13.3545 17.3145 13.0875 16.6622C13.091 16.4057 13.0963 16.1448 13.1041 15.8813C13.1049 15.8478 13.1001 15.8144 13.0901 15.7824C13.0816 15.7208 13.0688 15.66 13.0516 15.6002C12.9448 15.2255 12.6839 14.9121 12.3687 14.7817C12.2444 14.73 12.0159 14.6354 11.741 14.7055C11.7996 14.4638 11.9012 14.1916 12.0115 13.8956L12.0579 13.7713C12.1104 13.6312 12.1752 13.4868 12.2444 13.3336C12.6174 12.5036 13.1287 11.3672 12.5736 8.80019C12.3661 7.83889 11.6718 7.36962 10.6195 7.47818C9.9891 7.54384 9.41126 7.79861 9.12322 7.94395C9.06543 7.97318 9.00822 8.00353 8.95162 8.035C9.03217 7.06669 9.33597 5.25614 10.4715 4.11098C10.5558 4.02599 10.6443 3.94534 10.7368 3.86934C10.7828 3.86053 10.8262 3.84137 10.8637 3.81331C11.5221 3.31427 12.3477 3.06913 13.3169 3.08401C13.6759 3.09014 14.0191 3.11378 14.3447 3.15493C16.0432 3.46573 17.1849 4.42179 17.8783 5.24126C18.5909 6.0835 18.977 6.93186 19.1311 7.38975C17.9728 7.27244 17.1849 7.50094 16.7848 8.07265C15.9163 9.31411 17.2611 11.7253 17.9072 12.8844C18.0254 13.0963 18.1278 13.2802 18.1602 13.3572C18.3703 13.8676 18.6426 14.2082 18.8413 14.4568C18.9026 14.533 18.9622 14.6065 19.0068 14.6713C18.6566 14.7729 18.0262 15.0067 18.0832 16.1746C18.0614 16.4127 18.0369 16.6506 18.0096 16.8881C17.9693 17.0702 17.9492 17.2909 17.9229 17.5588ZM18.7021 16.1396C18.6671 15.4111 18.9385 15.335 19.2248 15.2553C19.2645 15.2443 19.3039 15.2323 19.343 15.2194C19.3799 15.2522 19.4191 15.2823 19.4603 15.3096C19.9594 15.6388 20.375 16.0302 21.6217 15.779C21.4449 15.9339 21.6386 15.7771 21.2586 15.9531C20.8997 16.1194 20.2991 16.2446 19.7291 16.2718C19.0987 16.3015 18.7783 16.2017 18.7021 16.1396ZM19.2012 8.02274C19.1909 8.31665 19.1602 8.60948 19.1092 8.89913C19.0611 9.21256 19.0112 9.53649 18.9981 9.9296C18.9858 10.3113 19.0331 10.7088 19.0795 11.094C19.1732 11.8706 19.2686 12.6699 18.8982 13.4588C18.8366 13.3498 18.7816 13.2373 18.7337 13.1217C18.6472 12.9374 18.5522 12.7571 18.4491 12.5815C17.9098 11.6149 16.6482 9.35089 17.2934 8.4281C17.6261 7.9527 18.4684 7.93257 19.2012 8.02274ZM19.4008 14.1627C19.3762 14.1313 19.3513 14.1001 19.3264 14.069L19.2957 14.0305C19.9313 12.9799 19.807 11.9406 19.6958 11.0196C19.6503 10.6414 19.6083 10.2842 19.6188 9.94973C19.6302 9.5934 19.6766 9.28872 19.7221 8.99368C19.7781 8.63034 19.8359 8.25475 19.8193 7.81175C19.8323 7.75731 19.8358 7.70104 19.8298 7.6454C19.7895 7.2199 19.3045 5.94867 18.3152 4.79738C17.6704 4.03751 16.8671 3.42791 15.9618 3.01135C16.545 2.89208 17.1395 2.83747 17.7347 2.8485C19.5312 2.88878 20.9522 3.56116 21.9581 4.84728C21.9796 4.87514 21.9992 4.90438 22.0168 4.93483C22.6498 6.12202 21.7743 10.4286 19.4008 14.1627ZM11.6823 8.80807C11.6604 8.96566 11.4109 9.17841 11.1386 9.17841C11.1149 9.17831 11.0912 9.17656 11.0677 9.17316C10.8899 9.14199 10.7312 9.04314 10.6247 8.89737C10.5844 8.84484 10.5197 8.74153 10.5319 8.64785C10.5359 8.62173 10.5452 8.5967 10.5592 8.57428C10.5732 8.55185 10.5916 8.5325 10.6133 8.5174C10.7166 8.43948 10.9215 8.41059 11.1474 8.44211C11.4241 8.48063 11.7103 8.61108 11.6823 8.80807ZM18.6251 8.44824C18.6347 8.51828 18.5822 8.62334 18.4911 8.71965C18.3969 8.82233 18.2713 8.89097 18.1339 8.91488C18.1122 8.91785 18.0902 8.91931 18.0683 8.91926C17.8117 8.91926 17.5946 8.71439 17.578 8.59445C17.557 8.43948 17.8091 8.32304 18.0683 8.28627C18.3292 8.2495 18.6041 8.29415 18.6251 8.44824Z"/>
</mask>
<path d="M22.9352 15.0855C22.9231 15.0485 22.9352 15.0144 22.8853 14.9804C22.7986 14.6713 22.4677 14.6818 22.0037 14.7781C20.5556 15.0758 19.9953 14.892 19.7921 14.7606C20.9671 12.9676 21.9328 10.8016 22.4546 8.78093C22.6927 7.86165 23.1532 5.69652 22.5614 4.63979C22.5238 4.56713 22.4799 4.49798 22.43 4.43317C21.2998 2.99209 19.6433 2.21726 17.6384 2.19625C16.3295 2.18224 15.2132 2.49918 14.9103 2.61562C14.7604 2.58753 14.6098 2.56359 14.4586 2.54383C14.0794 2.4754 13.6952 2.43821 13.3099 2.43264C12.275 2.416 11.3812 2.66377 10.6396 3.16806C9.89017 2.88702 6.44855 1.72785 4.31844 3.23723C3.12688 4.08034 2.57881 5.58621 2.68475 7.71457C2.72065 8.43073 3.12863 10.6335 3.773 12.7435C4.17574 14.062 4.59423 15.1091 5.0276 15.8795C5.51176 16.7498 6.01342 17.2742 6.52822 17.4467C6.92045 17.5763 7.52017 17.5719 8.15491 16.8084C8.70552 16.1499 9.27334 15.5058 9.85777 14.8771C10.2386 15.0828 10.651 15.194 11.0747 15.2071V15.2106C11.0011 15.2984 10.929 15.3874 10.8585 15.4777C10.5617 15.8541 10.4995 15.9329 9.54522 16.1299C9.27381 16.186 8.55239 16.3339 8.54189 16.84C8.53988 16.9411 8.56758 17.0407 8.62156 17.1263C8.8203 17.4966 9.42877 17.6603 9.5102 17.6805C10.679 17.972 11.7033 17.761 12.4624 17.086C12.4475 19.0392 12.5298 20.954 12.7645 21.5406C12.9579 22.0247 13.4316 23.2075 14.927 23.2075C15.1458 23.2075 15.3875 23.1813 15.6527 23.1252C17.2129 22.7908 17.8905 22.1009 18.1523 20.581C18.2836 19.8193 18.5043 18.0639 18.6242 16.9906C18.6391 16.9293 18.6557 16.8855 18.6741 16.8715C18.6741 16.8715 18.7354 16.8295 19.048 16.8977C19.0607 16.9006 19.0735 16.9026 19.0865 16.9039L19.3089 16.9231L19.322 16.924C20.0635 16.9582 20.9951 16.7997 21.5379 16.5475C22.1017 16.2849 23.1199 15.6431 22.9352 15.0855ZM4.38323 12.5929C3.73186 10.461 3.35189 8.31604 3.32212 7.71544C3.22669 5.81384 3.6872 4.49095 4.68966 3.78179C6.29796 2.64451 8.92711 3.30902 10.0373 3.66798L10.0285 3.67673C8.25735 5.46451 8.29937 8.52178 8.3055 8.70914C8.3055 8.78093 8.31075 8.88337 8.31951 9.02432C8.34928 9.53737 8.40706 10.4952 8.25472 11.5791C8.11464 12.5859 8.42457 13.5717 9.10659 14.2835C9.17663 14.357 9.25105 14.4262 9.32722 14.491C9.02342 14.8158 8.36416 15.5355 7.66113 16.3803C7.16384 16.9774 6.82064 16.8627 6.70858 16.8251C6.36538 16.7113 5.99679 16.3112 5.62382 15.6677C5.20358 14.9331 4.78071 13.8886 4.38498 12.5929H4.38323ZM9.6424 17.0475C9.50948 17.014 9.38209 16.9615 9.26418 16.8916C9.3421 16.8575 9.47167 16.8128 9.68705 16.769C10.8112 16.537 10.9845 16.3742 11.3636 15.8935C11.4658 15.7602 11.5729 15.6308 11.685 15.5057C11.7144 15.4728 11.7365 15.434 11.7497 15.3919C11.8986 15.2597 11.9879 15.2956 12.1315 15.3551C12.268 15.412 12.4011 15.5827 12.4554 15.771C12.4817 15.8603 12.5097 16.0292 12.416 16.1606C11.6245 17.269 10.4706 17.255 9.6424 17.0475ZM11.4757 13.5559L11.4302 13.6785C11.3137 13.9911 11.2052 14.2817 11.1378 14.5575C10.5538 14.5558 9.98472 14.3054 9.5531 13.8545C9.00328 13.281 8.75376 12.4834 8.86757 11.6657C9.02779 10.5206 8.96913 9.52336 8.93761 8.98755L8.92623 8.79494C9.18538 8.56556 10.3848 7.92294 11.2402 8.11905C11.6307 8.20835 11.8688 8.4745 11.9669 8.93152C12.479 11.2989 12.0352 12.2847 11.6779 13.0779C11.6055 13.2349 11.5374 13.3944 11.4757 13.5559ZM17.9229 17.5588C17.908 17.7137 17.8914 17.8879 17.8687 18.0806L17.7408 18.464C17.7307 18.4945 17.7254 18.5264 17.7251 18.5586C17.7198 18.9744 17.6778 19.1268 17.6244 19.3203C17.5374 19.6219 17.4846 19.9323 17.4668 20.2457C17.3705 21.4837 16.6981 22.1954 15.3507 22.4835C14.0243 22.768 13.7888 22.0492 13.5822 21.4145C13.5606 21.3478 13.5379 21.2816 13.5139 21.2157C13.3257 20.7027 13.3475 19.9795 13.3764 18.9788C13.3904 18.4877 13.3545 17.3145 13.0875 16.6622C13.091 16.4057 13.0963 16.1448 13.1041 15.8813C13.1049 15.8478 13.1001 15.8144 13.0901 15.7824C13.0816 15.7208 13.0688 15.66 13.0516 15.6002C12.9448 15.2255 12.6839 14.9121 12.3687 14.7817C12.2444 14.73 12.0159 14.6354 11.741 14.7055C11.7996 14.4638 11.9012 14.1916 12.0115 13.8956L12.0579 13.7713C12.1104 13.6312 12.1752 13.4868 12.2444 13.3336C12.6174 12.5036 13.1287 11.3672 12.5736 8.80019C12.3661 7.83889 11.6718 7.36962 10.6195 7.47818C9.9891 7.54384 9.41126 7.79861 9.12322 7.94395C9.06543 7.97318 9.00822 8.00353 8.95162 8.035C9.03217 7.06669 9.33597 5.25614 10.4715 4.11098C10.5558 4.02599 10.6443 3.94534 10.7368 3.86934C10.7828 3.86053 10.8262 3.84137 10.8637 3.81331C11.5221 3.31427 12.3477 3.06913 13.3169 3.08401C13.6759 3.09014 14.0191 3.11378 14.3447 3.15493C16.0432 3.46573 17.1849 4.42179 17.8783 5.24126C18.5909 6.0835 18.977 6.93186 19.1311 7.38975C17.9728 7.27244 17.1849 7.50094 16.7848 8.07265C15.9163 9.31411 17.2611 11.7253 17.9072 12.8844C18.0254 13.0963 18.1278 13.2802 18.1602 13.3572C18.3703 13.8676 18.6426 14.2082 18.8413 14.4568C18.9026 14.533 18.9622 14.6065 19.0068 14.6713C18.6566 14.7729 18.0262 15.0067 18.0832 16.1746C18.0614 16.4127 18.0369 16.6506 18.0096 16.8881C17.9693 17.0702 17.9492 17.2909 17.9229 17.5588ZM18.7021 16.1396C18.6671 15.4111 18.9385 15.335 19.2248 15.2553C19.2645 15.2443 19.3039 15.2323 19.343 15.2194C19.3799 15.2522 19.4191 15.2823 19.4603 15.3096C19.9594 15.6388 20.375 16.0302 21.6217 15.779C21.4449 15.9339 21.6386 15.7771 21.2586 15.9531C20.8997 16.1194 20.2991 16.2446 19.7291 16.2718C19.0987 16.3015 18.7783 16.2017 18.7021 16.1396ZM19.2012 8.02274C19.1909 8.31665 19.1602 8.60948 19.1092 8.89913C19.0611 9.21256 19.0112 9.53649 18.9981 9.9296C18.9858 10.3113 19.0331 10.7088 19.0795 11.094C19.1732 11.8706 19.2686 12.6699 18.8982 13.4588C18.8366 13.3498 18.7816 13.2373 18.7337 13.1217C18.6472 12.9374 18.5522 12.7571 18.4491 12.5815C17.9098 11.6149 16.6482 9.35089 17.2934 8.4281C17.6261 7.9527 18.4684 7.93257 19.2012 8.02274ZM19.4008 14.1627C19.3762 14.1313 19.3513 14.1001 19.3264 14.069L19.2957 14.0305C19.9313 12.9799 19.807 11.9406 19.6958 11.0196C19.6503 10.6414 19.6083 10.2842 19.6188 9.94973C19.6302 9.5934 19.6766 9.28872 19.7221 8.99368C19.7781 8.63034 19.8359 8.25475 19.8193 7.81175C19.8323 7.75731 19.8358 7.70104 19.8298 7.6454C19.7895 7.2199 19.3045 5.94867 18.3152 4.79738C17.6704 4.03751 16.8671 3.42791 15.9618 3.01135C16.545 2.89208 17.1395 2.83747 17.7347 2.8485C19.5312 2.88878 20.9522 3.56116 21.9581 4.84728C21.9796 4.87514 21.9992 4.90438 22.0168 4.93483C22.6498 6.12202 21.7743 10.4286 19.4008 14.1627ZM11.6823 8.80807C11.6604 8.96566 11.4109 9.17841 11.1386 9.17841C11.1149 9.17831 11.0912 9.17656 11.0677 9.17316C10.8899 9.14199 10.7312 9.04314 10.6247 8.89737C10.5844 8.84484 10.5197 8.74153 10.5319 8.64785C10.5359 8.62173 10.5452 8.5967 10.5592 8.57428C10.5732 8.55185 10.5916 8.5325 10.6133 8.5174C10.7166 8.43948 10.9215 8.41059 11.1474 8.44211C11.4241 8.48063 11.7103 8.61108 11.6823 8.80807ZM18.6251 8.44824C18.6347 8.51828 18.5822 8.62334 18.4911 8.71965C18.3969 8.82233 18.2713 8.89097 18.1339 8.91488C18.1122 8.91785 18.0902 8.91931 18.0683 8.91926C17.8117 8.91926 17.5946 8.71439 17.578 8.59445C17.557 8.43948 17.8091 8.32304 18.0683 8.28627C18.3292 8.2495 18.6041 8.29415 18.6251 8.44824Z" fill="url(#paint0_linear_563_6749)"/>
<path d="M22.9352 15.0855C22.9231 15.0485 22.9352 15.0144 22.8853 14.9804C22.7986 14.6713 22.4677 14.6818 22.0037 14.7781C20.5556 15.0758 19.9953 14.892 19.7921 14.7606C20.9671 12.9676 21.9328 10.8016 22.4546 8.78093C22.6927 7.86165 23.1532 5.69652 22.5614 4.63979C22.5238 4.56713 22.4799 4.49798 22.43 4.43317C21.2998 2.99209 19.6433 2.21726 17.6384 2.19625C16.3295 2.18224 15.2132 2.49918 14.9103 2.61562C14.7604 2.58753 14.6098 2.56359 14.4586 2.54383C14.0794 2.4754 13.6952 2.43821 13.3099 2.43264C12.275 2.416 11.3812 2.66377 10.6396 3.16806C9.89017 2.88702 6.44855 1.72785 4.31844 3.23723C3.12688 4.08034 2.57881 5.58621 2.68475 7.71457C2.72065 8.43073 3.12863 10.6335 3.773 12.7435C4.17574 14.062 4.59423 15.1091 5.0276 15.8795C5.51176 16.7498 6.01342 17.2742 6.52822 17.4467C6.92045 17.5763 7.52017 17.5719 8.15491 16.8084C8.70552 16.1499 9.27334 15.5058 9.85777 14.8771C10.2386 15.0828 10.651 15.194 11.0747 15.2071V15.2106C11.0011 15.2984 10.929 15.3874 10.8585 15.4777C10.5617 15.8541 10.4995 15.9329 9.54522 16.1299C9.27381 16.186 8.55239 16.3339 8.54189 16.84C8.53988 16.9411 8.56758 17.0407 8.62156 17.1263C8.8203 17.4966 9.42877 17.6603 9.5102 17.6805C10.679 17.972 11.7033 17.761 12.4624 17.086C12.4475 19.0392 12.5298 20.954 12.7645 21.5406C12.9579 22.0247 13.4316 23.2075 14.927 23.2075C15.1458 23.2075 15.3875 23.1813 15.6527 23.1252C17.2129 22.7908 17.8905 22.1009 18.1523 20.581C18.2836 19.8193 18.5043 18.0639 18.6242 16.9906C18.6391 16.9293 18.6557 16.8855 18.6741 16.8715C18.6741 16.8715 18.7354 16.8295 19.048 16.8977C19.0607 16.9006 19.0735 16.9026 19.0865 16.9039L19.3089 16.9231L19.322 16.924C20.0635 16.9582 20.9951 16.7997 21.5379 16.5475C22.1017 16.2849 23.1199 15.6431 22.9352 15.0855ZM4.38323 12.5929C3.73186 10.461 3.35189 8.31604 3.32212 7.71544C3.22669 5.81384 3.6872 4.49095 4.68966 3.78179C6.29796 2.64451 8.92711 3.30902 10.0373 3.66798L10.0285 3.67673C8.25735 5.46451 8.29937 8.52178 8.3055 8.70914C8.3055 8.78093 8.31075 8.88337 8.31951 9.02432C8.34928 9.53737 8.40706 10.4952 8.25472 11.5791C8.11464 12.5859 8.42457 13.5717 9.10659 14.2835C9.17663 14.357 9.25105 14.4262 9.32722 14.491C9.02342 14.8158 8.36416 15.5355 7.66113 16.3803C7.16384 16.9774 6.82064 16.8627 6.70858 16.8251C6.36538 16.7113 5.99679 16.3112 5.62382 15.6677C5.20358 14.9331 4.78071 13.8886 4.38498 12.5929H4.38323ZM9.6424 17.0475C9.50948 17.014 9.38209 16.9615 9.26418 16.8916C9.3421 16.8575 9.47167 16.8128 9.68705 16.769C10.8112 16.537 10.9845 16.3742 11.3636 15.8935C11.4658 15.7602 11.5729 15.6308 11.685 15.5057C11.7144 15.4728 11.7365 15.434 11.7497 15.3919C11.8986 15.2597 11.9879 15.2956 12.1315 15.3551C12.268 15.412 12.4011 15.5827 12.4554 15.771C12.4817 15.8603 12.5097 16.0292 12.416 16.1606C11.6245 17.269 10.4706 17.255 9.6424 17.0475ZM11.4757 13.5559L11.4302 13.6785C11.3137 13.9911 11.2052 14.2817 11.1378 14.5575C10.5538 14.5558 9.98472 14.3054 9.5531 13.8545C9.00328 13.281 8.75376 12.4834 8.86757 11.6657C9.02779 10.5206 8.96913 9.52336 8.93761 8.98755L8.92623 8.79494C9.18538 8.56556 10.3848 7.92294 11.2402 8.11905C11.6307 8.20835 11.8688 8.4745 11.9669 8.93152C12.479 11.2989 12.0352 12.2847 11.6779 13.0779C11.6055 13.2349 11.5374 13.3944 11.4757 13.5559ZM17.9229 17.5588C17.908 17.7137 17.8914 17.8879 17.8687 18.0806L17.7408 18.464C17.7307 18.4945 17.7254 18.5264 17.7251 18.5586C17.7198 18.9744 17.6778 19.1268 17.6244 19.3203C17.5374 19.6219 17.4846 19.9323 17.4668 20.2457C17.3705 21.4837 16.6981 22.1954 15.3507 22.4835C14.0243 22.768 13.7888 22.0492 13.5822 21.4145C13.5606 21.3478 13.5379 21.2816 13.5139 21.2157C13.3257 20.7027 13.3475 19.9795 13.3764 18.9788C13.3904 18.4877 13.3545 17.3145 13.0875 16.6622C13.091 16.4057 13.0963 16.1448 13.1041 15.8813C13.1049 15.8478 13.1001 15.8144 13.0901 15.7824C13.0816 15.7208 13.0688 15.66 13.0516 15.6002C12.9448 15.2255 12.6839 14.9121 12.3687 14.7817C12.2444 14.73 12.0159 14.6354 11.741 14.7055C11.7996 14.4638 11.9012 14.1916 12.0115 13.8956L12.0579 13.7713C12.1104 13.6312 12.1752 13.4868 12.2444 13.3336C12.6174 12.5036 13.1287 11.3672 12.5736 8.80019C12.3661 7.83889 11.6718 7.36962 10.6195 7.47818C9.9891 7.54384 9.41126 7.79861 9.12322 7.94395C9.06543 7.97318 9.00822 8.00353 8.95162 8.035C9.03217 7.06669 9.33597 5.25614 10.4715 4.11098C10.5558 4.02599 10.6443 3.94534 10.7368 3.86934C10.7828 3.86053 10.8262 3.84137 10.8637 3.81331C11.5221 3.31427 12.3477 3.06913 13.3169 3.08401C13.6759 3.09014 14.0191 3.11378 14.3447 3.15493C16.0432 3.46573 17.1849 4.42179 17.8783 5.24126C18.5909 6.0835 18.977 6.93186 19.1311 7.38975C17.9728 7.27244 17.1849 7.50094 16.7848 8.07265C15.9163 9.31411 17.2611 11.7253 17.9072 12.8844C18.0254 13.0963 18.1278 13.2802 18.1602 13.3572C18.3703 13.8676 18.6426 14.2082 18.8413 14.4568C18.9026 14.533 18.9622 14.6065 19.0068 14.6713C18.6566 14.7729 18.0262 15.0067 18.0832 16.1746C18.0614 16.4127 18.0369 16.6506 18.0096 16.8881C17.9693 17.0702 17.9492 17.2909 17.9229 17.5588ZM18.7021 16.1396C18.6671 15.4111 18.9385 15.335 19.2248 15.2553C19.2645 15.2443 19.3039 15.2323 19.343 15.2194C19.3799 15.2522 19.4191 15.2823 19.4603 15.3096C19.9594 15.6388 20.375 16.0302 21.6217 15.779C21.4449 15.9339 21.6386 15.7771 21.2586 15.9531C20.8997 16.1194 20.2991 16.2446 19.7291 16.2718C19.0987 16.3015 18.7783 16.2017 18.7021 16.1396ZM19.2012 8.02274C19.1909 8.31665 19.1602 8.60948 19.1092 8.89913C19.0611 9.21256 19.0112 9.53649 18.9981 9.9296C18.9858 10.3113 19.0331 10.7088 19.0795 11.094C19.1732 11.8706 19.2686 12.6699 18.8982 13.4588C18.8366 13.3498 18.7816 13.2373 18.7337 13.1217C18.6472 12.9374 18.5522 12.7571 18.4491 12.5815C17.9098 11.6149 16.6482 9.35089 17.2934 8.4281C17.6261 7.9527 18.4684 7.93257 19.2012 8.02274ZM19.4008 14.1627C19.3762 14.1313 19.3513 14.1001 19.3264 14.069L19.2957 14.0305C19.9313 12.9799 19.807 11.9406 19.6958 11.0196C19.6503 10.6414 19.6083 10.2842 19.6188 9.94973C19.6302 9.5934 19.6766 9.28872 19.7221 8.99368C19.7781 8.63034 19.8359 8.25475 19.8193 7.81175C19.8323 7.75731 19.8358 7.70104 19.8298 7.6454C19.7895 7.2199 19.3045 5.94867 18.3152 4.79738C17.6704 4.03751 16.8671 3.42791 15.9618 3.01135C16.545 2.89208 17.1395 2.83747 17.7347 2.8485C19.5312 2.88878 20.9522 3.56116 21.9581 4.84728C21.9796 4.87514 21.9992 4.90438 22.0168 4.93483C22.6498 6.12202 21.7743 10.4286 19.4008 14.1627ZM11.6823 8.80807C11.6604 8.96566 11.4109 9.17841 11.1386 9.17841C11.1149 9.17831 11.0912 9.17656 11.0677 9.17316C10.8899 9.14199 10.7312 9.04314 10.6247 8.89737C10.5844 8.84484 10.5197 8.74153 10.5319 8.64785C10.5359 8.62173 10.5452 8.5967 10.5592 8.57428C10.5732 8.55185 10.5916 8.5325 10.6133 8.5174C10.7166 8.43948 10.9215 8.41059 11.1474 8.44211C11.4241 8.48063 11.7103 8.61108 11.6823 8.80807ZM18.6251 8.44824C18.6347 8.51828 18.5822 8.62334 18.4911 8.71965C18.3969 8.82233 18.2713 8.89097 18.1339 8.91488C18.1122 8.91785 18.0902 8.91931 18.0683 8.91926C17.8117 8.91926 17.5946 8.71439 17.578 8.59445C17.557 8.43948 17.8091 8.32304 18.0683 8.28627C18.3292 8.2495 18.6041 8.29415 18.6251 8.44824Z" stroke="url(#paint1_linear_563_6749)" mask="url(#path-1-outside-1_563_6749)"/>
<defs>
<linearGradient id="paint0_linear_563_6749" x1="2.67188" y1="23.2075" x2="22.9573" y2="23.2075" gradientUnits="userSpaceOnUse">
<stop stop-color="#26A7CF"/>
<stop offset="1" stop-color="#27AF8F"/>
</linearGradient>
<linearGradient id="paint1_linear_563_6749" x1="2.67188" y1="23.2075" x2="22.9573" y2="23.2075" gradientUnits="userSpaceOnUse">
<stop stop-color="#26A7CF"/>
<stop offset="1" stop-color="#27AF8F"/>
</linearGradient>
</defs>
</svg>
