<svg width="21" height="21" viewBox="0 0 21 21" fill="none" xmlns="http://www.w3.org/2000/svg">
<path d="M10.8145 7.5H3.81445C3.28402 7.5 2.77531 7.71071 2.40024 8.08579C2.02517 8.46086 1.81445 8.96957 1.81445 9.5V13.5C1.81445 14.0304 2.02517 14.5391 2.40024 14.9142C2.77531 15.2893 3.28402 15.5 3.81445 15.5H6.81445M10.8145 13.5H17.8145C18.3449 13.5 18.8536 13.2893 19.2287 12.9142C19.6037 12.5391 19.8145 12.0304 19.8145 11.5V7.5C19.8145 6.96957 19.6037 6.46086 19.2287 6.08579C18.8536 5.71071 18.3449 5.5 17.8145 5.5H14.8145" stroke="url(#paint0_linear_563_6713)" stroke-width="2" stroke-linecap="round" stroke-linejoin="round"/>
<path d="M6.81445 7.5V3.5C6.81445 2.96957 7.02517 2.46086 7.40024 2.08579C7.77531 1.71071 8.28402 1.5 8.81445 1.5H12.8145C13.3449 1.5 13.8536 1.71071 14.2287 2.08579C14.6037 2.46086 14.8145 2.96957 14.8145 3.5V8.5C14.8145 9.03043 14.6037 9.53914 14.2287 9.91421C13.8536 10.2893 13.3449 10.5 12.8145 10.5H8.81445C8.28402 10.5 7.77531 10.7107 7.40024 11.0858C7.02517 11.4609 6.81445 11.9696 6.81445 12.5V17.5C6.81445 18.0304 7.02517 18.5391 7.40024 18.9142C7.77531 19.2893 8.28402 19.5 8.81445 19.5H12.8145C13.3449 19.5 13.8536 19.2893 14.2287 18.9142C14.6037 18.5391 14.8145 18.0304 14.8145 17.5V13.5M9.81445 4.5V4.51M11.8145 16.5V16.51" stroke="url(#paint1_linear_563_6713)" stroke-width="2" stroke-linecap="round" stroke-linejoin="round"/>
<defs>
<linearGradient id="paint0_linear_563_6713" x1="1.81445" y1="15.5" x2="19.8145" y2="15.5" gradientUnits="userSpaceOnUse">
<stop stop-color="#26A7CF"/>
<stop offset="1" stop-color="#27AF8F"/>
</linearGradient>
<linearGradient id="paint1_linear_563_6713" x1="6.81445" y1="19.5" x2="14.8145" y2="19.5" gradientUnits="userSpaceOnUse">
<stop stop-color="#26A7CF"/>
<stop offset="1" stop-color="#27AF8F"/>
</linearGradient>
</defs>
</svg>
