<svg width="25" height="25" viewBox="0 0 25 25" fill="none" xmlns="http://www.w3.org/2000/svg">
<g clip-path="url(#clip0_563_6746)">
<mask id="path-1-inside-1_563_6746" fill="white">
<path d="M21.4653 14.0491L21.5643 14.0476C22.1898 14.0476 22.7815 14.1931 23.3065 14.4526L23.2833 14.4421C23.7504 14.6677 24.1492 15.0132 24.439 15.4433L24.4458 15.4538C24.6981 15.824 24.8229 16.2664 24.8013 16.7138V16.7093C24.7907 16.9161 24.7389 17.1186 24.649 17.3051C24.5591 17.4916 24.4329 17.6583 24.2778 17.7953L24.2763 17.7968C24.1088 17.9612 23.9081 18.0878 23.6875 18.1681L23.6763 18.1718C23.5513 18.1968 23.4825 18.1781 23.47 18.1156C23.4575 18.0531 23.5138 17.9843 23.6388 17.9093C23.9778 17.7038 24.223 17.3723 24.3123 16.9816L24.3145 16.9718C24.334 16.7114 24.2821 16.4505 24.1645 16.2173L24.1683 16.2256C24.0109 15.8939 23.7675 15.6106 23.4633 15.4051L23.4558 15.4006C22.9858 15.1006 22.4493 14.9206 21.8935 14.8763L21.8815 14.8756C21.0856 14.7623 20.2739 14.8566 19.525 15.1493L19.5565 15.1381C19.6653 15.3923 19.7335 15.6871 19.7433 15.9961V15.9998C19.7378 16.3009 19.6562 16.5956 19.5061 16.8566C19.3559 17.1176 19.1421 17.3363 18.8845 17.4923L18.8763 17.4968C18.6438 17.6618 18.3783 17.8066 18.0955 17.9191L18.0693 17.9281C17.8642 18.0269 17.6373 18.0718 17.41 18.0586H17.4138C16.9393 17.9591 16.8268 17.5466 17.0763 16.8211C17.185 16.5053 17.3373 16.2316 17.53 15.9908L17.5255 15.9961C17.7723 15.6736 18.043 15.3908 18.3423 15.1403L18.3505 15.1336L18.277 15.0241C18.1314 14.7724 18.0094 14.5078 17.9125 14.2336L17.902 14.1991C17.827 13.9491 17.7645 13.7118 17.7145 13.4873L17.677 13.2248L17.302 13.9366C16.977 14.5366 16.6645 15.0613 16.3645 15.5108L16.252 15.6983C16.378 16.0043 16.471 16.3591 16.513 16.7296L16.5145 16.7483C16.5353 17.0375 16.4812 17.3272 16.3575 17.5894C16.2337 17.8516 16.0445 18.0775 15.808 18.2453L15.8028 18.2491C15.5754 18.3879 15.34 18.5131 15.0978 18.6241L15.0528 18.6428C14.7696 18.7639 14.4672 18.8338 14.1595 18.8491H14.1528C13.9437 18.8636 13.7345 18.8238 13.5453 18.7336L13.5528 18.7366C13.4785 18.6734 13.4272 18.5874 13.407 18.492C13.3868 18.3966 13.3988 18.2972 13.441 18.2093L13.4395 18.2123C13.7395 17.7916 14.035 17.4256 14.3493 17.0761L14.3395 17.0873L15.1645 16.0381L15.0153 15.7006C14.8857 15.4598 14.7764 15.2087 14.6883 14.9498L14.6778 14.9138C14.6028 14.6638 14.5403 14.4266 14.4903 14.2021L14.4528 13.9396L14.0778 14.8396C13.7783 15.5391 13.5033 16.1388 13.2528 16.6388C12.8793 17.3888 12.5668 17.9638 12.3153 18.3638L12.2403 18.4763C11.9408 18.9508 11.6533 19.1881 11.3778 19.1881C11.1023 19.1881 10.9155 19.0131 10.8175 18.6631C10.7412 18.3827 10.7028 18.0934 10.7035 17.8028L10.7043 17.7218V17.7256L10.7793 17.2006V17.2381C10.5793 17.7126 10.3793 18.1498 10.1793 18.5498C10.0575 18.7907 9.9163 19.0212 9.75705 19.2391L9.7668 19.2248C9.6123 19.3868 9.3948 19.4873 9.15405 19.4873H9.14805C9.13229 19.4888 9.1143 19.4888 9.0963 19.4888C8.91417 19.489 8.73851 19.4214 8.60355 19.2991L8.6043 19.2998C8.33821 19.0268 8.1466 18.6901 8.0478 18.3218L8.04404 18.3061C7.89668 17.8878 7.83223 17.4448 7.8543 17.0018V17.0093C7.91355 16.4123 8.0328 15.8656 8.20755 15.3443L8.1918 15.3976L6.84255 16.1851V16.2226C7.08864 16.7397 7.19196 17.3133 7.1418 17.8838L7.14255 17.8718C7.10623 18.6135 6.86959 19.3314 6.4578 19.9493L6.46755 19.9343C6.05579 20.5931 5.44925 21.1073 4.73205 21.4058L4.7073 21.4148C4.27616 21.6052 3.80983 21.7028 3.33855 21.7013C3.02505 21.7013 2.72055 21.6593 2.43255 21.5798L2.45655 21.5851C2.22383 21.5078 2.02626 21.3501 1.8993 21.1403L1.89705 21.1358C1.71534 20.8705 1.61072 20.56 1.5948 20.2388V20.2343C1.54736 19.7791 1.62761 19.3197 1.82655 18.9076L1.8198 18.9226C2.23977 18.2011 2.83784 17.5994 3.5568 17.1751L3.5793 17.1631C4.11577 16.7942 4.67909 16.4661 5.26455 16.1813L5.34405 16.1461L5.53155 16.0336C5.30655 15.8586 4.89405 15.5586 4.29405 15.1336C3.53738 14.6296 2.8171 14.0729 2.13855 13.4678L2.1573 13.4843C1.51425 12.9334 1.05802 12.1965 0.851546 11.3753L0.845546 11.3468C0.759253 10.8148 0.85379 10.2693 1.11405 9.79733L1.10805 9.81008C1.50967 8.93674 2.09499 8.16032 2.82405 7.53383L2.83305 7.52633C3.61333 6.78982 4.48616 6.15801 5.42955 5.64683L5.4948 5.61458C6.41066 5.09229 7.37181 4.65376 8.36655 4.30433L8.49405 4.26533C9.52785 3.89474 10.6178 3.70522 11.716 3.70508H11.7175C12.676 3.67484 13.6274 3.87927 14.4888 4.30058L14.4543 4.28483C15.1293 4.59233 15.6348 5.17133 15.8373 5.87933L15.8418 5.89733C16.0177 6.6108 15.9555 7.3622 15.6648 8.03708L15.673 8.01533C15.3681 8.76431 14.9089 9.44072 14.3253 10.0006L14.323 10.0028C13.7404 10.5805 13.047 11.0346 12.2845 11.3378L12.2433 11.3521C11.38 11.7165 10.4573 11.9196 9.5208 11.9513L9.50655 11.9521C8.91638 12.0156 8.31949 11.9621 7.75005 11.7946L7.7823 11.8028C7.43565 11.6941 7.11537 11.5146 6.8418 11.2756L6.8448 11.2778C6.65951 11.1274 6.50776 10.9399 6.3993 10.7273L6.3948 10.7176C6.3198 10.5176 6.31355 10.3988 6.37605 10.3613C6.43855 10.3238 6.4823 10.3176 6.5073 10.3426L6.6948 10.5301C6.90405 10.7243 7.1538 10.8773 7.4298 10.9748L7.4448 10.9793C7.8243 11.1113 8.2623 11.1878 8.71755 11.1878C8.8638 11.1878 9.0078 11.1803 9.14955 11.1646L9.1323 11.1661C10.2938 11.0333 11.4078 10.6291 12.3843 9.98633L12.3565 10.0036C13.1409 9.54025 13.7943 8.88461 14.2548 8.09858L14.2683 8.07308C14.494 7.74158 14.629 7.33208 14.629 6.89108C14.629 6.62033 14.578 6.36083 14.485 6.12233L14.4903 6.13658C14.3513 5.91478 14.1667 5.72506 13.9489 5.57999C13.731 5.43491 13.4848 5.3378 13.2265 5.29508L13.216 5.29358C12.3918 5.09911 11.5357 5.08198 10.7043 5.24333L10.7418 5.23733C9.54384 5.44797 8.38437 5.83757 7.3023 6.39308L7.37055 6.36083C4.29655 7.91083 2.7093 9.49808 2.6088 11.1226V11.1593C2.6088 11.8141 2.86605 12.4088 3.2853 12.8483L3.28455 12.8476C3.75726 13.3741 4.28815 13.8454 4.86705 14.2523L4.8963 14.2718C5.40127 14.6476 5.87712 15.0611 6.3198 15.5086L6.32055 15.5101L6.39555 15.5851L8.79555 14.2733C9.06199 13.8854 9.39395 13.5469 9.77655 13.2728L9.78855 13.2646C10.0885 13.0126 10.4695 12.8483 10.8873 12.8153L10.894 12.8146C10.909 12.8131 10.9263 12.8131 10.9443 12.8131C11.224 12.8131 11.464 12.9818 11.5675 13.2233L11.569 13.2278C11.679 13.4774 11.7176 13.7526 11.6808 14.0228L11.6815 14.0153L11.6088 14.3851L11.7213 14.3101C11.7878 14.2595 11.8667 14.2278 11.9497 14.2182C12.0327 14.2085 12.1167 14.2214 12.193 14.2553L12.19 14.2538C12.2739 14.2753 12.3459 14.3288 12.3907 14.4029C12.4354 14.4769 12.4493 14.5656 12.4293 14.6498L12.43 14.6476L12.3175 15.0601C12.0925 15.9596 11.9428 16.6093 11.8683 17.0093C11.8201 17.1812 11.8013 17.36 11.8128 17.5381V17.5336C11.8253 17.6836 11.844 17.7586 11.869 17.7586C11.894 17.7586 11.9438 17.6836 12.0183 17.5336L12.1308 17.2711C12.1558 17.2711 12.1558 17.2836 12.1308 17.3086L12.5433 16.4461C13.5183 14.2971 14.043 13.0971 14.1175 12.8461L14.3425 12.1343C14.3675 12.0843 14.4675 12.0346 14.6425 11.9851C14.8519 11.9299 15.0681 11.9047 15.2845 11.9101H15.2823C15.6323 11.9101 15.8073 11.9976 15.8073 12.1726L15.7698 12.3601C15.6751 12.6266 15.5977 12.8989 15.538 13.1753L15.5298 13.2226C15.4921 13.4766 15.4989 13.7352 15.55 13.9868L15.5478 13.9726L15.5853 14.1218C15.6618 14.4346 15.778 14.7091 15.9303 14.9596L15.9228 14.9468C16.2223 14.4473 16.5098 13.9351 16.7853 13.4101C17.0028 13.0478 17.2053 12.6278 17.368 12.1883L17.3853 12.1358C17.4415 11.8531 17.506 11.6146 17.5848 11.3821L17.5728 11.4241C17.5978 11.3491 17.7045 11.2928 17.893 11.2553C18.0715 11.2193 18.2763 11.1991 18.4855 11.1991H18.5125H18.511C18.861 11.1991 19.0478 11.2866 19.0713 11.4616L18.9963 11.6108C18.907 11.8628 18.829 12.1658 18.7765 12.4771L18.772 12.5108C18.7486 12.7669 18.7622 13.0251 18.8125 13.2773L18.8095 13.2601V13.4093C18.8958 13.7363 19.024 14.0236 19.192 14.2838L19.1845 14.2718L19.297 14.5343C19.9645 14.2112 20.6968 14.0444 21.4383 14.0468H21.4675H21.466L21.4653 14.0491ZM5.38605 19.4888C5.92756 18.9305 6.22999 18.1831 6.22905 17.4053C6.22925 17.1009 6.18322 16.7982 6.09255 16.5076L6.09855 16.5286L5.49855 16.9036C4.88655 17.2523 4.35705 17.6416 3.8778 18.0841L3.8838 18.0788C3.51546 18.4166 3.25046 18.852 3.11955 19.3343L3.11505 19.3531C3.00255 19.8156 3.0588 20.1156 3.2838 20.2531C3.42105 20.3161 3.5823 20.3528 3.75105 20.3528C3.93555 20.3528 4.1103 20.3093 4.26405 20.2313L4.2573 20.2343C4.68695 20.08 5.07238 19.8231 5.38005 19.4858L5.3823 19.4836L5.38605 19.4888ZM10.4088 16.0358C10.5338 15.7108 10.6713 15.3233 10.8213 14.8733C11.0213 14.2733 11.09 13.9236 11.0275 13.8241C10.965 13.7246 10.8463 13.7121 10.6713 13.7866C10.4692 13.8836 10.2908 14.0236 10.1485 14.1968L10.1463 14.1998C9.98475 14.4051 9.83883 14.6222 9.7098 14.8493L9.69629 14.8748C9.53763 15.1367 9.4136 15.418 9.3273 15.7118L9.32055 15.7373C9.14582 16.2201 9.06957 16.7329 9.0963 17.2456V17.2366C9.1213 17.7361 9.2013 18.0048 9.3363 18.0428C9.4713 18.0808 9.62755 17.8996 9.80505 17.4991C9.9768 17.1893 10.1298 16.8293 10.2438 16.4521L10.2543 16.4116C10.3288 16.2346 10.3798 16.1093 10.4073 16.0358H10.4088ZM14.5683 18.0233C14.8267 17.909 15.0498 17.7277 15.2146 17.4981C15.3793 17.2685 15.4796 16.999 15.505 16.7176L15.5058 16.7116V16.6741L15.0933 17.1991L14.344 18.0241C14.3383 18.0285 14.3336 18.0342 14.3304 18.0407C14.3271 18.0472 14.3254 18.0543 14.3253 18.0616C14.3253 18.0766 14.3328 18.0901 14.3433 18.0991C14.3673 18.1236 14.4423 18.0986 14.5683 18.0241V18.0233ZM17.7925 17.3108C18.0727 17.2321 18.3195 17.0641 18.4955 16.8324C18.6714 16.6007 18.767 16.3178 18.7675 16.0268V15.9976V15.9991C18.76 15.8491 18.733 15.7081 18.6888 15.5746L18.6918 15.5858C18.4 15.8453 18.1608 16.1558 17.9875 16.5061L17.9793 16.5233C17.7538 16.9728 17.6908 17.2348 17.7903 17.3093L17.7925 17.3108Z"/>
</mask>
<path d="M21.4653 14.0491L21.5643 14.0476C22.1898 14.0476 22.7815 14.1931 23.3065 14.4526L23.2833 14.4421C23.7504 14.6677 24.1492 15.0132 24.439 15.4433L24.4458 15.4538C24.6981 15.824 24.8229 16.2664 24.8013 16.7138V16.7093C24.7907 16.9161 24.7389 17.1186 24.649 17.3051C24.5591 17.4916 24.4329 17.6583 24.2778 17.7953L24.2763 17.7968C24.1088 17.9612 23.9081 18.0878 23.6875 18.1681L23.6763 18.1718C23.5513 18.1968 23.4825 18.1781 23.47 18.1156C23.4575 18.0531 23.5138 17.9843 23.6388 17.9093C23.9778 17.7038 24.223 17.3723 24.3123 16.9816L24.3145 16.9718C24.334 16.7114 24.2821 16.4505 24.1645 16.2173L24.1683 16.2256C24.0109 15.8939 23.7675 15.6106 23.4633 15.4051L23.4558 15.4006C22.9858 15.1006 22.4493 14.9206 21.8935 14.8763L21.8815 14.8756C21.0856 14.7623 20.2739 14.8566 19.525 15.1493L19.5565 15.1381C19.6653 15.3923 19.7335 15.6871 19.7433 15.9961V15.9998C19.7378 16.3009 19.6562 16.5956 19.5061 16.8566C19.3559 17.1176 19.1421 17.3363 18.8845 17.4923L18.8763 17.4968C18.6438 17.6618 18.3783 17.8066 18.0955 17.9191L18.0693 17.9281C17.8642 18.0269 17.6373 18.0718 17.41 18.0586H17.4138C16.9393 17.9591 16.8268 17.5466 17.0763 16.8211C17.185 16.5053 17.3373 16.2316 17.53 15.9908L17.5255 15.9961C17.7723 15.6736 18.043 15.3908 18.3423 15.1403L18.3505 15.1336L18.277 15.0241C18.1314 14.7724 18.0094 14.5078 17.9125 14.2336L17.902 14.1991C17.827 13.9491 17.7645 13.7118 17.7145 13.4873L17.677 13.2248L17.302 13.9366C16.977 14.5366 16.6645 15.0613 16.3645 15.5108L16.252 15.6983C16.378 16.0043 16.471 16.3591 16.513 16.7296L16.5145 16.7483C16.5353 17.0375 16.4812 17.3272 16.3575 17.5894C16.2337 17.8516 16.0445 18.0775 15.808 18.2453L15.8028 18.2491C15.5754 18.3879 15.34 18.5131 15.0978 18.6241L15.0528 18.6428C14.7696 18.7639 14.4672 18.8338 14.1595 18.8491H14.1528C13.9437 18.8636 13.7345 18.8238 13.5453 18.7336L13.5528 18.7366C13.4785 18.6734 13.4272 18.5874 13.407 18.492C13.3868 18.3966 13.3988 18.2972 13.441 18.2093L13.4395 18.2123C13.7395 17.7916 14.035 17.4256 14.3493 17.0761L14.3395 17.0873L15.1645 16.0381L15.0153 15.7006C14.8857 15.4598 14.7764 15.2087 14.6883 14.9498L14.6778 14.9138C14.6028 14.6638 14.5403 14.4266 14.4903 14.2021L14.4528 13.9396L14.0778 14.8396C13.7783 15.5391 13.5033 16.1388 13.2528 16.6388C12.8793 17.3888 12.5668 17.9638 12.3153 18.3638L12.2403 18.4763C11.9408 18.9508 11.6533 19.1881 11.3778 19.1881C11.1023 19.1881 10.9155 19.0131 10.8175 18.6631C10.7412 18.3827 10.7028 18.0934 10.7035 17.8028L10.7043 17.7218V17.7256L10.7793 17.2006V17.2381C10.5793 17.7126 10.3793 18.1498 10.1793 18.5498C10.0575 18.7907 9.9163 19.0212 9.75705 19.2391L9.7668 19.2248C9.6123 19.3868 9.3948 19.4873 9.15405 19.4873H9.14805C9.13229 19.4888 9.1143 19.4888 9.0963 19.4888C8.91417 19.489 8.73851 19.4214 8.60355 19.2991L8.6043 19.2998C8.33821 19.0268 8.1466 18.6901 8.0478 18.3218L8.04404 18.3061C7.89668 17.8878 7.83223 17.4448 7.8543 17.0018V17.0093C7.91355 16.4123 8.0328 15.8656 8.20755 15.3443L8.1918 15.3976L6.84255 16.1851V16.2226C7.08864 16.7397 7.19196 17.3133 7.1418 17.8838L7.14255 17.8718C7.10623 18.6135 6.86959 19.3314 6.4578 19.9493L6.46755 19.9343C6.05579 20.5931 5.44925 21.1073 4.73205 21.4058L4.7073 21.4148C4.27616 21.6052 3.80983 21.7028 3.33855 21.7013C3.02505 21.7013 2.72055 21.6593 2.43255 21.5798L2.45655 21.5851C2.22383 21.5078 2.02626 21.3501 1.8993 21.1403L1.89705 21.1358C1.71534 20.8705 1.61072 20.56 1.5948 20.2388V20.2343C1.54736 19.7791 1.62761 19.3197 1.82655 18.9076L1.8198 18.9226C2.23977 18.2011 2.83784 17.5994 3.5568 17.1751L3.5793 17.1631C4.11577 16.7942 4.67909 16.4661 5.26455 16.1813L5.34405 16.1461L5.53155 16.0336C5.30655 15.8586 4.89405 15.5586 4.29405 15.1336C3.53738 14.6296 2.8171 14.0729 2.13855 13.4678L2.1573 13.4843C1.51425 12.9334 1.05802 12.1965 0.851546 11.3753L0.845546 11.3468C0.759253 10.8148 0.85379 10.2693 1.11405 9.79733L1.10805 9.81008C1.50967 8.93674 2.09499 8.16032 2.82405 7.53383L2.83305 7.52633C3.61333 6.78982 4.48616 6.15801 5.42955 5.64683L5.4948 5.61458C6.41066 5.09229 7.37181 4.65376 8.36655 4.30433L8.49405 4.26533C9.52785 3.89474 10.6178 3.70522 11.716 3.70508H11.7175C12.676 3.67484 13.6274 3.87927 14.4888 4.30058L14.4543 4.28483C15.1293 4.59233 15.6348 5.17133 15.8373 5.87933L15.8418 5.89733C16.0177 6.6108 15.9555 7.3622 15.6648 8.03708L15.673 8.01533C15.3681 8.76431 14.9089 9.44072 14.3253 10.0006L14.323 10.0028C13.7404 10.5805 13.047 11.0346 12.2845 11.3378L12.2433 11.3521C11.38 11.7165 10.4573 11.9196 9.5208 11.9513L9.50655 11.9521C8.91638 12.0156 8.31949 11.9621 7.75005 11.7946L7.7823 11.8028C7.43565 11.6941 7.11537 11.5146 6.8418 11.2756L6.8448 11.2778C6.65951 11.1274 6.50776 10.9399 6.3993 10.7273L6.3948 10.7176C6.3198 10.5176 6.31355 10.3988 6.37605 10.3613C6.43855 10.3238 6.4823 10.3176 6.5073 10.3426L6.6948 10.5301C6.90405 10.7243 7.1538 10.8773 7.4298 10.9748L7.4448 10.9793C7.8243 11.1113 8.2623 11.1878 8.71755 11.1878C8.8638 11.1878 9.0078 11.1803 9.14955 11.1646L9.1323 11.1661C10.2938 11.0333 11.4078 10.6291 12.3843 9.98633L12.3565 10.0036C13.1409 9.54025 13.7943 8.88461 14.2548 8.09858L14.2683 8.07308C14.494 7.74158 14.629 7.33208 14.629 6.89108C14.629 6.62033 14.578 6.36083 14.485 6.12233L14.4903 6.13658C14.3513 5.91478 14.1667 5.72506 13.9489 5.57999C13.731 5.43491 13.4848 5.3378 13.2265 5.29508L13.216 5.29358C12.3918 5.09911 11.5357 5.08198 10.7043 5.24333L10.7418 5.23733C9.54384 5.44797 8.38437 5.83757 7.3023 6.39308L7.37055 6.36083C4.29655 7.91083 2.7093 9.49808 2.6088 11.1226V11.1593C2.6088 11.8141 2.86605 12.4088 3.2853 12.8483L3.28455 12.8476C3.75726 13.3741 4.28815 13.8454 4.86705 14.2523L4.8963 14.2718C5.40127 14.6476 5.87712 15.0611 6.3198 15.5086L6.32055 15.5101L6.39555 15.5851L8.79555 14.2733C9.06199 13.8854 9.39395 13.5469 9.77655 13.2728L9.78855 13.2646C10.0885 13.0126 10.4695 12.8483 10.8873 12.8153L10.894 12.8146C10.909 12.8131 10.9263 12.8131 10.9443 12.8131C11.224 12.8131 11.464 12.9818 11.5675 13.2233L11.569 13.2278C11.679 13.4774 11.7176 13.7526 11.6808 14.0228L11.6815 14.0153L11.6088 14.3851L11.7213 14.3101C11.7878 14.2595 11.8667 14.2278 11.9497 14.2182C12.0327 14.2085 12.1167 14.2214 12.193 14.2553L12.19 14.2538C12.2739 14.2753 12.3459 14.3288 12.3907 14.4029C12.4354 14.4769 12.4493 14.5656 12.4293 14.6498L12.43 14.6476L12.3175 15.0601C12.0925 15.9596 11.9428 16.6093 11.8683 17.0093C11.8201 17.1812 11.8013 17.36 11.8128 17.5381V17.5336C11.8253 17.6836 11.844 17.7586 11.869 17.7586C11.894 17.7586 11.9438 17.6836 12.0183 17.5336L12.1308 17.2711C12.1558 17.2711 12.1558 17.2836 12.1308 17.3086L12.5433 16.4461C13.5183 14.2971 14.043 13.0971 14.1175 12.8461L14.3425 12.1343C14.3675 12.0843 14.4675 12.0346 14.6425 11.9851C14.8519 11.9299 15.0681 11.9047 15.2845 11.9101H15.2823C15.6323 11.9101 15.8073 11.9976 15.8073 12.1726L15.7698 12.3601C15.6751 12.6266 15.5977 12.8989 15.538 13.1753L15.5298 13.2226C15.4921 13.4766 15.4989 13.7352 15.55 13.9868L15.5478 13.9726L15.5853 14.1218C15.6618 14.4346 15.778 14.7091 15.9303 14.9596L15.9228 14.9468C16.2223 14.4473 16.5098 13.9351 16.7853 13.4101C17.0028 13.0478 17.2053 12.6278 17.368 12.1883L17.3853 12.1358C17.4415 11.8531 17.506 11.6146 17.5848 11.3821L17.5728 11.4241C17.5978 11.3491 17.7045 11.2928 17.893 11.2553C18.0715 11.2193 18.2763 11.1991 18.4855 11.1991H18.5125H18.511C18.861 11.1991 19.0478 11.2866 19.0713 11.4616L18.9963 11.6108C18.907 11.8628 18.829 12.1658 18.7765 12.4771L18.772 12.5108C18.7486 12.7669 18.7622 13.0251 18.8125 13.2773L18.8095 13.2601V13.4093C18.8958 13.7363 19.024 14.0236 19.192 14.2838L19.1845 14.2718L19.297 14.5343C19.9645 14.2112 20.6968 14.0444 21.4383 14.0468H21.4675H21.466L21.4653 14.0491ZM5.38605 19.4888C5.92756 18.9305 6.22999 18.1831 6.22905 17.4053C6.22925 17.1009 6.18322 16.7982 6.09255 16.5076L6.09855 16.5286L5.49855 16.9036C4.88655 17.2523 4.35705 17.6416 3.8778 18.0841L3.8838 18.0788C3.51546 18.4166 3.25046 18.852 3.11955 19.3343L3.11505 19.3531C3.00255 19.8156 3.0588 20.1156 3.2838 20.2531C3.42105 20.3161 3.5823 20.3528 3.75105 20.3528C3.93555 20.3528 4.1103 20.3093 4.26405 20.2313L4.2573 20.2343C4.68695 20.08 5.07238 19.8231 5.38005 19.4858L5.3823 19.4836L5.38605 19.4888ZM10.4088 16.0358C10.5338 15.7108 10.6713 15.3233 10.8213 14.8733C11.0213 14.2733 11.09 13.9236 11.0275 13.8241C10.965 13.7246 10.8463 13.7121 10.6713 13.7866C10.4692 13.8836 10.2908 14.0236 10.1485 14.1968L10.1463 14.1998C9.98475 14.4051 9.83883 14.6222 9.7098 14.8493L9.69629 14.8748C9.53763 15.1367 9.4136 15.418 9.3273 15.7118L9.32055 15.7373C9.14582 16.2201 9.06957 16.7329 9.0963 17.2456V17.2366C9.1213 17.7361 9.2013 18.0048 9.3363 18.0428C9.4713 18.0808 9.62755 17.8996 9.80505 17.4991C9.9768 17.1893 10.1298 16.8293 10.2438 16.4521L10.2543 16.4116C10.3288 16.2346 10.3798 16.1093 10.4073 16.0358H10.4088ZM14.5683 18.0233C14.8267 17.909 15.0498 17.7277 15.2146 17.4981C15.3793 17.2685 15.4796 16.999 15.505 16.7176L15.5058 16.7116V16.6741L15.0933 17.1991L14.344 18.0241C14.3383 18.0285 14.3336 18.0342 14.3304 18.0407C14.3271 18.0472 14.3254 18.0543 14.3253 18.0616C14.3253 18.0766 14.3328 18.0901 14.3433 18.0991C14.3673 18.1236 14.4423 18.0986 14.5683 18.0241V18.0233ZM17.7925 17.3108C18.0727 17.2321 18.3195 17.0641 18.4955 16.8324C18.6714 16.6007 18.767 16.3178 18.7675 16.0268V15.9976V15.9991C18.76 15.8491 18.733 15.7081 18.6888 15.5746L18.6918 15.5858C18.4 15.8453 18.1608 16.1558 17.9875 16.5061L17.9793 16.5233C17.7538 16.9728 17.6908 17.2348 17.7903 17.3093L17.7925 17.3108Z" fill="#363636" stroke="url(#paint0_linear_563_6746)" stroke-width="2" mask="url(#path-1-inside-1_563_6746)"/>
</g>
<defs>
<linearGradient id="paint0_linear_563_6746" x1="0.814453" y1="21.7013" x2="24.8037" y2="21.7013" gradientUnits="userSpaceOnUse">
<stop stop-color="#26A7CF"/>
<stop offset="1" stop-color="#27AF8F"/>
</linearGradient>
<clipPath id="clip0_563_6746">
<rect width="24" height="24" fill="white" transform="translate(0.814453 0.70166)"/>
</clipPath>
</defs>
</svg>
