<svg width="23" height="20" viewBox="0 0 23 20" fill="none" xmlns="http://www.w3.org/2000/svg">
<path d="M21.9319 0.630024C21.8444 0.477636 21.7183 0.350999 21.5663 0.26287C21.4142 0.174741 21.2417 0.12823 21.0659 0.128023L16.0959 0.124023H12.4439C12.2837 0.124374 12.1259 0.163151 11.9837 0.237101C11.8415 0.311051 11.7192 0.418017 11.6269 0.549023L11.0679 1.34502L10.5039 0.547023C10.4118 0.416283 10.2895 0.309611 10.1475 0.235995C10.0055 0.162379 9.84788 0.123977 9.68793 0.124023H6.03293L1.05993 0.150024C0.884185 0.150819 0.711758 0.197915 0.560013 0.286566C0.408269 0.375218 0.282568 0.502294 0.195572 0.654993C0.108576 0.807692 0.0633578 0.980622 0.0644733 1.15636C0.0655888 1.3321 0.112998 1.50444 0.201926 1.65602L10.2219 18.762C10.3102 18.9125 10.4363 19.0372 10.5877 19.1239C10.7391 19.2106 10.9105 19.2561 11.0849 19.256C11.2597 19.2561 11.4315 19.2103 11.5831 19.1233C11.7347 19.0362 11.8608 18.911 11.9489 18.76L21.9289 1.63202C22.0173 1.47996 22.0641 1.30731 22.0647 1.13143C22.0652 0.955538 22.0194 0.78261 21.9319 0.630024ZM9.16993 2.12402L10.2549 3.65702C10.3471 3.7877 10.4694 3.89433 10.6114 3.96794C10.7534 4.04155 10.911 4.07999 11.0709 4.08002H11.0719C11.2322 4.07959 11.3899 4.04078 11.5321 3.96683C11.6742 3.89289 11.7966 3.78597 11.8889 3.65502L12.9649 2.12602L14.3279 2.12402L11.0839 7.57802L7.80893 2.12402H9.16993ZM11.0819 16.274L2.80493 2.14102L5.47493 2.12602L10.2289 10.044C10.3178 10.1919 10.4434 10.3143 10.5936 10.3993C10.7438 10.4843 10.9134 10.529 11.0859 10.529H11.0919C11.2649 10.5286 11.4347 10.4833 11.5849 10.3976C11.7351 10.3119 11.8606 10.1887 11.9489 10.04L16.6569 2.12402L19.3269 2.12702L11.0819 16.274Z" fill="url(#paint0_linear_563_6761)"/>
<defs>
<linearGradient id="paint0_linear_563_6761" x1="0.0644531" y1="19.256" x2="22.0647" y2="19.256" gradientUnits="userSpaceOnUse">
<stop stop-color="#26A7CF"/>
<stop offset="1" stop-color="#27AF8F"/>
</linearGradient>
</defs>
</svg>
